<?xml version="1.0" encoding="UTF-8" standalone="no"?><svg xmlns="http://www.w3.org/2000/svg" xmlns:xlink="http://www.w3.org/1999/xlink" contentStyleType="text/css" height="547.2px" preserveAspectRatio="none" style="width:702px;height:547px;background:#FFFFFF;" version="1.1" viewBox="0 0 702 547" width="702.6px" zoomAndPan="magnify"><defs/><g><!--MD5=[9681dc6e01e10c6b4fe06895ae94f592]
cluster UI--><g id="cluster_UI"><polygon fill="#F8E7C0" points="9.6,9.6,15.6,3.6,435,3.6,435,69,429,75,9.6,75,9.6,9.6" style="stroke:#181818;stroke-width:0.6;"/><line style="stroke:#181818;stroke-width:0.6;" x1="429" x2="435" y1="9.6" y2="3.6"/><line style="stroke:#181818;stroke-width:0.6;" x1="9.6" x2="429" y1="9.6" y2="9.6"/><line style="stroke:#181818;stroke-width:0.6;" x1="429" x2="429" y1="9.6" y2="75"/><text fill="#000000" font-family="sans-serif" font-size="8.4" font-weight="bold" lengthAdjust="spacing" textLength="9" x="215.4" y="19.5211">UI</text></g><!--MD5=[1feb5a0622a9211287ff216bc4a47e33]
cluster ldap--><g id="cluster_ldap"><polygon fill="#DEB887" points="12,140.4,18,134.4,131.4,134.4,131.4,213.6,125.4,219.6,12,219.6,12,140.4" style="stroke:#181818;stroke-width:0.6;"/><line style="stroke:#181818;stroke-width:0.6;" x1="125.4" x2="131.4" y1="140.4" y2="134.4"/><line style="stroke:#181818;stroke-width:0.6;" x1="12" x2="125.4" y1="140.4" y2="140.4"/><line style="stroke:#181818;stroke-width:0.6;" x1="125.4" x2="125.4" y1="140.4" y2="219.6"/><text fill="#000000" font-family="sans-serif" font-size="8.4" font-style="italic" lengthAdjust="spacing" textLength="26.4" x="56.1" y="150.3211">«ldap»</text><text fill="#000000" font-family="sans-serif" font-size="8.4" font-weight="bold" lengthAdjust="spacing" textLength="22.8" x="57.9" y="160.2141">LDAP</text></g><!--MD5=[f72e8905bd6e3a370cb106f12698fafd]
cluster Microservices--><g id="cluster_Microservices"><polygon fill="#48D1CC" points="150.6,127.8,156.6,121.8,365.4,121.8,365.4,465.6,359.4,471.6,150.6,471.6,150.6,127.8" style="stroke:#181818;stroke-width:0.6;"/><line style="stroke:#181818;stroke-width:0.6;" x1="359.4" x2="365.4" y1="127.8" y2="121.8"/><line style="stroke:#181818;stroke-width:0.6;" x1="150.6" x2="359.4" y1="127.8" y2="127.8"/><line style="stroke:#181818;stroke-width:0.6;" x1="359.4" x2="359.4" y1="127.8" y2="471.6"/><text fill="#000000" font-family="sans-serif" font-size="8.4" font-weight="bold" lengthAdjust="spacing" textLength="58.8" x="226.2" y="137.7211">Microservices</text></g><!--MD5=[155688ac9c6405cb28b411556fc5fed5]
cluster guests_package--><g id="cluster_guests_package"><path d="M264.9,150.6 L312.9,150.6 A2.25,2.25 0 0 1 314.4,152.1 L318.6,164.093 L349.5,164.093 A1.5,1.5 0 0 1 351,165.593 L351,288.3 A1.5,1.5 0 0 1 349.5,289.8 L264.9,289.8 A1.5,1.5 0 0 1 263.4,288.3 L263.4,152.1 A1.5,1.5 0 0 1 264.9,150.6 " fill="#F0E442" style="stroke:#000000;stroke-width:0.8999999999999999;"/><line style="stroke:#000000;stroke-width:0.8999999999999999;" x1="263.4" x2="318.6" y1="164.093" y2="164.093"/><text fill="#000000" font-family="sans-serif" font-size="8.4" font-weight="bold" lengthAdjust="spacing" textLength="47.4" x="265.8" y="159.9211">ms-guests</text></g><!--MD5=[6c2879b2d2bb996634356ed1d183dc5e]
cluster wallet_package--><g id="cluster_wallet_package"><path d="M166.5,150.6 L212.1,150.6 A2.25,2.25 0 0 1 213.6,152.1 L217.8,164.093 L247.5,164.093 A1.5,1.5 0 0 1 249,165.593 L249,288.3 A1.5,1.5 0 0 1 247.5,289.8 L166.5,289.8 A1.5,1.5 0 0 1 165,288.3 L165,152.1 A1.5,1.5 0 0 1 166.5,150.6 " fill="#F0E442" style="stroke:#000000;stroke-width:0.8999999999999999;"/><line style="stroke:#000000;stroke-width:0.8999999999999999;" x1="165" x2="217.8" y1="164.093" y2="164.093"/><text fill="#000000" font-family="sans-serif" font-size="8.4" font-weight="bold" lengthAdjust="spacing" textLength="45" x="167.4" y="159.9211">ms-wallet</text></g><!--MD5=[c4611ff74c94f6a3fd51acd9c5a0fe90]
cluster debezium--><g id="cluster_debezium"><path d="M382.8,412.2 L469.2,412.2 C472.2,412.2 472.2,446.1 472.2,446.1 C472.2,446.1 472.2,480 469.2,480 L382.8,480 C379.8,480 379.8,446.1 379.8,446.1 C379.8,446.1 379.8,412.2 382.8,412.2 " fill="#FA8072" style="stroke:#181818;stroke-width:0.6;"/><path d="M469.2,412.2 C466.2,412.2 466.2,446.1 466.2,446.1 C466.2,480 469.2,480 469.2,480 " fill="none" style="stroke:#181818;stroke-width:0.6;"/><text fill="#000000" font-family="sans-serif" font-size="8.4" font-style="italic" lengthAdjust="spacing" textLength="49.8" x="401.1" y="421.5211">«Debezium»</text><text fill="#000000" font-family="sans-serif" font-size="8.4" font-weight="bold" lengthAdjust="spacing" textLength="58.8" x="396.6" y="431.4141">Kafka Cluster</text></g><!--MD5=[d40e80ed04d21816f83ec4d22e72d19f]
cluster match_link--><g id="cluster_match_link"><polygon fill="#FFC0CB" points="563.4,410.4,569.4,404.4,692.4,404.4,692.4,478.8,686.4,484.8,563.4,484.8,563.4,410.4" style="stroke:#181818;stroke-width:0.6;"/><line style="stroke:#181818;stroke-width:0.6;" x1="686.4" x2="692.4" y1="410.4" y2="404.4"/><line style="stroke:#181818;stroke-width:0.6;" x1="563.4" x2="686.4" y1="410.4" y2="410.4"/><line style="stroke:#181818;stroke-width:0.6;" x1="686.4" x2="686.4" y1="410.4" y2="484.8"/><text fill="#000000" font-family="sans-serif" font-size="8.4" font-style="italic" lengthAdjust="spacing" textLength="48.6" x="601.2" y="420.3211">«Processor»</text><text fill="#000000" font-family="sans-serif" font-size="8.4" font-weight="bold" lengthAdjust="spacing" textLength="56.4" x="597.3" y="430.2141">Match &amp; Link</text></g><!--MD5=[d0e2a5f97e7b84b4a52fc47ac0121b09]
entity android--><g id="elem_android"><rect fill="#F1F1F1" height="37.7859" rx="1.5" ry="1.5" style="stroke:#181818;stroke-width:0.3;" width="60.6" x="364.5" y="27.6"/><rect fill="#F1F1F1" height="6" style="stroke:#181818;stroke-width:0.3;" width="9" x="413.1" y="30.6"/><rect fill="#F1F1F1" height="1.2" style="stroke:#181818;stroke-width:0.3;" width="2.4" x="411.9" y="31.8"/><rect fill="#F1F1F1" height="1.2" style="stroke:#181818;stroke-width:0.3;" width="2.4" x="411.9" y="34.2"/><text fill="#000000" font-family="sans-serif" font-size="8.4" font-style="italic" lengthAdjust="spacing" textLength="36.6" x="373.5" y="47.7211">«mobile»</text><text fill="#000000" font-family="sans-serif" font-size="8.4" lengthAdjust="spacing" textLength="33.6" x="375" y="57.6141">Android</text></g><!--MD5=[be09490d94791046e3419ff8f61a31bb]
entity ios--><g id="elem_ios"><rect fill="#F1F1F1" height="37.7859" rx="1.5" ry="1.5" style="stroke:#181818;stroke-width:0.3;" width="60.6" x="282.9" y="27.6"/><rect fill="#F1F1F1" height="6" style="stroke:#181818;stroke-width:0.3;" width="9" x="331.5" y="30.6"/><rect fill="#F1F1F1" height="1.2" style="stroke:#181818;stroke-width:0.3;" width="2.4" x="330.3" y="31.8"/><rect fill="#F1F1F1" height="1.2" style="stroke:#181818;stroke-width:0.3;" width="2.4" x="330.3" y="34.2"/><text fill="#000000" font-family="sans-serif" font-size="8.4" font-style="italic" lengthAdjust="spacing" textLength="36.6" x="291.9" y="47.7211">«mobile»</text><text fill="#000000" font-family="sans-serif" font-size="8.4" lengthAdjust="spacing" textLength="13.8" x="303.3" y="57.6141">iOS</text></g><!--MD5=[08af8945a84acfe1eabc0963aa87c412]
entity web--><g id="elem_web"><rect fill="#F1F1F1" height="37.7859" rx="1.5" ry="1.5" style="stroke:#181818;stroke-width:0.3;" width="113.4" x="148.5" y="27.6"/><rect fill="#F1F1F1" height="6" style="stroke:#181818;stroke-width:0.3;" width="9" x="249.9" y="30.6"/><rect fill="#F1F1F1" height="1.2" style="stroke:#181818;stroke-width:0.3;" width="2.4" x="248.7" y="31.8"/><rect fill="#F1F1F1" height="1.2" style="stroke:#181818;stroke-width:0.3;" width="2.4" x="248.7" y="34.2"/><text fill="#000000" font-family="sans-serif" font-size="8.4" font-style="italic" lengthAdjust="spacing" textLength="52.8" x="175.8" y="47.7211">«public web»</text><text fill="#000000" font-family="sans-serif" font-size="8.4" lengthAdjust="spacing" textLength="89.4" x="157.5" y="57.6141">universalorlando.com</text></g><!--MD5=[95dd478b86db0b9ac73366f6568c523e]
entity teammember--><g id="elem_teammember"><rect fill="#F1F1F1" height="37.7859" rx="1.5" ry="1.5" style="stroke:#181818;stroke-width:0.3;" width="108" x="19.2" y="27.6"/><rect fill="#F1F1F1" height="6" style="stroke:#181818;stroke-width:0.3;" width="9" x="115.2" y="30.6"/><rect fill="#F1F1F1" height="1.2" style="stroke:#181818;stroke-width:0.3;" width="2.4" x="114" y="31.8"/><rect fill="#F1F1F1" height="1.2" style="stroke:#181818;stroke-width:0.3;" width="2.4" x="114" y="34.2"/><text fill="#000000" font-family="sans-serif" font-size="8.4" font-style="italic" lengthAdjust="spacing" textLength="59.4" x="40.5" y="47.7211">«internal web»</text><text fill="#000000" font-family="sans-serif" font-size="8.4" lengthAdjust="spacing" textLength="84" x="28.2" y="57.6141">Team Member Tools</text></g><!--MD5=[85d3f8ffd301b42283bb9f0f23821f75]
entity ldap_dir--><g id="elem_ldap_dir"><path d="M39.6,172.8 L64.2,172.8 A2.25,2.25 0 0 1 65.7,174.3 L69.9,185.4 L115.2,185.4 A1.5,1.5 0 0 1 116.7,186.9 L116.7,203.993 A1.5,1.5 0 0 1 115.2,205.493 L39.6,205.493 A1.5,1.5 0 0 1 38.1,203.993 L38.1,174.3 A1.5,1.5 0 0 1 39.6,172.8 " fill="#F1F1F1" style="stroke:#181818;stroke-width:0.3;"/><line style="stroke:#181818;stroke-width:0.3;" x1="38.1" x2="69.9" y1="185.4" y2="185.4"/><text fill="#000000" font-family="sans-serif" font-size="8.4" lengthAdjust="spacing" textLength="60.6" x="44.1" y="197.7211">LDAP Directory</text></g><!--MD5=[733ebafc4ddc0c6f83011f92b027dea0]
entity couch_db--><g id="elem_couch_db"><path d="M281.4,358.8 C281.4,352.8 307.2,352.8 307.2,352.8 C307.2,352.8 333,352.8 333,358.8 L333,383.9859 C333,389.9859 307.2,389.9859 307.2,389.9859 C307.2,389.9859 281.4,389.9859 281.4,383.9859 L281.4,358.8 " fill="#FFFFF0" style="stroke:#000000;stroke-width:0.3;"/><path d="M281.4,358.8 C281.4,364.8 307.2,364.8 307.2,364.8 C307.2,364.8 333,364.8 333,358.8 " fill="none" style="stroke:#000000;stroke-width:0.3;"/><text fill="#000000" font-family="sans-serif" font-size="8.4" font-style="italic" lengthAdjust="spacing" textLength="35.4" x="289.5" y="375.3211">«NoSQL»</text><text fill="#000000" font-family="sans-serif" font-size="8.4" lengthAdjust="spacing" textLength="39.6" x="287.4" y="385.2141">Couch DB</text></g><!--MD5=[12859362b8ca673b871b8ce76de6e694]
entity kafka_produce--><g id="elem_kafka_produce"><ellipse cx="328.8" cy="456.6" fill="#F1F1F1" rx="4.8" ry="4.8" style="stroke:#181818;stroke-width:0.3;"/><text fill="#000000" font-family="sans-serif" font-size="8.4" font-weight="bold" lengthAdjust="spacing" textLength="43.2" x="307.2" y="474.9211">Debezium</text><text fill="#000000" font-family="sans-serif" font-size="8.4" lengthAdjust="spacing" textLength="41.4" x="307.2" y="484.8141">connector</text><text fill="#000000" font-family="sans-serif" font-size="8.4" font-style="italic" lengthAdjust="spacing" textLength="42" x="307.8" y="444.6281">«Produce»</text></g><!--MD5=[d1b457bbd51b46fbb259e557b99e92ae]
entity guests_internal--><g id="elem_guests_internal"><ellipse cx="300" cy="189" fill="#3D8CFF" rx="4.8" ry="4.8" style="stroke:#181818;stroke-width:0.3;"/><text fill="#000000" font-family="sans-serif" font-size="8.4" lengthAdjust="spacing" textLength="31.8" x="284.1" y="207.3211">internal</text></g><!--MD5=[da13416faa82b4a43890a3a8fce00ce4]
entity ms_guests--><g id="elem_ms_guests"><rect fill="#F1F1F1" height="37.7859" rx="1.5" ry="1.5" style="stroke:#181818;stroke-width:0.3;" width="67.8" x="273.3" y="242.4"/><rect fill="#F1F1F1" height="6" style="stroke:#181818;stroke-width:0.3;" width="9" x="329.1" y="245.4"/><rect fill="#F1F1F1" height="1.2" style="stroke:#181818;stroke-width:0.3;" width="2.4" x="327.9" y="246.6"/><rect fill="#F1F1F1" height="1.2" style="stroke:#181818;stroke-width:0.3;" width="2.4" x="327.9" y="249"/><text fill="#000000" font-family="sans-serif" font-size="8.4" font-style="italic" lengthAdjust="spacing" textLength="36.6" x="285.9" y="262.5211">«service»</text><text fill="#000000" font-family="sans-serif" font-size="8.4" lengthAdjust="spacing" textLength="43.8" x="282.3" y="272.4141">ms-guests</text></g><!--MD5=[ba5a8998a04e4bdc0dbbcbd792069ae3]
entity wallet_internal--><g id="elem_wallet_internal"><ellipse cx="207" cy="189" fill="#3D8CFF" rx="4.8" ry="4.8" style="stroke:#181818;stroke-width:0.3;"/><text fill="#000000" font-family="sans-serif" font-size="8.4" lengthAdjust="spacing" textLength="31.8" x="191.1" y="207.3211">internal</text></g><!--MD5=[c01b3adff0033688fb146172ea200fae]
entity ms_wallet--><g id="elem_ms_wallet"><rect fill="#F1F1F1" height="37.7859" rx="1.5" ry="1.5" style="stroke:#181818;stroke-width:0.3;" width="64.8" x="174.6" y="242.4"/><rect fill="#F1F1F1" height="6" style="stroke:#181818;stroke-width:0.3;" width="9" x="227.4" y="245.4"/><rect fill="#F1F1F1" height="1.2" style="stroke:#181818;stroke-width:0.3;" width="2.4" x="226.2" y="246.6"/><rect fill="#F1F1F1" height="1.2" style="stroke:#181818;stroke-width:0.3;" width="2.4" x="226.2" y="249"/><text fill="#000000" font-family="sans-serif" font-size="8.4" font-style="italic" lengthAdjust="spacing" textLength="36.6" x="185.7" y="262.5211">«service»</text><text fill="#000000" font-family="sans-serif" font-size="8.4" lengthAdjust="spacing" textLength="40.8" x="183.6" y="272.4141">ms-wallet</text></g><!--MD5=[f376dbea7e5c36b1eb7bbb8222c0f7c0]
entity kafka_brokers--><g id="elem_kafka_brokers"><rect fill="#F1F1F1" height="27.893" rx="1.5" ry="1.5" style="stroke:#181818;stroke-width:0.3;" width="73.2" x="389.4" y="442.8"/><rect fill="#F1F1F1" height="6" style="stroke:#181818;stroke-width:0.3;" width="9" x="450.6" y="445.8"/><rect fill="#F1F1F1" height="1.2" style="stroke:#181818;stroke-width:0.3;" width="2.4" x="449.4" y="447"/><rect fill="#F1F1F1" height="1.2" style="stroke:#181818;stroke-width:0.3;" width="2.4" x="449.4" y="449.4"/><text fill="#000000" font-family="sans-serif" font-size="8.4" lengthAdjust="spacing" textLength="49.2" x="398.4" y="462.9211">Brokers 1..3</text></g><!--MD5=[9e192f6c6858cb294884017bf1dabec8]
entity consumer_1--><g id="elem_consumer_1"><rect fill="#F1F1F1" height="27.893" rx="1.5" ry="1.5" style="stroke:#181818;stroke-width:0.3;" width="88.8" x="589.2" y="442.8"/><rect fill="#F1F1F1" height="6" style="stroke:#181818;stroke-width:0.3;" width="9" x="666" y="445.8"/><rect fill="#F1F1F1" height="1.2" style="stroke:#181818;stroke-width:0.3;" width="2.4" x="664.8" y="447"/><rect fill="#F1F1F1" height="1.2" style="stroke:#181818;stroke-width:0.3;" width="2.4" x="664.8" y="449.4"/><text fill="#000000" font-family="sans-serif" font-size="8.4" lengthAdjust="spacing" textLength="64.8" x="598.2" y="462.9211">Consumers 1..5</text></g><!--MD5=[7b30460008fc71f9986330c33ee2d290]
entity gateway--><g id="elem_gateway"><ellipse cx="207" cy="106.8" fill="#9ACD32" rx="4.8" ry="4.8" style="stroke:#181818;stroke-width:0.3;"/><text fill="#000000" font-family="sans-serif" font-size="8.4" lengthAdjust="spacing" textLength="33.6" x="190.2" y="125.1211">gateway</text></g><!--MD5=[58fe32485a25c6dfb2b4de3b02168686]
entity authenticate--><g id="elem_authenticate"><ellipse cx="96" cy="106.8" fill="#FF0000" rx="4.8" ry="4.8" style="stroke:#181818;stroke-width:0.3;"/><text fill="#000000" font-family="sans-serif" font-size="8.4" lengthAdjust="spacing" textLength="51" x="70.5" y="125.1211">authenticate</text></g><!--MD5=[16d4717972d1cc757f2ff8148a7968ae]
entity kafka_consume--><g id="elem_kafka_consume"><ellipse cx="515.4" cy="523.8" fill="#F1F1F1" rx="4.8" ry="4.8" style="stroke:#181818;stroke-width:0.3;"/><text fill="#000000" font-family="sans-serif" font-size="8.4" lengthAdjust="spacing" textLength="37.2" x="496.8" y="542.1211">consume</text></g><!--MD5=[741f803b0826940167ea2a9cc6fd3e1f]
entity data_lake--><g id="elem_data_lake"><polygon fill="#F1F1F1" points="483.6,448.8,489.6,442.8,547.2,442.8,547.2,464.693,541.2,470.693,483.6,470.693,483.6,448.8" style="stroke:#181818;stroke-width:0.3;"/><line style="stroke:#181818;stroke-width:0.3;" x1="541.2" x2="547.2" y1="448.8" y2="442.8"/><line style="stroke:#181818;stroke-width:0.3;" x1="483.6" x2="541.2" y1="448.8" y2="448.8"/><line style="stroke:#181818;stroke-width:0.3;" x1="541.2" x2="541.2" y1="448.8" y2="470.693"/><text fill="#000000" font-family="sans-serif" font-size="8.4" lengthAdjust="spacing" textLength="39.6" x="492.6" y="462.9211">Data Lake</text></g><!--MD5=[45f2ff5085d056267707c7d276a8e149]
link guests_internal to ms_guests--><g id="link_guests_internal_ms_guests"><path d="M300.492,194.484 C301.476,204.18 303.714,226.29 305.334,242.298 " fill="none" id="guests_internal-ms_guests" style="stroke:#181818;stroke-width:0.6;"/></g><!--MD5=[1c8b8e41eec736a525d44e0fb642894e]
link wallet_internal to ms_wallet--><g id="link_wallet_internal_ms_wallet"><path d="M207,194.484 C207,204.18 207,226.29 207,242.298 " fill="none" id="wallet_internal-ms_wallet" style="stroke:#181818;stroke-width:0.6;"/></g><!--MD5=[3728e85fd39c56197067781e363ec437]
link gateway to guests_internal--><g id="link_gateway_guests_internal"><path d="M212.658,107.448 C221.22,107.784 237.672,109.452 249,117 C272.064,132.366 288.102,161.952 295.458,177.786 " fill="none" id="gateway-to-guests_internal" style="stroke:#181818;stroke-width:0.6;"/><path d="M301.8731,179.7153 A5.4,5.4 0 0 0 292.6099 183.8612" fill="none" style="stroke:#181818;stroke-width:0.8999999999999999;"/></g><!--MD5=[5e464d3c789b7cb478c44ebcb3d22016]
link gateway to wallet_internal--><g id="link_gateway_wallet_internal"><path d="M207,112.224 C207,124.914 207,159.468 207,177.348 " fill="none" id="gateway-to-wallet_internal" style="stroke:#181818;stroke-width:0.6;"/><path d="M212.0743,181.6511 A5.4,5.4 0 0 0 201.9257 181.6511" fill="none" style="stroke:#181818;stroke-width:0.8999999999999999;"/></g><!--MD5=[5b0924be97d99f4b42712c7be1e32466]
link ms_guests to couch_db--><g id="link_ms_guests_couch_db"><path d="M307.2,280.374 C307.2,299.556 307.2,329.52 307.2,349.638 " fill="none" id="ms_guests-to-couch_db" style="stroke:#181818;stroke-width:0.6;stroke-dasharray:7.0,7.0;"/><polygon fill="#181818" points="307.2,352.782,309.6,347.382,307.2,349.782,304.8,347.382,307.2,352.782" style="stroke:#181818;stroke-width:0.6;"/></g><!--MD5=[9f95cd16f260286e55319d7268c9ccae]
link ms_wallet to couch_db--><g id="link_ms_wallet_couch_db"><path d="M223.998,280.374 C241.866,299.79 269.898,330.258 288.408,350.382 " fill="none" id="ms_wallet-to-couch_db" style="stroke:#181818;stroke-width:0.6;stroke-dasharray:7.0,7.0;"/><polygon fill="#181818" points="290.622,352.782,288.7364,347.1816,288.5925,350.5727,285.2014,350.4288,290.622,352.782" style="stroke:#181818;stroke-width:0.6;"/></g><!--MD5=[c3cfc786852fad8722831cd930a76854]
link couch_db to kafka_produce--><g id="link_couch_db_kafka_produce"><path d="M311.832,390.018 C316.842,409.494 324.51,439.314 327.522,451.032 " fill="none" id="couch_db-kafka_produce" style="stroke:#181818;stroke-width:0.6;"/></g><!--MD5=[72ec6d1f8a90e168d8cc7d8c78310f59]
link android to gateway--><g id="link_android_gateway"><path d="M375.798,65.568 C369.33,70.92 361.77,76.266 354,79.8 C307.08,101.13 244.398,105.252 218.718,106.032 " fill="none" id="android-to-gateway" style="stroke:#181818;stroke-width:0.6;"/><path d="M214.5904,111.2008 A5.4,5.4 0 0 0 214.3585 101.0548" fill="none" style="stroke:#181818;stroke-width:0.8999999999999999;"/></g><!--MD5=[70011d888e820d831589a35534f2f817]
link ios to gateway--><g id="link_ios_gateway"><path d="M292.668,65.478 C286.428,70.524 279.372,75.72 272.4,79.8 C254.508,90.276 231.678,98.442 218.268,102.768 " fill="none" id="ios-to-gateway" style="stroke:#181818;stroke-width:0.6;"/><path d="M215.7875,108.8655 A5.4,5.4 0 0 0 212.7398 99.1852" fill="none" style="stroke:#181818;stroke-width:0.8999999999999999;"/></g><!--MD5=[b6dceaa84534c7aadd69d4ab3c7bab94]
link web to gateway--><g id="link_web_gateway"><path d="M205.758,65.478 C206.058,75.216 206.412,86.862 206.664,95.196 " fill="none" id="web-to-gateway" style="stroke:#181818;stroke-width:0.6;"/><path d="M211.8638,99.3046 A5.4,5.4 0 0 0 201.7201 99.6234" fill="none" style="stroke:#181818;stroke-width:0.8999999999999999;"/></g><!--MD5=[b69de3ebd0ddc99a165fcd5cb896ca40]
link teammember to gateway--><g id="link_teammember_gateway"><path d="M107.862,65.412 C117.522,70.29 128.088,75.414 138,79.8 C158.052,88.668 182.088,97.464 195.846,102.33 " fill="none" id="teammember-to-gateway" style="stroke:#181818;stroke-width:0.6;"/><path d="M201.4958,98.9284 A5.4,5.4 0 0 0 198.1348 108.5043" fill="none" style="stroke:#181818;stroke-width:0.8999999999999999;"/></g><!--MD5=[bfa1a27fd83a3f9162138828e961b77b]
link authenticate to ldap--><g id="link_authenticate_ldap"><path d="M90.462,107.37 C75.888,107.424 36.978,108.378 28.2,117 C25.3793,119.7713 23.08,122.9415 21.2167,126.3706 C20.2851,128.0852 19.4624,129.8644 18.738,131.6909 C18.5569,132.1475 18.3819,132.6071 18.2129,133.0693 C18.1284,133.3004 18.0454,133.5322 17.9639,133.7646 C17.9231,133.8809 17.8827,133.9972 17.8427,134.1138 " fill="none" id="authenticate-ldap" style="stroke:#181818;stroke-width:0.6;"/></g><!--MD5=[2dd83f557b9552e36aa32fcb289eb3f0]
reverse link authenticate to gateway--><g id="link_authenticate_gateway"><path d="M107.478,106.8 C138.792,106.8 170.112,106.8 201.432,106.8 " fill="none" id="authenticate-backto-gateway" style="stroke:#181818;stroke-width:0.6;"/><path d="M103.2649,111.8743 A5.4,5.4 0 0 0 103.2649 101.7257" fill="none" style="stroke:#181818;stroke-width:0.8999999999999999;"/></g><!--MD5=[cb2a29a44474df7f1a27b97359ef1930]
link kafka_brokers to kafka_produce--><g id="link_kafka_brokers_kafka_produce"><path d="M389.286,456.6 C370.962,456.6 352.632,456.6 334.308,456.6 " fill="none" id="kafka_brokers-kafka_produce" style="stroke:#181818;stroke-width:0.6;"/></g><!--MD5=[69e86b7b900ee632d7e6258b31081ab3]
link kafka_brokers to kafka_consume--><g id="link_kafka_brokers_kafka_consume"><path d="M442.47,470.55 C451.494,477.756 462.942,486.726 473.4,494.4 C486.228,503.82 501.78,514.23 509.886,519.582 " fill="none" id="kafka_brokers-kafka_consume" style="stroke:#181818;stroke-width:0.6;"/></g><!--MD5=[9548a49b2833d17758e18684fcade6e2]
link match_link to kafka_consume--><g id="link_match_link_kafka_consume"><path d="M563.3352,484.0338 C563.3121,484.0961 563.2889,484.1584 563.2656,484.2207 C563.219,484.3453 563.172,484.4698 563.1245,484.5941 C562.9345,485.0913 562.7375,485.5864 562.5331,486.0783 C562.1242,487.0621 561.6859,488.0334 561.2159,488.985 C560.2761,490.8882 559.2098,492.7125 558,494.4 C550.062,505.47 536.454,513.576 526.752,518.316 " fill="none" id="match_link-to-kafka_consume" style="stroke:#181818;stroke-width:0.6;"/><path d="M524.8417,524.7849 A5.4,5.4 0 0 0 520.6072 515.5619" fill="none" style="stroke:#181818;stroke-width:0.8999999999999999;"/></g><!--MD5=[f6db522b5cae85554e792c6f63273eb0]
link data_lake to kafka_consume--><g id="link_data_lake_kafka_consume"><path d="M515.4,470.556 C515.4,482.844 515.4,500.838 515.4,512.286 " fill="none" id="data_lake-to-kafka_consume" style="stroke:#181818;stroke-width:0.6;"/><path d="M520.4743,516.4691 A5.4,5.4 0 0 0 510.3257 516.4691" fill="none" style="stroke:#181818;stroke-width:0.8999999999999999;"/></g><!--MD5=[599d740c1868cc12292b2780c57132d1]
@startuml

skinparam database {
    backgroundColor Ivory
    borderColor black
}

skinparam package {
    backgroundColor #F0E442
}

interface gateway #YellowGreen
interface authenticate #Red
interface consume as kafka_consume

node "UI" #Strategy {
    component "Android" as android <<mobile>>
    component "iOS" as ios <<mobile>>
    component "universalorlando.com" as web <<public web>>
    component "Team Member Tools" as teammember <<internal web>>
}

node "LDAP" as ldap <<ldap>> #BurlyWood {
    folder "LDAP Directory" as ldap_dir
}

node "Microservices" #MediumTurquoise {

    package "ms-guests" as guests_package {
        interface internal as guests_internal #3D8CFF
        component "ms-guests" as ms_guests <<service>>
        guests_internal - - ms_guests
    }
    package "ms-wallet" as wallet_package {
        interface internal as wallet_internal #3D8CFF
        component "ms-wallet" as ms_wallet <<service>>
        wallet_internal - - ms_wallet
    }
    database "Couch DB" as couch_db <<NoSQL>>
    interface "**Debezium**\nconnector" <<Produce>> as kafka_produce
}

queue "Kafka Cluster" as debezium <<Debezium>> #Salmon {
    component "Brokers 1..3" as kafka_brokers
}

node "Match & Link" as match_link <<Processor>> #Pink {
    component "Consumers 1..5" as consumer_1
}

node "Data Lake" as data_lake

'Gateway'
gateway - -( guests_internal
gateway - -( wallet_internal

'Couch'
ms_guests - -.> couch_db
ms_wallet - -.> couch_db
couch_db - - kafka_produce


'UI'
android - -( gateway
ios - -( gateway
web - -( gateway
teammember - -( gateway

'LDAP'
authenticate - - ldap
gateway -left-( authenticate

'Kafka'
kafka_brokers -right- kafka_produce
kafka_brokers - - kafka_consume
match_link - -( kafka_consume
data_lake - -( kafka_consume

@enduml

@startuml

skinparam database {
    backgroundColor Ivory
    borderColor black
}

skinparam package {
    backgroundColor #F0E442
}

interface gateway #YellowGreen
interface authenticate #Red
interface consume as kafka_consume

node "UI" #Strategy {
    component "Android" as android <<mobile>>
    component "iOS" as ios <<mobile>>
    component "universalorlando.com" as web <<public web>>
    component "Team Member Tools" as teammember <<internal web>>
}

node "LDAP" as ldap <<ldap>> #BurlyWood {
    folder "LDAP Directory" as ldap_dir
}

node "Microservices" #MediumTurquoise {

    package "ms-guests" as guests_package {
        interface internal as guests_internal #3D8CFF
        component "ms-guests" as ms_guests <<service>>
        guests_internal - - ms_guests
    }
    package "ms-wallet" as wallet_package {
        interface internal as wallet_internal #3D8CFF
        component "ms-wallet" as ms_wallet <<service>>
        wallet_internal - - ms_wallet
    }
    database "Couch DB" as couch_db <<NoSQL>>
    interface "**Debezium**\nconnector" <<Produce>> as kafka_produce
}

queue "Kafka Cluster" as debezium <<Debezium>> #Salmon {
    component "Brokers 1..3" as kafka_brokers
}

node "Match & Link" as match_link <<Processor>> #Pink {
    component "Consumers 1..5" as consumer_1
}

node "Data Lake" as data_lake

gateway - -( guests_internal
gateway - -( wallet_internal

ms_guests - -.> couch_db
ms_wallet - -.> couch_db
couch_db - - kafka_produce


android - -( gateway
ios - -( gateway
web - -( gateway
teammember - -( gateway

authenticate - - ldap
gateway -left-( authenticate

kafka_brokers -right- kafka_produce
kafka_brokers - - kafka_consume
match_link - -( kafka_consume
data_lake - -( kafka_consume

@enduml

PlantUML version 1.2022.7(Mon Aug 22 13:01:30 EDT 2022)
(GPL source distribution)
Java Runtime: OpenJDK Runtime Environment
JVM: OpenJDK 64-Bit Server VM
Default Encoding: UTF-8
Language: en
Country: US
--></g></svg>