<?xml version="1.0" encoding="UTF-8" standalone="no"?><svg xmlns="http://www.w3.org/2000/svg" xmlns:xlink="http://www.w3.org/1999/xlink" contentStyleType="text/css" height="436.2px" preserveAspectRatio="none" style="width:576px;height:436px;background:#FFFFFF;" version="1.1" viewBox="0 0 576 436" width="576.6px" zoomAndPan="magnify"><defs/><g><!--MD5=[c8b95a079abb2c9a723943a7bccb3f44]
cluster gateway--><g id="cluster_gateway"><polygon fill="#F0E442" points="175.8,95.4,181.8,89.4,274.8,89.4,274.8,127.8,268.8,133.8,175.8,133.8,175.8,95.4" style="stroke:#181818;stroke-width:0.6;"/><line style="stroke:#181818;stroke-width:0.6;" x1="268.8" x2="274.8" y1="95.4" y2="89.4"/><line style="stroke:#181818;stroke-width:0.6;" x1="175.8" x2="268.8" y1="95.4" y2="95.4"/><line style="stroke:#181818;stroke-width:0.6;" x1="268.8" x2="268.8" y1="95.4" y2="133.8"/><text fill="#000000" font-family="sans-serif" font-size="8.4" font-weight="bold" lengthAdjust="spacing" textLength="53.4" x="196.2" y="105.3211">API Gateway</text></g><!--MD5=[9681dc6e01e10c6b4fe06895ae94f592]
cluster UI--><g id="cluster_UI"><polygon fill="#F8E7C0" points="9.6,9.6,15.6,3.6,435,3.6,435,69,429,75,9.6,75,9.6,9.6" style="stroke:#181818;stroke-width:0.6;"/><line style="stroke:#181818;stroke-width:0.6;" x1="429" x2="435" y1="9.6" y2="3.6"/><line style="stroke:#181818;stroke-width:0.6;" x1="9.6" x2="429" y1="9.6" y2="9.6"/><line style="stroke:#181818;stroke-width:0.6;" x1="429" x2="429" y1="9.6" y2="75"/><text fill="#000000" font-family="sans-serif" font-size="8.4" font-weight="bold" lengthAdjust="spacing" textLength="9" x="215.4" y="19.5211">UI</text></g><!--MD5=[1feb5a0622a9211287ff216bc4a47e33]
cluster ldap--><g id="cluster_ldap"><polygon fill="#DEB887" points="387,170.4,393,164.4,566.4,164.4,566.4,236.4,560.4,242.4,387,242.4,387,170.4" style="stroke:#181818;stroke-width:0.6;"/><line style="stroke:#181818;stroke-width:0.6;" x1="560.4" x2="566.4" y1="170.4" y2="164.4"/><line style="stroke:#181818;stroke-width:0.6;" x1="387" x2="560.4" y1="170.4" y2="170.4"/><line style="stroke:#181818;stroke-width:0.6;" x1="560.4" x2="560.4" y1="170.4" y2="242.4"/><text fill="#000000" font-family="sans-serif" font-size="8.4" font-style="italic" lengthAdjust="spacing" textLength="26.4" x="461.1" y="180.3211">«ldap»</text><text fill="#000000" font-family="sans-serif" font-size="8.4" font-weight="bold" lengthAdjust="spacing" textLength="22.8" x="462.9" y="190.2141">LDAP</text></g><!--MD5=[f72e8905bd6e3a370cb106f12698fafd]
cluster Microservices--><g id="cluster_Microservices"><polygon fill="#48D1CC" points="60.6,154.2,66.6,148.2,372.6,148.2,372.6,420,366.6,426,60.6,426,60.6,154.2" style="stroke:#181818;stroke-width:0.6;"/><line style="stroke:#181818;stroke-width:0.6;" x1="366.6" x2="372.6" y1="154.2" y2="148.2"/><line style="stroke:#181818;stroke-width:0.6;" x1="60.6" x2="366.6" y1="154.2" y2="154.2"/><line style="stroke:#181818;stroke-width:0.6;" x1="366.6" x2="366.6" y1="154.2" y2="426"/><text fill="#000000" font-family="sans-serif" font-size="8.4" font-weight="bold" lengthAdjust="spacing" textLength="58.8" x="184.8" y="164.1211">Microservices</text></g><!--MD5=[155688ac9c6405cb28b411556fc5fed5]
cluster guests_package--><g id="cluster_guests_package"><path d="M272.1,179.4 L320.1,179.4 A2.25,2.25 0 0 1 321.6,180.9 L325.8,192.893 L356.7,192.893 A1.5,1.5 0 0 1 358.2,194.393 L358.2,314.7 A1.5,1.5 0 0 1 356.7,316.2 L272.1,316.2 A1.5,1.5 0 0 1 270.6,314.7 L270.6,180.9 A1.5,1.5 0 0 1 272.1,179.4 " fill="#F0E442" style="stroke:#000000;stroke-width:0.8999999999999999;"/><line style="stroke:#000000;stroke-width:0.8999999999999999;" x1="270.6" x2="325.8" y1="192.893" y2="192.893"/><text fill="#000000" font-family="sans-serif" font-size="8.4" font-weight="bold" lengthAdjust="spacing" textLength="47.4" x="273" y="188.7211">ms-guests</text><text fill="#000000" font-family="sans-serif" font-size="8.4" font-style="italic" lengthAdjust="spacing" textLength="25.8" x="303.9" y="202.2141">«New»</text></g><!--MD5=[47b50930d2ddde729e61ed45c55cebd8]
cluster guest_package--><g id="cluster_guest_package"><path d="M174.9,179.4 L218.1,179.4 A2.25,2.25 0 0 1 219.6,180.9 L223.8,192.893 L254.7,192.893 A1.5,1.5 0 0 1 256.2,194.393 L256.2,314.7 A1.5,1.5 0 0 1 254.7,316.2 L174.9,316.2 A1.5,1.5 0 0 1 173.4,314.7 L173.4,180.9 A1.5,1.5 0 0 1 174.9,179.4 " fill="#F0E442" style="stroke:#000000;stroke-width:0.8999999999999999;"/><line style="stroke:#000000;stroke-width:0.8999999999999999;" x1="173.4" x2="223.8" y1="192.893" y2="192.893"/><text fill="#000000" font-family="sans-serif" font-size="8.4" font-weight="bold" lengthAdjust="spacing" textLength="42.6" x="175.8" y="188.7211">ms-guest</text><text fill="#000000" font-family="sans-serif" font-size="8.4" font-style="italic" lengthAdjust="spacing" textLength="32.4" x="201" y="202.2141">«proxy»</text></g><!--MD5=[6c2879b2d2bb996634356ed1d183dc5e]
cluster wallet_package--><g id="cluster_wallet_package"><path d="M76.5,177 L122.1,177 A2.25,2.25 0 0 1 123.6,178.5 L127.8,190.493 L157.5,190.493 A1.5,1.5 0 0 1 159,191.993 L159,314.7 A1.5,1.5 0 0 1 157.5,316.2 L76.5,316.2 A1.5,1.5 0 0 1 75,314.7 L75,178.5 A1.5,1.5 0 0 1 76.5,177 " fill="#F0E442" style="stroke:#000000;stroke-width:0.8999999999999999;"/><line style="stroke:#000000;stroke-width:0.8999999999999999;" x1="75" x2="127.8" y1="190.493" y2="190.493"/><text fill="#000000" font-family="sans-serif" font-size="8.4" font-weight="bold" lengthAdjust="spacing" textLength="45" x="77.4" y="186.3211">ms-wallet</text></g><!--MD5=[06959a3f3cbea176f36acf10396f6fcf]
entity public--><g id="elem_public"><ellipse cx="225" cy="118.8" fill="#9ACD32" rx="4.8" ry="4.8" style="stroke:#181818;stroke-width:0.3;"/><text fill="#000000" font-family="sans-serif" font-size="8.4" lengthAdjust="spacing" textLength="25.2" x="212.4" y="137.1211">public</text></g><!--MD5=[d0e2a5f97e7b84b4a52fc47ac0121b09]
entity android--><g id="elem_android"><rect fill="#F1F1F1" height="37.7859" rx="1.5" ry="1.5" style="stroke:#181818;stroke-width:0.3;" width="60.6" x="235.5" y="27.6"/><rect fill="#F1F1F1" height="6" style="stroke:#181818;stroke-width:0.3;" width="9" x="284.1" y="30.6"/><rect fill="#F1F1F1" height="1.2" style="stroke:#181818;stroke-width:0.3;" width="2.4" x="282.9" y="31.8"/><rect fill="#F1F1F1" height="1.2" style="stroke:#181818;stroke-width:0.3;" width="2.4" x="282.9" y="34.2"/><text fill="#000000" font-family="sans-serif" font-size="8.4" font-style="italic" lengthAdjust="spacing" textLength="36.6" x="244.5" y="47.7211">«mobile»</text><text fill="#000000" font-family="sans-serif" font-size="8.4" lengthAdjust="spacing" textLength="33.6" x="246" y="57.6141">Android</text></g><!--MD5=[be09490d94791046e3419ff8f61a31bb]
entity ios--><g id="elem_ios"><rect fill="#F1F1F1" height="37.7859" rx="1.5" ry="1.5" style="stroke:#181818;stroke-width:0.3;" width="60.6" x="153.9" y="27.6"/><rect fill="#F1F1F1" height="6" style="stroke:#181818;stroke-width:0.3;" width="9" x="202.5" y="30.6"/><rect fill="#F1F1F1" height="1.2" style="stroke:#181818;stroke-width:0.3;" width="2.4" x="201.3" y="31.8"/><rect fill="#F1F1F1" height="1.2" style="stroke:#181818;stroke-width:0.3;" width="2.4" x="201.3" y="34.2"/><text fill="#000000" font-family="sans-serif" font-size="8.4" font-style="italic" lengthAdjust="spacing" textLength="36.6" x="162.9" y="47.7211">«mobile»</text><text fill="#000000" font-family="sans-serif" font-size="8.4" lengthAdjust="spacing" textLength="13.8" x="174.3" y="57.6141">iOS</text></g><!--MD5=[08af8945a84acfe1eabc0963aa87c412]
entity web--><g id="elem_web"><rect fill="#F1F1F1" height="37.7859" rx="1.5" ry="1.5" style="stroke:#181818;stroke-width:0.3;" width="113.4" x="19.5" y="27.6"/><rect fill="#F1F1F1" height="6" style="stroke:#181818;stroke-width:0.3;" width="9" x="120.9" y="30.6"/><rect fill="#F1F1F1" height="1.2" style="stroke:#181818;stroke-width:0.3;" width="2.4" x="119.7" y="31.8"/><rect fill="#F1F1F1" height="1.2" style="stroke:#181818;stroke-width:0.3;" width="2.4" x="119.7" y="34.2"/><text fill="#000000" font-family="sans-serif" font-size="8.4" font-style="italic" lengthAdjust="spacing" textLength="52.8" x="46.8" y="47.7211">«public web»</text><text fill="#000000" font-family="sans-serif" font-size="8.4" lengthAdjust="spacing" textLength="89.4" x="28.5" y="57.6141">universalorlando.com</text></g><!--MD5=[95dd478b86db0b9ac73366f6568c523e]
entity teammember--><g id="elem_teammember"><rect fill="#F1F1F1" height="37.7859" rx="1.5" ry="1.5" style="stroke:#181818;stroke-width:0.3;" width="108" x="317.4" y="27.6"/><rect fill="#F1F1F1" height="6" style="stroke:#181818;stroke-width:0.3;" width="9" x="413.4" y="30.6"/><rect fill="#F1F1F1" height="1.2" style="stroke:#181818;stroke-width:0.3;" width="2.4" x="412.2" y="31.8"/><rect fill="#F1F1F1" height="1.2" style="stroke:#181818;stroke-width:0.3;" width="2.4" x="412.2" y="34.2"/><text fill="#000000" font-family="sans-serif" font-size="8.4" font-style="italic" lengthAdjust="spacing" textLength="59.4" x="338.7" y="47.7211">«internal web»</text><text fill="#000000" font-family="sans-serif" font-size="8.4" lengthAdjust="spacing" textLength="84" x="326.4" y="57.6141">Team Member Tools</text></g><!--MD5=[85d3f8ffd301b42283bb9f0f23821f75]
entity ldap_dir--><g id="elem_ldap_dir"><path d="M479.4,199.2 L504,199.2 A2.25,2.25 0 0 1 505.5,200.7 L509.7,211.8 L555,211.8 A1.5,1.5 0 0 1 556.5,213.3 L556.5,230.393 A1.5,1.5 0 0 1 555,231.893 L479.4,231.893 A1.5,1.5 0 0 1 477.9,230.393 L477.9,200.7 A1.5,1.5 0 0 1 479.4,199.2 " fill="#F1F1F1" style="stroke:#181818;stroke-width:0.3;"/><line style="stroke:#181818;stroke-width:0.3;" x1="477.9" x2="509.7" y1="211.8" y2="211.8"/><text fill="#000000" font-family="sans-serif" font-size="8.4" lengthAdjust="spacing" textLength="60.6" x="483.9" y="224.1211">LDAP Directory</text></g><!--MD5=[58fe32485a25c6dfb2b4de3b02168686]
entity authenticate--><g id="elem_authenticate"><ellipse cx="426.6" cy="215.4" fill="#F1F1F1" rx="4.8" ry="4.8" style="stroke:#181818;stroke-width:0.3;"/><text fill="#000000" font-family="sans-serif" font-size="8.4" lengthAdjust="spacing" textLength="51" x="401.1" y="233.7211">authenticate</text></g><!--MD5=[733ebafc4ddc0c6f83011f92b027dea0]
entity couch_db--><g id="elem_couch_db"><path d="M278.4,385.2 C278.4,379.2 304.2,379.2 304.2,379.2 C304.2,379.2 330,379.2 330,385.2 L330,410.3859 C330,416.3859 304.2,416.3859 304.2,416.3859 C304.2,416.3859 278.4,416.3859 278.4,410.3859 L278.4,385.2 " fill="#FFFFF0" style="stroke:#000000;stroke-width:0.3;"/><path d="M278.4,385.2 C278.4,391.2 304.2,391.2 304.2,391.2 C304.2,391.2 330,391.2 330,385.2 " fill="none" style="stroke:#000000;stroke-width:0.3;"/><text fill="#000000" font-family="sans-serif" font-size="8.4" font-style="italic" lengthAdjust="spacing" textLength="35.4" x="286.5" y="401.7211">«NoSQL»</text><text fill="#000000" font-family="sans-serif" font-size="8.4" lengthAdjust="spacing" textLength="39.6" x="284.4" y="411.6141">Couch DB</text></g><!--MD5=[51969f2f23c9be6be87857b423767cab]
entity nosql_data_access--><g id="elem_nosql_data_access"><ellipse cx="356.4" cy="397.8" fill="#F1F1F1" rx="4.8" ry="4.8" style="stroke:#181818;stroke-width:0.3;"/><text fill="#000000" font-family="sans-serif" font-size="8.4" lengthAdjust="spacing" textLength="48.6" x="332.1" y="416.1211">Data Access</text></g><!--MD5=[d1b457bbd51b46fbb259e557b99e92ae]
entity guests_internal--><g id="elem_guests_internal"><ellipse cx="300" cy="215.4" fill="#3D8CFF" rx="4.8" ry="4.8" style="stroke:#181818;stroke-width:0.3;"/><text fill="#000000" font-family="sans-serif" font-size="8.4" lengthAdjust="spacing" textLength="31.8" x="284.1" y="233.7211">internal</text></g><!--MD5=[da13416faa82b4a43890a3a8fce00ce4]
entity ms_guests--><g id="elem_ms_guests"><rect fill="#F1F1F1" height="37.7859" rx="1.5" ry="1.5" style="stroke:#181818;stroke-width:0.3;" width="67.8" x="280.5" y="268.8"/><rect fill="#F1F1F1" height="6" style="stroke:#181818;stroke-width:0.3;" width="9" x="336.3" y="271.8"/><rect fill="#F1F1F1" height="1.2" style="stroke:#181818;stroke-width:0.3;" width="2.4" x="335.1" y="273"/><rect fill="#F1F1F1" height="1.2" style="stroke:#181818;stroke-width:0.3;" width="2.4" x="335.1" y="275.4"/><text fill="#000000" font-family="sans-serif" font-size="8.4" font-style="italic" lengthAdjust="spacing" textLength="36.6" x="293.1" y="288.9211">«service»</text><text fill="#000000" font-family="sans-serif" font-size="8.4" lengthAdjust="spacing" textLength="43.8" x="289.5" y="298.8141">ms-guests</text></g><!--MD5=[f31fdf47782496e3b291617a4a20cca7]
entity guest_internal--><g id="elem_guest_internal"><ellipse cx="225" cy="215.4" fill="#3D8CFF" rx="4.8" ry="4.8" style="stroke:#181818;stroke-width:0.3;"/><text fill="#000000" font-family="sans-serif" font-size="8.4" lengthAdjust="spacing" textLength="31.8" x="209.1" y="233.7211">internal</text></g><!--MD5=[07febe21ee9876a65e3fd88a98b64d08]
entity ms_guest--><g id="elem_ms_guest"><rect fill="#F1F1F1" height="37.7859" rx="1.5" ry="1.5" style="stroke:#181818;stroke-width:0.3;" width="63.6" x="183" y="268.8"/><rect fill="#F1F1F1" height="6" style="stroke:#181818;stroke-width:0.3;" width="9" x="234.6" y="271.8"/><rect fill="#F1F1F1" height="1.2" style="stroke:#181818;stroke-width:0.3;" width="2.4" x="233.4" y="273"/><rect fill="#F1F1F1" height="1.2" style="stroke:#181818;stroke-width:0.3;" width="2.4" x="233.4" y="275.4"/><text fill="#000000" font-family="sans-serif" font-size="8.4" font-style="italic" lengthAdjust="spacing" textLength="36.6" x="193.5" y="288.9211">«service»</text><text fill="#000000" font-family="sans-serif" font-size="8.4" lengthAdjust="spacing" textLength="39.6" x="192" y="298.8141">ms-guest</text></g><!--MD5=[ba5a8998a04e4bdc0dbbcbd792069ae3]
entity wallet_internal--><g id="elem_wallet_internal"><ellipse cx="123" cy="215.4" fill="#3D8CFF" rx="4.8" ry="4.8" style="stroke:#181818;stroke-width:0.3;"/><text fill="#000000" font-family="sans-serif" font-size="8.4" lengthAdjust="spacing" textLength="31.8" x="107.1" y="233.7211">internal</text></g><!--MD5=[c01b3adff0033688fb146172ea200fae]
entity ms_wallet--><g id="elem_ms_wallet"><rect fill="#F1F1F1" height="37.7859" rx="1.5" ry="1.5" style="stroke:#181818;stroke-width:0.3;" width="64.8" x="84.6" y="268.8"/><rect fill="#F1F1F1" height="6" style="stroke:#181818;stroke-width:0.3;" width="9" x="137.4" y="271.8"/><rect fill="#F1F1F1" height="1.2" style="stroke:#181818;stroke-width:0.3;" width="2.4" x="136.2" y="273"/><rect fill="#F1F1F1" height="1.2" style="stroke:#181818;stroke-width:0.3;" width="2.4" x="136.2" y="275.4"/><text fill="#000000" font-family="sans-serif" font-size="8.4" font-style="italic" lengthAdjust="spacing" textLength="36.6" x="95.7" y="288.9211">«service»</text><text fill="#000000" font-family="sans-serif" font-size="8.4" lengthAdjust="spacing" textLength="40.8" x="93.6" y="298.8141">ms-wallet</text></g><!--MD5=[741f803b0826940167ea2a9cc6fd3e1f]
entity data_lake--><g id="elem_data_lake"><polygon fill="#87CEFA" points="382.8,390,388.8,384,446.4,384,446.4,405.893,440.4,411.893,382.8,411.893,382.8,390" style="stroke:#181818;stroke-width:0.3;"/><line style="stroke:#181818;stroke-width:0.3;" x1="440.4" x2="446.4" y1="390" y2="384"/><line style="stroke:#181818;stroke-width:0.3;" x1="382.8" x2="440.4" y1="390" y2="390"/><line style="stroke:#181818;stroke-width:0.3;" x1="440.4" x2="440.4" y1="390" y2="411.893"/><text fill="#000000" font-family="sans-serif" font-size="8.4" lengthAdjust="spacing" textLength="39.6" x="391.8" y="404.1211">Data Lake</text></g><!--MD5=[45f2ff5085d056267707c7d276a8e149]
link guests_internal to ms_guests--><g id="link_guests_internal_ms_guests"><path d="M300.99,220.884 C302.952,230.58 307.434,252.69 310.674,268.698 " fill="none" id="guests_internal-ms_guests" style="stroke:#181818;stroke-width:0.6;"/></g><!--MD5=[d27ec4ec336a7214b286012dbaabf1f3]
link guest_internal to ms_guest--><g id="link_guest_internal_ms_guest"><path d="M224.298,220.884 C222.906,230.58 219.738,252.69 217.44,268.698 " fill="none" id="guest_internal-ms_guest" style="stroke:#181818;stroke-width:0.6;"/></g><!--MD5=[1c8b8e41eec736a525d44e0fb642894e]
link wallet_internal to ms_wallet--><g id="link_wallet_internal_ms_wallet"><path d="M122.586,220.884 C121.77,230.58 119.904,252.69 118.554,268.698 " fill="none" id="wallet_internal-ms_wallet" style="stroke:#181818;stroke-width:0.6;"/></g><!--MD5=[0d5cab5ad81925c19919ec5629d1328b]
link guest_internal to guests_internal--><g id="link_guest_internal_guests_internal"><path d="M230.568,215.4 C249.9,215.4 269.238,215.4 288.576,215.4 " fill="none" id="guest_internal-to-guests_internal" style="stroke:#181818;stroke-width:0.6;"/><path d="M292.7291,210.3257 A5.4,5.4 0 0 0 292.7291 220.4743" fill="none" style="stroke:#181818;stroke-width:0.8999999999999999;"/></g><!--MD5=[0b7dc5e39426026a544a753026833882]
link public to guest_internal--><g id="link_public_guest_internal"><path d="M225,124.26 C225,138.93 225,183.012 225,203.766 " fill="none" id="public-to-guest_internal" style="stroke:#181818;stroke-width:0.6;"/><path d="M230.0743,207.9851 A5.4,5.4 0 0 0 219.9257 207.9851" fill="none" style="stroke:#181818;stroke-width:0.8999999999999999;"/></g><!--MD5=[d83300e87129440bfc8092f7490ad1bc]
link public to wallet_internal--><g id="link_public_wallet_internal"><path d="M219.51,120.918 C209.478,123.9 187.884,131.304 173.4,143.4 C152.316,161.01 135.846,189.426 128.01,204.552 " fill="none" id="public-to-wallet_internal" style="stroke:#181818;stroke-width:0.6;"/><path d="M130.6366,210.6225 A5.4,5.4 0 0 0 121.5739 206.0549" fill="none" style="stroke:#181818;stroke-width:0.8999999999999999;"/></g><!--MD5=[5b0924be97d99f4b42712c7be1e32466]
link ms_guests to couch_db--><g id="link_ms_guests_couch_db"><path d="M312.672,306.774 C310.872,325.956 308.064,355.92 306.18,376.038 " fill="none" id="ms_guests-to-couch_db" style="stroke:#181818;stroke-width:0.6;stroke-dasharray:7.0,7.0;"/><polygon fill="#181818" points="305.886,379.182,308.7704,374.0244,306.1607,376.1946,303.9905,373.5849,305.886,379.182" style="stroke:#181818;stroke-width:0.6;"/></g><!--MD5=[9f95cd16f260286e55319d7268c9ccae]
link ms_wallet to couch_db--><g id="link_ms_wallet_couch_db"><path d="M148.542,306.648 C184.086,327.33 241.362,360.648 275.634,380.58 " fill="none" id="ms_wallet-to-couch_db" style="stroke:#181818;stroke-width:0.6;stroke-dasharray:7.0,7.0;"/><polygon fill="#181818" points="278.268,382.11,274.8109,377.3175,275.676,380.5995,272.394,381.4646,278.268,382.11" style="stroke:#181818;stroke-width:0.6;"/></g><!--MD5=[31a5899a1d35084ec145db3d9932b64c]
link couch_db to nosql_data_access--><g id="link_couch_db_nosql_data_access"><path d="M330.096,397.8 C337.014,397.8 343.932,397.8 350.85,397.8 " fill="none" id="couch_db-nosql_data_access" style="stroke:#181818;stroke-width:0.6;"/></g><!--MD5=[c615f89baa09b41f7aa777cc85663aa4]
link data_lake to nosql_data_access--><g id="link_data_lake_nosql_data_access"><path d="M382.668,397.8 C377.736,397.8 372.804,397.8 367.872,397.8 " fill="none" id="data_lake-to-nosql_data_access" style="stroke:#181818;stroke-width:0.6;"/><path d="M363.7009,402.8743 A5.4,5.4 0 0 0 363.7009 392.7257" fill="none" style="stroke:#181818;stroke-width:0.8999999999999999;"/></g><!--MD5=[a00e3b328ec6eb930c807630108aa710]
link android to public--><g id="link_android_public"><path d="M255.294,65.412 C247.53,78.942 237.24,96.87 230.874,107.964 " fill="none" id="android-to-public" style="stroke:#181818;stroke-width:0.6;"/><path d="M233.1763,114.1444 A5.4,5.4 0 0 0 224.3746 109.0921" fill="none" style="stroke:#181818;stroke-width:0.8999999999999999;"/></g><!--MD5=[b6e357b018622cc2c3a198e565c63111]
link ios to public--><g id="link_ios_public"><path d="M194.706,65.412 C202.47,78.942 212.76,96.87 219.126,107.964 " fill="none" id="ios-to-public" style="stroke:#181818;stroke-width:0.6;"/><path d="M225.6254,109.0921 A5.4,5.4 0 0 0 216.8237 114.1444" fill="none" style="stroke:#181818;stroke-width:0.8999999999999999;"/></g><!--MD5=[ecb94a0cf9f4839855044905b2ff185b]
link web to public--><g id="link_web_public"><path d="M113.658,65.436 C123.336,70.14 133.746,75.18 143.4,79.8 C168.588,91.854 198.276,105.75 213.978,113.07 " fill="none" id="web-to-public" style="stroke:#181818;stroke-width:0.6;"/><path d="M219.9232,110.2408 A5.4,5.4 0 0 0 215.6298 119.4366" fill="none" style="stroke:#181818;stroke-width:0.8999999999999999;"/></g><!--MD5=[c9dad59e6393349c0842912da04d4439]
link teammember to public--><g id="link_teammember_public"><path d="M335.496,65.436 C326.118,70.17 316.002,75.216 306.6,79.8 C281.502,92.034 251.772,105.858 236.046,113.118 " fill="none" id="teammember-to-public" style="stroke:#181818;stroke-width:0.6;"/><path d="M234.371,119.4777 A5.4,5.4 0 0 0 230.119 110.2627" fill="none" style="stroke:#181818;stroke-width:0.8999999999999999;"/></g><!--MD5=[a6fa9435821ce293024e9024b662c6d5]
link public to authenticate--><g id="link_public_authenticate"><path d="M230.466,119.214 C249.396,118.812 313.482,119.4 358.2,143.4 C386.22,158.436 409.506,189.102 420.234,204.9 " fill="none" id="public-to-authenticate" style="stroke:#181818;stroke-width:0.6;"/><path d="M426.8208,205.6552 A5.4,5.4 0 0 0 418.3544 211.2512" fill="none" style="stroke:#181818;stroke-width:0.8999999999999999;"/></g><!--MD5=[1ac959bfdb45058218ff1b28ddc35697]
@startuml

skinparam database {
    backgroundColor Ivory
    borderColor black
}

skinparam package {
    backgroundColor #F0E442
}

node "Data Lake" as data_lake #LightSkyBlue

node "API Gateway" as gateway {
    interface public #YellowGreen
}

node "UI" #Strategy {
    component "Android" as android <<mobile>>
    component "iOS" as ios <<mobile>>
    component "universalorlando.com" as web <<public web>>
    component "Team Member Tools" as teammember <<internal web>>
}

node "LDAP" as ldap <<ldap>> #BurlyWood {
    folder "LDAP Directory" as ldap_dir
    interface authenticate
}

node "Microservices" #MediumTurquoise {

    package "ms-guests" as guests_package <<New>>{
        interface internal as guests_internal #3D8CFF
        component "ms-guests" as ms_guests <<service>>
        guests_internal - - ms_guests
    }
    package "ms-guest" as guest_package <<proxy>> {
        interface internal as guest_internal #3D8CFF
        component "ms-guest" as ms_guest <<service>>
        guest_internal - - ms_guest
    }
    package "ms-wallet" as wallet_package {
        interface internal as wallet_internal #3D8CFF
        component "ms-wallet" as ms_wallet <<service>>
        wallet_internal - - ms_wallet
    }
    guest_internal -right-( guests_internal
    database "Couch DB" as couch_db <<NoSQL>>
    interface "Data Access" as nosql_data_access
}

'Gateway'
public - -( guest_internal
public - -( wallet_internal

'Couch'
ms_guests - -.> couch_db
ms_wallet - -.> couch_db
couch_db -right- nosql_data_access
data_lake -right-( nosql_data_access

'UI'
android - -( public
ios - -( public
web - -( public
teammember -right-( public

'LDAP'
public - -( authenticate

@enduml

@startuml

skinparam database {
    backgroundColor Ivory
    borderColor black
}

skinparam package {
    backgroundColor #F0E442
}

node "Data Lake" as data_lake #LightSkyBlue

node "API Gateway" as gateway {
    interface public #YellowGreen
}

node "UI" #Strategy {
    component "Android" as android <<mobile>>
    component "iOS" as ios <<mobile>>
    component "universalorlando.com" as web <<public web>>
    component "Team Member Tools" as teammember <<internal web>>
}

node "LDAP" as ldap <<ldap>> #BurlyWood {
    folder "LDAP Directory" as ldap_dir
    interface authenticate
}

node "Microservices" #MediumTurquoise {

    package "ms-guests" as guests_package <<New>>{
        interface internal as guests_internal #3D8CFF
        component "ms-guests" as ms_guests <<service>>
        guests_internal - - ms_guests
    }
    package "ms-guest" as guest_package <<proxy>> {
        interface internal as guest_internal #3D8CFF
        component "ms-guest" as ms_guest <<service>>
        guest_internal - - ms_guest
    }
    package "ms-wallet" as wallet_package {
        interface internal as wallet_internal #3D8CFF
        component "ms-wallet" as ms_wallet <<service>>
        wallet_internal - - ms_wallet
    }
    guest_internal -right-( guests_internal
    database "Couch DB" as couch_db <<NoSQL>>
    interface "Data Access" as nosql_data_access
}

public - -( guest_internal
public - -( wallet_internal

ms_guests - -.> couch_db
ms_wallet - -.> couch_db
couch_db -right- nosql_data_access
data_lake -right-( nosql_data_access

android - -( public
ios - -( public
web - -( public
teammember -right-( public

public - -( authenticate

@enduml

PlantUML version 1.2022.7(Mon Aug 22 13:01:30 EDT 2022)
(GPL source distribution)
Java Runtime: OpenJDK Runtime Environment
JVM: OpenJDK 64-Bit Server VM
Default Encoding: UTF-8
Language: en
Country: US
--></g></svg>