<?xml version="1.0" encoding="UTF-8" standalone="no"?><svg xmlns="http://www.w3.org/2000/svg" xmlns:xlink="http://www.w3.org/1999/xlink" contentStyleType="text/css" height="594px" preserveAspectRatio="none" style="width:705px;height:594px;background:#FFFFFF;" version="1.1" viewBox="0 0 705 594" width="705px" zoomAndPan="magnify"><defs/><g><!--MD5=[9681dc6e01e10c6b4fe06895ae94f592]
cluster UI--><g id="cluster_UI"><polygon fill="#F8E7C0" points="47.4,43.5,53.4,37.5,472.8,37.5,472.8,102.9,466.8,108.9,47.4,108.9,47.4,43.5" style="stroke:#181818;stroke-width:0.6;"/><line style="stroke:#181818;stroke-width:0.6;" x1="466.8" x2="472.8" y1="43.5" y2="37.5"/><line style="stroke:#181818;stroke-width:0.6;" x1="47.4" x2="466.8" y1="43.5" y2="43.5"/><line style="stroke:#181818;stroke-width:0.6;" x1="466.8" x2="466.8" y1="43.5" y2="108.9"/><text fill="#000000" font-family="sans-serif" font-size="8.4" font-weight="bold" lengthAdjust="spacing" textLength="9" x="253.2" y="53.4211">UI</text></g><!--MD5=[1feb5a0622a9211287ff216bc4a47e33]
cluster ldap--><g id="cluster_ldap"><polygon fill="#DEB887" points="9.6,204.9,15.6,198.9,189,198.9,189,270.9,183,276.9,9.6,276.9,9.6,204.9" style="stroke:#181818;stroke-width:0.6;"/><line style="stroke:#181818;stroke-width:0.6;" x1="183" x2="189" y1="204.9" y2="198.9"/><line style="stroke:#181818;stroke-width:0.6;" x1="9.6" x2="183" y1="204.9" y2="204.9"/><line style="stroke:#181818;stroke-width:0.6;" x1="183" x2="183" y1="204.9" y2="276.9"/><text fill="#000000" font-family="sans-serif" font-size="8.4" font-style="italic" lengthAdjust="spacing" textLength="26.4" x="83.7" y="214.8211">«ldap»</text><text fill="#000000" font-family="sans-serif" font-size="8.4" font-weight="bold" lengthAdjust="spacing" textLength="22.8" x="85.5" y="224.7141">LDAP</text></g><!--MD5=[f72e8905bd6e3a370cb106f12698fafd]
cluster Microservices--><g id="cluster_Microservices"><polygon fill="#48D1CC" points="203.4,188.7,209.4,182.7,426,182.7,426,577.8,420,583.8,203.4,583.8,203.4,188.7" style="stroke:#181818;stroke-width:0.6;"/><line style="stroke:#181818;stroke-width:0.6;" x1="420" x2="426" y1="188.7" y2="182.7"/><line style="stroke:#181818;stroke-width:0.6;" x1="203.4" x2="420" y1="188.7" y2="188.7"/><line style="stroke:#181818;stroke-width:0.6;" x1="420" x2="420" y1="188.7" y2="583.8"/><text fill="#000000" font-family="sans-serif" font-size="8.4" font-weight="bold" lengthAdjust="spacing" textLength="58.8" x="282.9" y="198.6211">Microservices</text></g><!--MD5=[155688ac9c6405cb28b411556fc5fed5]
cluster guests_package--><g id="cluster_guests_package"><path d="M317.7,211.5 L365.7,211.5 A2.25,2.25 0 0 1 367.2,213 L371.4,224.993 L402.3,224.993 A1.5,1.5 0 0 1 403.8,226.493 L403.8,357.9 A1.5,1.5 0 0 1 402.3,359.4 L317.7,359.4 A1.5,1.5 0 0 1 316.2,357.9 L316.2,213 A1.5,1.5 0 0 1 317.7,211.5 " fill="#F0E442" style="stroke:#000000;stroke-width:0.8999999999999999;"/><line style="stroke:#000000;stroke-width:0.8999999999999999;" x1="316.2" x2="371.4" y1="224.993" y2="224.993"/><text fill="#000000" font-family="sans-serif" font-size="8.4" font-weight="bold" lengthAdjust="spacing" textLength="47.4" x="318.6" y="220.8211">ms-guests</text></g><!--MD5=[868014e6f08dc9b5c449d37e97dd66ff]
cluster match_link_package--><g id="cluster_match_link_package"><path d="M307.5,373.8 L375.3,373.8 A2.25,2.25 0 0 1 376.8,375.3 L381,387.293 L410.1,387.293 A1.5,1.5 0 0 1 411.6,388.793 L411.6,511.5 A1.5,1.5 0 0 1 410.1,513 L307.5,513 A1.5,1.5 0 0 1 306,511.5 L306,375.3 A1.5,1.5 0 0 1 307.5,373.8 " fill="#F0E442" style="stroke:#000000;stroke-width:0.8999999999999999;"/><line style="stroke:#000000;stroke-width:0.8999999999999999;" x1="306" x2="381" y1="387.293" y2="387.293"/><text fill="#000000" font-family="sans-serif" font-size="8.4" font-weight="bold" lengthAdjust="spacing" textLength="67.2" x="308.4" y="383.1211">ms-match-link</text></g><!--MD5=[6c2879b2d2bb996634356ed1d183dc5e]
cluster wallet_package--><g id="cluster_wallet_package"><path d="M219.3,211.5 L264.9,211.5 A2.25,2.25 0 0 1 266.4,213 L270.6,224.993 L300.3,224.993 A1.5,1.5 0 0 1 301.8,226.493 L301.8,357.9 A1.5,1.5 0 0 1 300.3,359.4 L219.3,359.4 A1.5,1.5 0 0 1 217.8,357.9 L217.8,213 A1.5,1.5 0 0 1 219.3,211.5 " fill="#F0E442" style="stroke:#000000;stroke-width:0.8999999999999999;"/><line style="stroke:#000000;stroke-width:0.8999999999999999;" x1="217.8" x2="270.6" y1="224.993" y2="224.993"/><text fill="#000000" font-family="sans-serif" font-size="8.4" font-weight="bold" lengthAdjust="spacing" textLength="45" x="220.2" y="220.8211">ms-wallet</text></g><!--MD5=[6335950ccef517345999595fcd67b7eb]
cluster IBM--><g id="cluster_IBM"><polygon fill="#808080" points="487.2,9.6,493.2,3.6,694.8,3.6,694.8,296.4,688.8,302.4,487.2,302.4,487.2,9.6" style="stroke:#181818;stroke-width:0.6;"/><line style="stroke:#181818;stroke-width:0.6;" x1="688.8" x2="694.8" y1="9.6" y2="3.6"/><line style="stroke:#181818;stroke-width:0.6;" x1="487.2" x2="688.8" y1="9.6" y2="9.6"/><line style="stroke:#181818;stroke-width:0.6;" x1="688.8" x2="688.8" y1="9.6" y2="302.4"/><text fill="#000000" font-family="sans-serif" font-size="8.4" font-weight="bold" lengthAdjust="spacing" textLength="16.2" x="580.5" y="19.5211">IBM</text></g><!--MD5=[c5d0bdb92111ab1f7056b8d8fe221503]
cluster mdm_package--><g id="cluster_mdm_package"><path d="M507.9,37.2 L544.5,37.2 A2.25,2.25 0 0 1 546,38.7 L550.2,50.693 L623.7,50.693 A1.5,1.5 0 0 1 625.2,52.193 L625.2,281.7 A1.5,1.5 0 0 1 623.7,283.2 L507.9,283.2 A1.5,1.5 0 0 1 506.4,281.7 L506.4,38.7 A1.5,1.5 0 0 1 507.9,37.2 " fill="#808080" style="stroke:#000000;stroke-width:0.8999999999999999;"/><line style="stroke:#000000;stroke-width:0.8999999999999999;" x1="506.4" x2="550.2" y1="50.693" y2="50.693"/><text fill="#000000" font-family="sans-serif" font-size="8.4" font-weight="bold" lengthAdjust="spacing" textLength="36" x="508.8" y="46.5211">MDM AE</text></g><!--MD5=[d0e2a5f97e7b84b4a52fc47ac0121b09]
entity android--><g id="elem_android"><rect fill="#F1F1F1" height="37.7859" rx="1.5" ry="1.5" style="stroke:#181818;stroke-width:0.3;" width="60.6" x="273.3" y="61.5"/><rect fill="#F1F1F1" height="6" style="stroke:#181818;stroke-width:0.3;" width="9" x="321.9" y="64.5"/><rect fill="#F1F1F1" height="1.2" style="stroke:#181818;stroke-width:0.3;" width="2.4" x="320.7" y="65.7"/><rect fill="#F1F1F1" height="1.2" style="stroke:#181818;stroke-width:0.3;" width="2.4" x="320.7" y="68.1"/><text fill="#000000" font-family="sans-serif" font-size="8.4" font-style="italic" lengthAdjust="spacing" textLength="36.6" x="282.3" y="81.6211">«mobile»</text><text fill="#000000" font-family="sans-serif" font-size="8.4" lengthAdjust="spacing" textLength="33.6" x="283.8" y="91.5141">Android</text></g><!--MD5=[be09490d94791046e3419ff8f61a31bb]
entity ios--><g id="elem_ios"><rect fill="#F1F1F1" height="37.7859" rx="1.5" ry="1.5" style="stroke:#181818;stroke-width:0.3;" width="60.6" x="191.7" y="61.5"/><rect fill="#F1F1F1" height="6" style="stroke:#181818;stroke-width:0.3;" width="9" x="240.3" y="64.5"/><rect fill="#F1F1F1" height="1.2" style="stroke:#181818;stroke-width:0.3;" width="2.4" x="239.1" y="65.7"/><rect fill="#F1F1F1" height="1.2" style="stroke:#181818;stroke-width:0.3;" width="2.4" x="239.1" y="68.1"/><text fill="#000000" font-family="sans-serif" font-size="8.4" font-style="italic" lengthAdjust="spacing" textLength="36.6" x="200.7" y="81.6211">«mobile»</text><text fill="#000000" font-family="sans-serif" font-size="8.4" lengthAdjust="spacing" textLength="13.8" x="212.1" y="91.5141">iOS</text></g><!--MD5=[08af8945a84acfe1eabc0963aa87c412]
entity web--><g id="elem_web"><rect fill="#F1F1F1" height="37.7859" rx="1.5" ry="1.5" style="stroke:#181818;stroke-width:0.3;" width="113.4" x="57.3" y="61.5"/><rect fill="#F1F1F1" height="6" style="stroke:#181818;stroke-width:0.3;" width="9" x="158.7" y="64.5"/><rect fill="#F1F1F1" height="1.2" style="stroke:#181818;stroke-width:0.3;" width="2.4" x="157.5" y="65.7"/><rect fill="#F1F1F1" height="1.2" style="stroke:#181818;stroke-width:0.3;" width="2.4" x="157.5" y="68.1"/><text fill="#000000" font-family="sans-serif" font-size="8.4" font-style="italic" lengthAdjust="spacing" textLength="52.8" x="84.6" y="81.6211">«public web»</text><text fill="#000000" font-family="sans-serif" font-size="8.4" lengthAdjust="spacing" textLength="89.4" x="66.3" y="91.5141">universalorlando.com</text></g><!--MD5=[95dd478b86db0b9ac73366f6568c523e]
entity teammember--><g id="elem_teammember"><rect fill="#F1F1F1" height="37.7859" rx="1.5" ry="1.5" style="stroke:#181818;stroke-width:0.3;" width="108" x="355.2" y="61.5"/><rect fill="#F1F1F1" height="6" style="stroke:#181818;stroke-width:0.3;" width="9" x="451.2" y="64.5"/><rect fill="#F1F1F1" height="1.2" style="stroke:#181818;stroke-width:0.3;" width="2.4" x="450" y="65.7"/><rect fill="#F1F1F1" height="1.2" style="stroke:#181818;stroke-width:0.3;" width="2.4" x="450" y="68.1"/><text fill="#000000" font-family="sans-serif" font-size="8.4" font-style="italic" lengthAdjust="spacing" textLength="59.4" x="376.5" y="81.6211">«internal web»</text><text fill="#000000" font-family="sans-serif" font-size="8.4" lengthAdjust="spacing" textLength="84" x="364.2" y="91.5141">Team Member Tools</text></g><!--MD5=[85d3f8ffd301b42283bb9f0f23821f75]
entity ldap_dir--><g id="elem_ldap_dir"><path d="M102,233.7 L126.6,233.7 A2.25,2.25 0 0 1 128.1,235.2 L132.3,246.3 L177.6,246.3 A1.5,1.5 0 0 1 179.1,247.8 L179.1,264.893 A1.5,1.5 0 0 1 177.6,266.393 L102,266.393 A1.5,1.5 0 0 1 100.5,264.893 L100.5,235.2 A1.5,1.5 0 0 1 102,233.7 " fill="#F1F1F1" style="stroke:#181818;stroke-width:0.3;"/><line style="stroke:#181818;stroke-width:0.3;" x1="100.5" x2="132.3" y1="246.3" y2="246.3"/><text fill="#000000" font-family="sans-serif" font-size="8.4" lengthAdjust="spacing" textLength="60.6" x="106.5" y="258.6211">LDAP Directory</text></g><!--MD5=[58fe32485a25c6dfb2b4de3b02168686]
entity authenticate--><g id="elem_authenticate"><ellipse cx="49.2" cy="249.9" fill="#F1F1F1" rx="4.8" ry="4.8" style="stroke:#181818;stroke-width:0.3;"/><text fill="#000000" font-family="sans-serif" font-size="8.4" lengthAdjust="spacing" textLength="51" x="23.7" y="268.2211">authenticate</text></g><!--MD5=[733ebafc4ddc0c6f83011f92b027dea0]
entity couch_db--><g id="elem_couch_db"><path d="M243,471.9 C243,465.9 268.8,465.9 268.8,465.9 C268.8,465.9 294.6,465.9 294.6,471.9 L294.6,497.0859 C294.6,503.0859 268.8,503.0859 268.8,503.0859 C268.8,503.0859 243,503.0859 243,497.0859 L243,471.9 " fill="#FFFFF0" style="stroke:#000000;stroke-width:0.3;"/><path d="M243,471.9 C243,477.9 268.8,477.9 268.8,477.9 C268.8,477.9 294.6,477.9 294.6,471.9 " fill="none" style="stroke:#000000;stroke-width:0.3;"/><text fill="#000000" font-family="sans-serif" font-size="8.4" font-style="italic" lengthAdjust="spacing" textLength="35.4" x="251.1" y="488.4211">«NoSQL»</text><text fill="#000000" font-family="sans-serif" font-size="8.4" lengthAdjust="spacing" textLength="39.6" x="249" y="498.3141">Couch DB</text></g><!--MD5=[51969f2f23c9be6be87857b423767cab]
entity nosql_data_access--><g id="elem_nosql_data_access"><ellipse cx="328.2" cy="556.8" fill="#F1F1F1" rx="4.8" ry="4.8" style="stroke:#181818;stroke-width:0.3;"/><text fill="#000000" font-family="sans-serif" font-size="8.4" lengthAdjust="spacing" textLength="48.6" x="303.9" y="575.1211">Data Access</text></g><!--MD5=[d1b457bbd51b46fbb259e557b99e92ae]
entity guests_internal--><g id="elem_guests_internal"><ellipse cx="360" cy="249.9" fill="#3D8CFF" rx="4.8" ry="4.8" style="stroke:#181818;stroke-width:0.3;"/><text fill="#000000" font-family="sans-serif" font-size="8.4" lengthAdjust="spacing" textLength="31.8" x="344.1" y="268.2211">internal</text></g><!--MD5=[da13416faa82b4a43890a3a8fce00ce4]
entity ms_guests--><g id="elem_ms_guests"><rect fill="#F1F1F1" height="37.7859" rx="1.5" ry="1.5" style="stroke:#181818;stroke-width:0.3;" width="67.8" x="326.1" y="312"/><rect fill="#F1F1F1" height="6" style="stroke:#181818;stroke-width:0.3;" width="9" x="381.9" y="315"/><rect fill="#F1F1F1" height="1.2" style="stroke:#181818;stroke-width:0.3;" width="2.4" x="380.7" y="316.2"/><rect fill="#F1F1F1" height="1.2" style="stroke:#181818;stroke-width:0.3;" width="2.4" x="380.7" y="318.6"/><text fill="#000000" font-family="sans-serif" font-size="8.4" font-style="italic" lengthAdjust="spacing" textLength="36.6" x="338.7" y="332.1211">«service»</text><text fill="#000000" font-family="sans-serif" font-size="8.4" lengthAdjust="spacing" textLength="43.8" x="335.1" y="342.0141">ms-guests</text></g><!--MD5=[5cab36fa4005937a2b6b834c5c84777d]
entity match_link_internal--><g id="elem_match_link_internal"><ellipse cx="359.4" cy="412.2" fill="#3D8CFF" rx="4.8" ry="4.8" style="stroke:#181818;stroke-width:0.3;"/><text fill="#000000" font-family="sans-serif" font-size="8.4" lengthAdjust="spacing" textLength="31.8" x="343.5" y="430.5211">internal</text></g><!--MD5=[62d3f8b598f37084172e0f95d652992a]
entity ms_match_link--><g id="elem_ms_match_link"><rect fill="#F1F1F1" height="37.7859" rx="1.5" ry="1.5" style="stroke:#181818;stroke-width:0.3;" width="85.8" x="315.9" y="465.6"/><rect fill="#F1F1F1" height="6" style="stroke:#181818;stroke-width:0.3;" width="9" x="389.7" y="468.6"/><rect fill="#F1F1F1" height="1.2" style="stroke:#181818;stroke-width:0.3;" width="2.4" x="388.5" y="469.8"/><rect fill="#F1F1F1" height="1.2" style="stroke:#181818;stroke-width:0.3;" width="2.4" x="388.5" y="472.2"/><text fill="#000000" font-family="sans-serif" font-size="8.4" font-style="italic" lengthAdjust="spacing" textLength="36.6" x="337.5" y="485.7211">«service»</text><text fill="#000000" font-family="sans-serif" font-size="8.4" lengthAdjust="spacing" textLength="61.8" x="324.9" y="495.6141">ms-match-link</text></g><!--MD5=[ba5a8998a04e4bdc0dbbcbd792069ae3]
entity wallet_internal--><g id="elem_wallet_internal"><ellipse cx="259.8" cy="249.9" fill="#3D8CFF" rx="4.8" ry="4.8" style="stroke:#181818;stroke-width:0.3;"/><text fill="#000000" font-family="sans-serif" font-size="8.4" lengthAdjust="spacing" textLength="31.8" x="243.9" y="268.2211">internal</text></g><!--MD5=[c01b3adff0033688fb146172ea200fae]
entity ms_wallet--><g id="elem_ms_wallet"><rect fill="#F1F1F1" height="37.7859" rx="1.5" ry="1.5" style="stroke:#181818;stroke-width:0.3;" width="64.8" x="227.4" y="312"/><rect fill="#F1F1F1" height="6" style="stroke:#181818;stroke-width:0.3;" width="9" x="280.2" y="315"/><rect fill="#F1F1F1" height="1.2" style="stroke:#181818;stroke-width:0.3;" width="2.4" x="279" y="316.2"/><rect fill="#F1F1F1" height="1.2" style="stroke:#181818;stroke-width:0.3;" width="2.4" x="279" y="318.6"/><text fill="#000000" font-family="sans-serif" font-size="8.4" font-style="italic" lengthAdjust="spacing" textLength="36.6" x="238.5" y="332.1211">«service»</text><text fill="#000000" font-family="sans-serif" font-size="8.4" lengthAdjust="spacing" textLength="40.8" x="236.4" y="342.0141">ms-wallet</text></g><!--MD5=[2331507006b4b8bee4c616015350b23c]
entity db2--><g id="elem_db2"><path d="M639.6,237.3 C639.6,231.3 662.4,231.3 662.4,231.3 C662.4,231.3 685.2,231.3 685.2,237.3 L685.2,262.4859 C685.2,268.4859 662.4,268.4859 662.4,268.4859 C662.4,268.4859 639.6,268.4859 639.6,262.4859 L639.6,237.3 " fill="#808080" style="stroke:#000000;stroke-width:0.3;"/><path d="M639.6,237.3 C639.6,243.3 662.4,243.3 662.4,243.3 C662.4,243.3 685.2,243.3 685.2,237.3 " fill="none" style="stroke:#000000;stroke-width:0.3;"/><text fill="#000000" font-family="sans-serif" font-size="8.4" font-style="italic" lengthAdjust="spacing" textLength="24.6" x="650.1" y="253.8211">«DB2»</text><text fill="#000000" font-family="sans-serif" font-size="8.4" lengthAdjust="spacing" textLength="33.6" x="645.6" y="263.7141">MDM AE</text></g><!--MD5=[a6fcae1b0bb86115d3670e6d135079c5]
entity mdm_internal--><g id="elem_mdm_internal"><ellipse cx="563.4" cy="80.4" fill="#808080" rx="4.8" ry="4.8" style="stroke:#181818;stroke-width:0.3;"/><text fill="#000000" font-family="sans-serif" font-size="8.4" lengthAdjust="spacing" textLength="31.8" x="547.5" y="98.7211">internal</text></g><!--MD5=[405b1b76be19e5378968a026940b4d18]
entity mdm--><g id="elem_mdm"><rect fill="#808080" height="37.7859" rx="1.5" ry="1.5" style="stroke:#181818;stroke-width:0.3;" width="79.2" x="523.8" y="135.3"/><rect fill="#808080" height="6" style="stroke:#181818;stroke-width:0.3;" width="9" x="591" y="138.3"/><rect fill="#808080" height="1.2" style="stroke:#181818;stroke-width:0.3;" width="2.4" x="589.8" y="139.5"/><rect fill="#808080" height="1.2" style="stroke:#181818;stroke-width:0.3;" width="2.4" x="589.8" y="141.9"/><text fill="#000000" font-family="sans-serif" font-size="8.4" font-style="italic" lengthAdjust="spacing" textLength="55.2" x="532.8" y="155.4211">«component»</text><text fill="#000000" font-family="sans-serif" font-size="8.4" lengthAdjust="spacing" textLength="42.6" x="539.1" y="165.3141">MDM Core</text></g><!--MD5=[9da4f503ff78b8d9a7d83b6ce15996cd]
entity match_merge--><g id="elem_match_merge"><rect fill="#808080" height="37.7859" rx="1.5" ry="1.5" style="stroke:#181818;stroke-width:0.3;" width="85.2" x="520.8" y="231"/><rect fill="#808080" height="6" style="stroke:#181818;stroke-width:0.3;" width="9" x="594" y="234"/><rect fill="#808080" height="1.2" style="stroke:#181818;stroke-width:0.3;" width="2.4" x="592.8" y="235.2"/><rect fill="#808080" height="1.2" style="stroke:#181818;stroke-width:0.3;" width="2.4" x="592.8" y="237.6"/><text fill="#000000" font-family="sans-serif" font-size="8.4" font-style="italic" lengthAdjust="spacing" textLength="55.2" x="532.8" y="251.1211">«component»</text><text fill="#000000" font-family="sans-serif" font-size="8.4" lengthAdjust="spacing" textLength="61.2" x="529.8" y="261.0141">Match &amp; Merge</text></g><!--MD5=[7b30460008fc71f9986330c33ee2d290]
entity gateway--><g id="elem_gateway"><ellipse cx="259.8" cy="154.2" fill="#9ACD32" rx="4.8" ry="4.8" style="stroke:#181818;stroke-width:0.3;"/><text fill="#000000" font-family="sans-serif" font-size="8.4" lengthAdjust="spacing" textLength="33.6" x="243" y="172.5211">gateway</text></g><!--MD5=[741f803b0826940167ea2a9cc6fd3e1f]
entity data_lake--><g id="elem_data_lake"><polygon fill="#87CEFA" points="435.6,476.7,441.6,470.7,499.2,470.7,499.2,492.593,493.2,498.593,435.6,498.593,435.6,476.7" style="stroke:#181818;stroke-width:0.3;"/><line style="stroke:#181818;stroke-width:0.3;" x1="493.2" x2="499.2" y1="476.7" y2="470.7"/><line style="stroke:#181818;stroke-width:0.3;" x1="435.6" x2="493.2" y1="476.7" y2="476.7"/><line style="stroke:#181818;stroke-width:0.3;" x1="493.2" x2="493.2" y1="476.7" y2="498.593"/><text fill="#000000" font-family="sans-serif" font-size="8.4" lengthAdjust="spacing" textLength="39.6" x="444.6" y="490.8211">Data Lake</text></g><!--MD5=[45f2ff5085d056267707c7d276a8e149]
link guests_internal to ms_guests--><g id="link_guests_internal_ms_guests"><path d="M360,255.492 C360,266.55 360,293.568 360,311.922 " fill="none" id="guests_internal-ms_guests" style="stroke:#181818;stroke-width:0.6;"/></g><!--MD5=[72b93564d7b3717664eeb4292de3234d]
link match_link_internal to ms_match_link--><g id="link_match_link_internal_ms_match_link"><path d="M359.358,417.684 C359.274,427.38 359.088,449.49 358.956,465.498 " fill="none" id="match_link_internal-ms_match_link" style="stroke:#181818;stroke-width:0.6;"/></g><!--MD5=[1c8b8e41eec736a525d44e0fb642894e]
link wallet_internal to ms_wallet--><g id="link_wallet_internal_ms_wallet"><path d="M259.8,255.492 C259.8,266.55 259.8,293.568 259.8,311.922 " fill="none" id="wallet_internal-ms_wallet" style="stroke:#181818;stroke-width:0.6;"/></g><!--MD5=[ff2c8ffe4ac8a7023e5f9019dae9d8ea]
link mdm_internal to mdm--><g id="link_mdm_internal_mdm"><path d="M563.4,85.992 C563.4,95.988 563.4,118.902 563.4,135.288 " fill="none" id="mdm_internal-mdm" style="stroke:#181818;stroke-width:0.6;"/></g><!--MD5=[3ad645b36e0682e35fcd146811f96dd6]
link mdm to match_merge--><g id="link_mdm_match_merge"><path d="M563.4,173.244 C563.4,188.922 563.4,211.434 563.4,227.898 " fill="none" id="mdm-to-match_merge" style="stroke:#181818;stroke-width:0.6;"/><polygon fill="#181818" points="563.4,230.904,565.8,225.504,563.4,227.904,561,225.504,563.4,230.904" style="stroke:#181818;stroke-width:0.6;"/></g><!--MD5=[7cfff68bcc2716ad4181fc1863047860]
link mdm_package to db2--><g id="link_mdm_package_db2"><path d="M625.279,100.5533 C625.4481,101.231 625.6207,101.9227 625.7967,102.6278 C626.1486,104.0381 626.514,105.5021 626.8915,107.0152 C627.6467,110.0413 628.4508,113.2636 629.2945,116.6446 C630.9818,123.4065 632.8275,130.8028 634.7565,138.5332 C642.4725,169.455 651.522,205.722 657.108,228.108 " fill="none" id="mdm_package-to-db2" style="stroke:#181818;stroke-width:0.6;stroke-dasharray:7.0,7.0;"/><polygon fill="#181818" points="657.888,231.234,658.9026,225.4124,657.1584,228.3241,654.2467,226.5798,657.888,231.234" style="stroke:#181818;stroke-width:0.6;"/></g><!--MD5=[3728e85fd39c56197067781e363ec437]
link gateway to guests_internal--><g id="link_gateway_guests_internal"><path d="M265.386,157.044 C273.846,160.62 290.166,168.204 301.8,177.9 C324.03,196.434 343.914,224.442 353.664,239.274 " fill="none" id="gateway-to-guests_internal" style="stroke:#181818;stroke-width:0.6;"/><path d="M360.2525,240.1265 A5.4,5.4 0 0 0 351.7223 245.6247" fill="none" style="stroke:#181818;stroke-width:0.8999999999999999;"/></g><!--MD5=[5e464d3c789b7cb478c44ebcb3d22016]
link gateway to wallet_internal--><g id="link_gateway_wallet_internal"><path d="M259.8,159.618 C259.8,174.144 259.8,217.812 259.8,238.368 " fill="none" id="gateway-to-wallet_internal" style="stroke:#181818;stroke-width:0.6;"/><path d="M264.8743,242.5331 A5.4,5.4 0 0 0 254.7257 242.5331" fill="none" style="stroke:#181818;stroke-width:0.8999999999999999;"/></g><!--MD5=[5b0924be97d99f4b42712c7be1e32466]
link ms_guests to couch_db--><g id="link_ms_guests_couch_db"><path d="M326.238,349.908 C318.756,355.254 311.442,361.668 306,369 C284.97,397.338 275.514,438.078 271.5,462.66 " fill="none" id="ms_guests-to-couch_db" style="stroke:#181818;stroke-width:0.6;stroke-dasharray:7.0,7.0;"/><polygon fill="#181818" points="271.014,465.726,274.2342,460.7712,271.4863,462.7634,269.4941,460.0155,271.014,465.726" style="stroke:#181818;stroke-width:0.6;"/></g><!--MD5=[9f95cd16f260286e55319d7268c9ccae]
link ms_wallet to couch_db--><g id="link_ms_wallet_couch_db"><path d="M260.886,349.884 C262.56,378.276 265.776,432.66 267.546,462.684 " fill="none" id="ms_wallet-to-couch_db" style="stroke:#181818;stroke-width:0.6;stroke-dasharray:7.0,7.0;"/><polygon fill="#181818" points="267.726,465.69,269.7973,460.1556,267.5458,462.6954,265.006,460.4439,267.726,465.69" style="stroke:#181818;stroke-width:0.6;"/></g><!--MD5=[31a5899a1d35084ec145db3d9932b64c]
link couch_db to nosql_data_access--><g id="link_couch_db_nosql_data_access"><path d="M283.944,503.226 C297.282,519.186 315.816,541.38 324.018,551.19 " fill="none" id="couch_db-nosql_data_access" style="stroke:#181818;stroke-width:0.6;"/></g><!--MD5=[c615f89baa09b41f7aa777cc85663aa4]
link data_lake to nosql_data_access--><g id="link_data_lake_nosql_data_access"><path d="M445.95,498.336 C435.69,504.498 423.15,511.776 411.6,517.8 C386.274,531.012 355.536,544.542 339.372,551.472 " fill="none" id="data_lake-to-nosql_data_access" style="stroke:#181818;stroke-width:0.6;"/><path d="M337.4421,557.8122 A5.4,5.4 0 0 0 333.4689 548.4736" fill="none" style="stroke:#181818;stroke-width:0.8999999999999999;"/></g><!--MD5=[a4f05636c79c6ff7f51e72a997694e36]
link ms_guests to match_link_internal--><g id="link_ms_guests_match_link_internal"><path d="M359.862,349.878 C359.748,365.538 359.58,387.522 359.484,400.59 " fill="none" id="ms_guests-to-match_link_internal" style="stroke:#181818;stroke-width:0.6;"/><path d="M364.5234,404.8754 A5.4,5.4 0 0 0 354.375 404.8029" fill="none" style="stroke:#181818;stroke-width:0.8999999999999999;"/></g><!--MD5=[63987f2523f840777e1b0e6c36cb14c5]
link ms_match_link to guests_internal--><g id="link_ms_match_link_guests_internal"><path d="M371.55,465.558 C378.102,455.37 385.716,442.236 390.6,429.6 C409.572,380.514 420.588,362.076 404.4,312 C397.59,290.934 380.574,271.014 369.696,259.818 " fill="none" id="ms_match_link-to-guests_internal" style="stroke:#181818;stroke-width:0.6;"/><path d="M363.0399,260.3381 A5.4,5.4 0 0 0 370.2161 253.1619" fill="none" style="stroke:#181818;stroke-width:0.8999999999999999;"/></g><!--MD5=[72ec6d1f8a90e168d8cc7d8c78310f59]
link android to gateway--><g id="link_android_gateway"><path d="M292.548,99.318 C284.088,113.34 272.742,132.156 265.866,143.55 " fill="none" id="android-to-gateway" style="stroke:#181818;stroke-width:0.6;"/><path d="M268.0141,149.8079 A5.4,5.4 0 0 0 259.3284 144.5587" fill="none" style="stroke:#181818;stroke-width:0.8999999999999999;"/></g><!--MD5=[70011d888e820d831589a35534f2f817]
link ios to gateway--><g id="link_ios_gateway"><path d="M231.54,99.318 C238.806,113.28 248.544,131.982 254.484,143.388 " fill="none" id="ios-to-gateway" style="stroke:#181818;stroke-width:0.6;"/><path d="M260.9356,144.784 A5.4,5.4 0 0 0 251.932 149.467" fill="none" style="stroke:#181818;stroke-width:0.8999999999999999;"/></g><!--MD5=[b6dceaa84534c7aadd69d4ab3c7bab94]
link web to gateway--><g id="link_web_gateway"><path d="M150.792,99.318 C183.054,115.386 227.94,137.736 248.592,148.02 " fill="none" id="web-to-gateway" style="stroke:#181818;stroke-width:0.6;"/><path d="M254.7851,145.4382 A5.4,5.4 0 0 0 250.2639 154.5242" fill="none" style="stroke:#181818;stroke-width:0.8999999999999999;"/></g><!--MD5=[b69de3ebd0ddc99a165fcd5cb896ca40]
link teammember to gateway--><g id="link_teammember_gateway"><path d="M373.296,99.33 C363.918,104.064 353.802,109.11 344.4,113.7 C318.246,126.462 287.25,140.91 271.008,148.428 " fill="none" id="teammember-to-gateway" style="stroke:#181818;stroke-width:0.6;"/><path d="M269.171,154.8717 A5.4,5.4 0 0 0 264.919 145.6567" fill="none" style="stroke:#181818;stroke-width:0.8999999999999999;"/></g><!--MD5=[7c614c6059d17c678bbabd0113cb2b05]
link gateway to authenticate--><g id="link_gateway_authenticate"><path d="M254.328,154.908 C228.378,155.508 117.81,159.144 90,177.9 C68.46,192.432 56.922,222.39 52.056,238.494 " fill="none" id="gateway-to-authenticate" style="stroke:#181818;stroke-width:0.6;"/><path d="M55.7556,244.0706 A5.4,5.4 0 0 0 45.9915 241.3036" fill="none" style="stroke:#181818;stroke-width:0.8999999999999999;"/></g><!--MD5=[6419296d1349ad54a602abf1e5dea8bc]
@startuml

skinparam database {
    backgroundColor Ivory
    borderColor black
}

skinparam package {
    backgroundColor #F0E442
}

interface gateway #YellowGreen

node "UI" #Strategy {
    component "Android" as android <<mobile>>
    component "iOS" as ios <<mobile>>
    component "universalorlando.com" as web <<public web>>
    component "Team Member Tools" as teammember <<internal web>>
}

node "LDAP" as ldap <<ldap>> #BurlyWood {
    folder "LDAP Directory" as ldap_dir
    interface authenticate
}

node "Microservices" #MediumTurquoise {
    package "ms-guests" as guests_package {
        interface internal as guests_internal #3D8CFF
        component "ms-guests" as ms_guests <<service>>
        guests_internal - - ms_guests
    }
    package "ms-match-link" as match_link_package {
        interface internal as match_link_internal #3D8CFF
        component "ms-match-link" as ms_match_link <<service>>
        match_link_internal - - ms_match_link
    }
    package "ms-wallet" as wallet_package {
        interface internal as wallet_internal #3D8CFF
        component "ms-wallet" as ms_wallet <<service>>
        wallet_internal - - ms_wallet
    }
    database "Couch DB" as couch_db <<NoSQL>>
    interface "Data Access" as nosql_data_access
}

node "IBM" #Gray {
    package "MDM AE" as mdm_package #Gray {
        interface internal as mdm_internal #Gray
        component "MDM Core" as mdm <<component>> #Gray
        component "Match & Merge" as match_merge <<component>> #Gray
    }
    database "MDM AE" as db2 <<DB2>> #Gray
    mdm_internal - - mdm
    mdm - -> match_merge
    mdm_package - -.> db2
}

node "Data Lake" as data_lake #LightSkyBlue

'Gateway'
gateway - -( guests_internal
gateway - -( wallet_internal

'Couch'
ms_guests - -.> couch_db
ms_wallet - -.> couch_db
couch_db - - nosql_data_access
data_lake - -( nosql_data_access

'MS'
ms_guests - -( match_link_internal
ms_match_link - -( guests_internal

'UI'
android - -( gateway
ios - -( gateway
web - -( gateway
teammember -right-( gateway

'LDAP'
gateway - -( authenticate

'MDM'


@enduml

@startuml

skinparam database {
    backgroundColor Ivory
    borderColor black
}

skinparam package {
    backgroundColor #F0E442
}

interface gateway #YellowGreen

node "UI" #Strategy {
    component "Android" as android <<mobile>>
    component "iOS" as ios <<mobile>>
    component "universalorlando.com" as web <<public web>>
    component "Team Member Tools" as teammember <<internal web>>
}

node "LDAP" as ldap <<ldap>> #BurlyWood {
    folder "LDAP Directory" as ldap_dir
    interface authenticate
}

node "Microservices" #MediumTurquoise {
    package "ms-guests" as guests_package {
        interface internal as guests_internal #3D8CFF
        component "ms-guests" as ms_guests <<service>>
        guests_internal - - ms_guests
    }
    package "ms-match-link" as match_link_package {
        interface internal as match_link_internal #3D8CFF
        component "ms-match-link" as ms_match_link <<service>>
        match_link_internal - - ms_match_link
    }
    package "ms-wallet" as wallet_package {
        interface internal as wallet_internal #3D8CFF
        component "ms-wallet" as ms_wallet <<service>>
        wallet_internal - - ms_wallet
    }
    database "Couch DB" as couch_db <<NoSQL>>
    interface "Data Access" as nosql_data_access
}

node "IBM" #Gray {
    package "MDM AE" as mdm_package #Gray {
        interface internal as mdm_internal #Gray
        component "MDM Core" as mdm <<component>> #Gray
        component "Match & Merge" as match_merge <<component>> #Gray
    }
    database "MDM AE" as db2 <<DB2>> #Gray
    mdm_internal - - mdm
    mdm - -> match_merge
    mdm_package - -.> db2
}

node "Data Lake" as data_lake #LightSkyBlue

gateway - -( guests_internal
gateway - -( wallet_internal

ms_guests - -.> couch_db
ms_wallet - -.> couch_db
couch_db - - nosql_data_access
data_lake - -( nosql_data_access

ms_guests - -( match_link_internal
ms_match_link - -( guests_internal

android - -( gateway
ios - -( gateway
web - -( gateway
teammember -right-( gateway

gateway - -( authenticate



@enduml

PlantUML version 1.2022.7(Mon Aug 22 13:01:30 EDT 2022)
(GPL source distribution)
Java Runtime: OpenJDK Runtime Environment
JVM: OpenJDK 64-Bit Server VM
Default Encoding: UTF-8
Language: en
Country: US
--></g></svg>