<?xml version="1.0" encoding="UTF-8" standalone="no"?><svg xmlns="http://www.w3.org/2000/svg" xmlns:xlink="http://www.w3.org/1999/xlink" contentStyleType="text/css" height="790.2px" preserveAspectRatio="none" style="width:473px;height:790px;background:#FFFFFF;" version="1.1" viewBox="0 0 473 790" width="473.4px" zoomAndPan="magnify"><defs/><g><!--MD5=[c8b95a079abb2c9a723943a7bccb3f44]
cluster gateway--><g id="cluster_gateway"><polygon fill="#F0E442" points="138.6,100.8,144.6,94.8,237.6,94.8,237.6,157.2,231.6,163.2,138.6,163.2,138.6,100.8" style="stroke:#181818;stroke-width:0.6;"/><line style="stroke:#181818;stroke-width:0.6;" x1="231.6" x2="237.6" y1="100.8" y2="94.8"/><line style="stroke:#181818;stroke-width:0.6;" x1="138.6" x2="231.6" y1="100.8" y2="100.8"/><line style="stroke:#181818;stroke-width:0.6;" x1="231.6" x2="231.6" y1="100.8" y2="163.2"/><text fill="#000000" font-family="sans-serif" font-size="8.4" font-weight="bold" lengthAdjust="spacing" textLength="53.4" x="159" y="110.7211">API Gateway</text></g><!--MD5=[9681dc6e01e10c6b4fe06895ae94f592]
cluster UI--><g id="cluster_UI"><polygon fill="#F8E7C0" points="37.8,9.6,43.8,3.6,463.2,3.6,463.2,69,457.2,75,37.8,75,37.8,9.6" style="stroke:#181818;stroke-width:0.6;"/><line style="stroke:#181818;stroke-width:0.6;" x1="457.2" x2="463.2" y1="9.6" y2="3.6"/><line style="stroke:#181818;stroke-width:0.6;" x1="37.8" x2="457.2" y1="9.6" y2="9.6"/><line style="stroke:#181818;stroke-width:0.6;" x1="457.2" x2="457.2" y1="9.6" y2="75"/><text fill="#000000" font-family="sans-serif" font-size="8.4" font-weight="bold" lengthAdjust="spacing" textLength="9" x="243.6" y="19.5211">UI</text></g><!--MD5=[1feb5a0622a9211287ff216bc4a47e33]
cluster ldap--><g id="cluster_ldap"><polygon fill="#DEB887" points="238.8,205.2,244.8,199.2,418.2,199.2,418.2,271.2,412.2,277.2,238.8,277.2,238.8,205.2" style="stroke:#181818;stroke-width:0.6;"/><line style="stroke:#181818;stroke-width:0.6;" x1="412.2" x2="418.2" y1="205.2" y2="199.2"/><line style="stroke:#181818;stroke-width:0.6;" x1="238.8" x2="412.2" y1="205.2" y2="205.2"/><line style="stroke:#181818;stroke-width:0.6;" x1="412.2" x2="412.2" y1="205.2" y2="277.2"/><text fill="#000000" font-family="sans-serif" font-size="8.4" font-style="italic" lengthAdjust="spacing" textLength="26.4" x="312.9" y="215.1211">«ldap»</text><text fill="#000000" font-family="sans-serif" font-size="8.4" font-weight="bold" lengthAdjust="spacing" textLength="22.8" x="314.7" y="225.0141">LDAP</text></g><!--MD5=[f72e8905bd6e3a370cb106f12698fafd]
cluster Microservices--><g id="cluster_Microservices"><polygon fill="#48D1CC" points="9.6,189,15.6,183,224.4,183,224.4,604.5,218.4,610.5,9.6,610.5,9.6,189" style="stroke:#181818;stroke-width:0.6;"/><line style="stroke:#181818;stroke-width:0.6;" x1="218.4" x2="224.4" y1="189" y2="183"/><line style="stroke:#181818;stroke-width:0.6;" x1="9.6" x2="218.4" y1="189" y2="189"/><line style="stroke:#181818;stroke-width:0.6;" x1="218.4" x2="218.4" y1="189" y2="610.5"/><text fill="#000000" font-family="sans-serif" font-size="8.4" font-weight="bold" lengthAdjust="spacing" textLength="58.8" x="85.2" y="198.9211">Microservices</text></g><!--MD5=[155688ac9c6405cb28b411556fc5fed5]
cluster guests_package--><g id="cluster_guests_package"><path d="M123.9,223.8 L171.9,223.8 A2.25,2.25 0 0 1 173.4,225.3 L177.6,237.293 L208.5,237.293 A1.5,1.5 0 0 1 210,238.793 L210,351.3 A1.5,1.5 0 0 1 208.5,352.8 L123.9,352.8 A1.5,1.5 0 0 1 122.4,351.3 L122.4,225.3 A1.5,1.5 0 0 1 123.9,223.8 " fill="#F0E442" style="stroke:#000000;stroke-width:0.8999999999999999;"/><line style="stroke:#000000;stroke-width:0.8999999999999999;" x1="122.4" x2="177.6" y1="237.293" y2="237.293"/><text fill="#000000" font-family="sans-serif" font-size="8.4" font-weight="bold" lengthAdjust="spacing" textLength="47.4" x="124.8" y="233.1211">ms-guests</text></g><!--MD5=[6c2879b2d2bb996634356ed1d183dc5e]
cluster wallet_package--><g id="cluster_wallet_package"><path d="M25.5,211.8 L71.1,211.8 A2.25,2.25 0 0 1 72.6,213.3 L76.8,225.293 L106.5,225.293 A1.5,1.5 0 0 1 108,226.793 L108,351.3 A1.5,1.5 0 0 1 106.5,352.8 L25.5,352.8 A1.5,1.5 0 0 1 24,351.3 L24,213.3 A1.5,1.5 0 0 1 25.5,211.8 " fill="#F0E442" style="stroke:#000000;stroke-width:0.8999999999999999;"/><line style="stroke:#000000;stroke-width:0.8999999999999999;" x1="24" x2="76.8" y1="225.293" y2="225.293"/><text fill="#000000" font-family="sans-serif" font-size="8.4" font-weight="bold" lengthAdjust="spacing" textLength="45" x="26.4" y="221.1211">ms-wallet</text></g><!--MD5=[2bc91724df9ac131c31907115395c5c7]
cluster couch_db--><g id="cluster_couch_db"><path d="M32.4,420.6 C32.4,414.6 118.8,414.6 118.8,414.6 C118.8,414.6 205.2,414.6 205.2,420.6 L205.2,494.4 C205.2,500.4 118.8,500.4 118.8,500.4 C118.8,500.4 32.4,500.4 32.4,494.4 L32.4,420.6 " fill="#F0E442" style="stroke:#000000;stroke-width:0.6;"/><path d="M32.4,420.6 C32.4,426.6 118.8,426.6 118.8,426.6 C118.8,426.6 205.2,426.6 205.2,420.6 " fill="none" style="stroke:#000000;stroke-width:0.6;"/><text fill="#000000" font-family="sans-serif" font-size="8.4" font-style="italic" lengthAdjust="spacing" textLength="35.4" x="101.1" y="435.9211">«NoSQL»</text><text fill="#000000" font-family="sans-serif" font-size="8.4" font-weight="bold" lengthAdjust="spacing" textLength="41.4" x="98.1" y="445.8141">Couch DB</text></g><!--MD5=[c4611ff74c94f6a3fd51acd9c5a0fe90]
cluster debezium--><g id="cluster_debezium"><path d="M100.2,718.2 L186.6,718.2 C189.6,718.2 189.6,752.1 189.6,752.1 C189.6,752.1 189.6,786 186.6,786 L100.2,786 C97.2,786 97.2,752.1 97.2,752.1 C97.2,752.1 97.2,718.2 100.2,718.2 " fill="#FA8072" style="stroke:#181818;stroke-width:0.6;"/><path d="M186.6,718.2 C183.6,718.2 183.6,752.1 183.6,752.1 C183.6,786 186.6,786 186.6,786 " fill="none" style="stroke:#181818;stroke-width:0.6;"/><text fill="#000000" font-family="sans-serif" font-size="8.4" font-style="italic" lengthAdjust="spacing" textLength="49.8" x="118.5" y="727.5211">«Debezium»</text><text fill="#000000" font-family="sans-serif" font-size="8.4" font-weight="bold" lengthAdjust="spacing" textLength="58.8" x="114" y="737.4141">Kafka Cluster</text></g><!--MD5=[d40e80ed04d21816f83ec4d22e72d19f]
cluster match_link--><g id="cluster_match_link"><polygon fill="#FFC0CB" points="243.6,535.8,249.6,529.8,372.6,529.8,372.6,604.2,366.6,610.2,243.6,610.2,243.6,535.8" style="stroke:#181818;stroke-width:0.6;"/><line style="stroke:#181818;stroke-width:0.6;" x1="366.6" x2="372.6" y1="535.8" y2="529.8"/><line style="stroke:#181818;stroke-width:0.6;" x1="243.6" x2="366.6" y1="535.8" y2="535.8"/><line style="stroke:#181818;stroke-width:0.6;" x1="366.6" x2="366.6" y1="535.8" y2="610.2"/><text fill="#000000" font-family="sans-serif" font-size="8.4" font-style="italic" lengthAdjust="spacing" textLength="48.6" x="281.4" y="545.7211">«Processor»</text><text fill="#000000" font-family="sans-serif" font-size="8.4" font-weight="bold" lengthAdjust="spacing" textLength="56.4" x="277.5" y="555.6141">Match &amp; Link</text></g><!--MD5=[2af96f7f65f84c32f13caa729cd2c4db]
cluster redis--><g id="cluster_redis"><polygon fill="#9ACD32" points="114.6,640.8,120.6,634.8,246,634.8,246,690,240,696,114.6,696,114.6,640.8" style="stroke:#181818;stroke-width:0.6;"/><line style="stroke:#181818;stroke-width:0.6;" x1="240" x2="246" y1="640.8" y2="634.8"/><line style="stroke:#181818;stroke-width:0.6;" x1="114.6" x2="240" y1="640.8" y2="640.8"/><line style="stroke:#181818;stroke-width:0.6;" x1="240" x2="240" y1="640.8" y2="696"/><text fill="#000000" font-family="sans-serif" font-size="8.4" font-weight="bold" lengthAdjust="spacing" textLength="76.8" x="139.5" y="650.7211">In-Memory Cache</text></g><!--MD5=[06959a3f3cbea176f36acf10396f6fcf]
entity public--><g id="elem_public"><ellipse cx="187.8" cy="136.2" fill="#9ACD32" rx="4.8" ry="4.8" style="stroke:#181818;stroke-width:0.3;"/><text fill="#000000" font-family="sans-serif" font-size="8.4" lengthAdjust="spacing" textLength="25.2" x="175.2" y="154.5211">public</text></g><!--MD5=[d0e2a5f97e7b84b4a52fc47ac0121b09]
entity android--><g id="elem_android"><rect fill="#F1F1F1" height="37.7859" rx="1.5" ry="1.5" style="stroke:#181818;stroke-width:0.3;" width="60.6" x="47.7" y="27.6"/><rect fill="#F1F1F1" height="6" style="stroke:#181818;stroke-width:0.3;" width="9" x="96.3" y="30.6"/><rect fill="#F1F1F1" height="1.2" style="stroke:#181818;stroke-width:0.3;" width="2.4" x="95.1" y="31.8"/><rect fill="#F1F1F1" height="1.2" style="stroke:#181818;stroke-width:0.3;" width="2.4" x="95.1" y="34.2"/><text fill="#000000" font-family="sans-serif" font-size="8.4" font-style="italic" lengthAdjust="spacing" textLength="36.6" x="56.7" y="47.7211">«mobile»</text><text fill="#000000" font-family="sans-serif" font-size="8.4" lengthAdjust="spacing" textLength="33.6" x="58.2" y="57.6141">Android</text></g><!--MD5=[be09490d94791046e3419ff8f61a31bb]
entity ios--><g id="elem_ios"><rect fill="#F1F1F1" height="37.7859" rx="1.5" ry="1.5" style="stroke:#181818;stroke-width:0.3;" width="60.6" x="129.3" y="27.6"/><rect fill="#F1F1F1" height="6" style="stroke:#181818;stroke-width:0.3;" width="9" x="177.9" y="30.6"/><rect fill="#F1F1F1" height="1.2" style="stroke:#181818;stroke-width:0.3;" width="2.4" x="176.7" y="31.8"/><rect fill="#F1F1F1" height="1.2" style="stroke:#181818;stroke-width:0.3;" width="2.4" x="176.7" y="34.2"/><text fill="#000000" font-family="sans-serif" font-size="8.4" font-style="italic" lengthAdjust="spacing" textLength="36.6" x="138.3" y="47.7211">«mobile»</text><text fill="#000000" font-family="sans-serif" font-size="8.4" lengthAdjust="spacing" textLength="13.8" x="149.7" y="57.6141">iOS</text></g><!--MD5=[08af8945a84acfe1eabc0963aa87c412]
entity web--><g id="elem_web"><rect fill="#F1F1F1" height="37.7859" rx="1.5" ry="1.5" style="stroke:#181818;stroke-width:0.3;" width="113.4" x="210.9" y="27.6"/><rect fill="#F1F1F1" height="6" style="stroke:#181818;stroke-width:0.3;" width="9" x="312.3" y="30.6"/><rect fill="#F1F1F1" height="1.2" style="stroke:#181818;stroke-width:0.3;" width="2.4" x="311.1" y="31.8"/><rect fill="#F1F1F1" height="1.2" style="stroke:#181818;stroke-width:0.3;" width="2.4" x="311.1" y="34.2"/><text fill="#000000" font-family="sans-serif" font-size="8.4" font-style="italic" lengthAdjust="spacing" textLength="52.8" x="238.2" y="47.7211">«public web»</text><text fill="#000000" font-family="sans-serif" font-size="8.4" lengthAdjust="spacing" textLength="89.4" x="219.9" y="57.6141">universalorlando.com</text></g><!--MD5=[95dd478b86db0b9ac73366f6568c523e]
entity teammember--><g id="elem_teammember"><rect fill="#F1F1F1" height="37.7859" rx="1.5" ry="1.5" style="stroke:#181818;stroke-width:0.3;" width="108" x="345.6" y="27.6"/><rect fill="#F1F1F1" height="6" style="stroke:#181818;stroke-width:0.3;" width="9" x="441.6" y="30.6"/><rect fill="#F1F1F1" height="1.2" style="stroke:#181818;stroke-width:0.3;" width="2.4" x="440.4" y="31.8"/><rect fill="#F1F1F1" height="1.2" style="stroke:#181818;stroke-width:0.3;" width="2.4" x="440.4" y="34.2"/><text fill="#000000" font-family="sans-serif" font-size="8.4" font-style="italic" lengthAdjust="spacing" textLength="59.4" x="366.9" y="47.7211">«internal web»</text><text fill="#000000" font-family="sans-serif" font-size="8.4" lengthAdjust="spacing" textLength="84" x="354.6" y="57.6141">Team Member Tools</text></g><!--MD5=[85d3f8ffd301b42283bb9f0f23821f75]
entity ldap_dir--><g id="elem_ldap_dir"><path d="M331.2,234 L355.8,234 A2.25,2.25 0 0 1 357.3,235.5 L361.5,246.6 L406.8,246.6 A1.5,1.5 0 0 1 408.3,248.1 L408.3,265.193 A1.5,1.5 0 0 1 406.8,266.693 L331.2,266.693 A1.5,1.5 0 0 1 329.7,265.193 L329.7,235.5 A1.5,1.5 0 0 1 331.2,234 " fill="#F1F1F1" style="stroke:#181818;stroke-width:0.3;"/><line style="stroke:#181818;stroke-width:0.3;" x1="329.7" x2="361.5" y1="246.6" y2="246.6"/><text fill="#000000" font-family="sans-serif" font-size="8.4" lengthAdjust="spacing" textLength="60.6" x="335.7" y="258.9211">LDAP Directory</text></g><!--MD5=[58fe32485a25c6dfb2b4de3b02168686]
entity authenticate--><g id="elem_authenticate"><ellipse cx="278.4" cy="250.2" fill="#F1F1F1" rx="4.8" ry="4.8" style="stroke:#181818;stroke-width:0.3;"/><text fill="#000000" font-family="sans-serif" font-size="8.4" lengthAdjust="spacing" textLength="51" x="252.9" y="268.5211">authenticate</text></g><!--MD5=[8bb1ccd3166bffb93e7c9b07bc540f41]
entity nosql_read_access--><g id="elem_nosql_read_access"><ellipse cx="198.6" cy="582" fill="#F1F1F1" rx="4.8" ry="4.8" style="stroke:#181818;stroke-width:0.3;"/><text fill="#000000" font-family="sans-serif" font-size="8.4" lengthAdjust="spacing" textLength="50.4" x="173.4" y="600.3211">Read Access</text></g><!--MD5=[94e565a0588cac3e40790ca6d28e143f]
entity debezium_connector--><g id="elem_debezium_connector"><rect fill="#DDA0DD" height="37.7859" rx="1.5" ry="1.5" style="stroke:#181818;stroke-width:0.3;" width="67.2" x="48" y="563.1"/><rect fill="#DDA0DD" height="6" style="stroke:#181818;stroke-width:0.3;" width="9" x="103.2" y="566.1"/><rect fill="#DDA0DD" height="1.2" style="stroke:#181818;stroke-width:0.3;" width="2.4" x="102" y="567.3"/><rect fill="#DDA0DD" height="1.2" style="stroke:#181818;stroke-width:0.3;" width="2.4" x="102" y="569.7"/><text fill="#000000" font-family="sans-serif" font-size="8.4" font-weight="bold" lengthAdjust="spacing" textLength="43.2" x="57" y="583.2211">Debezium</text><text fill="#000000" font-family="sans-serif" font-size="8.4" lengthAdjust="spacing" textLength="41.4" x="57" y="593.1141">connector</text></g><!--MD5=[d1b457bbd51b46fbb259e557b99e92ae]
entity guests_internal--><g id="elem_guests_internal"><ellipse cx="187.8" cy="250.2" fill="#3D8CFF" rx="4.8" ry="4.8" style="stroke:#181818;stroke-width:0.3;"/><text fill="#000000" font-family="sans-serif" font-size="8.4" lengthAdjust="spacing" textLength="31.8" x="171.9" y="268.5211">internal</text></g><!--MD5=[da13416faa82b4a43890a3a8fce00ce4]
entity ms_guests--><g id="elem_ms_guests"><rect fill="#F1F1F1" height="37.7859" rx="1.5" ry="1.5" style="stroke:#181818;stroke-width:0.3;" width="67.8" x="132.3" y="305.4"/><rect fill="#F1F1F1" height="6" style="stroke:#181818;stroke-width:0.3;" width="9" x="188.1" y="308.4"/><rect fill="#F1F1F1" height="1.2" style="stroke:#181818;stroke-width:0.3;" width="2.4" x="186.9" y="309.6"/><rect fill="#F1F1F1" height="1.2" style="stroke:#181818;stroke-width:0.3;" width="2.4" x="186.9" y="312"/><text fill="#000000" font-family="sans-serif" font-size="8.4" font-style="italic" lengthAdjust="spacing" textLength="36.6" x="144.9" y="325.5211">«service»</text><text fill="#000000" font-family="sans-serif" font-size="8.4" lengthAdjust="spacing" textLength="43.8" x="141.3" y="335.4141">ms-guests</text></g><!--MD5=[ba5a8998a04e4bdc0dbbcbd792069ae3]
entity wallet_internal--><g id="elem_wallet_internal"><ellipse cx="72" cy="250.2" fill="#3D8CFF" rx="4.8" ry="4.8" style="stroke:#181818;stroke-width:0.3;"/><text fill="#000000" font-family="sans-serif" font-size="8.4" lengthAdjust="spacing" textLength="31.8" x="56.1" y="268.5211">internal</text></g><!--MD5=[c01b3adff0033688fb146172ea200fae]
entity ms_wallet--><g id="elem_ms_wallet"><rect fill="#F1F1F1" height="37.7859" rx="1.5" ry="1.5" style="stroke:#181818;stroke-width:0.3;" width="64.8" x="33.6" y="305.4"/><rect fill="#F1F1F1" height="6" style="stroke:#181818;stroke-width:0.3;" width="9" x="86.4" y="308.4"/><rect fill="#F1F1F1" height="1.2" style="stroke:#181818;stroke-width:0.3;" width="2.4" x="85.2" y="309.6"/><rect fill="#F1F1F1" height="1.2" style="stroke:#181818;stroke-width:0.3;" width="2.4" x="85.2" y="312"/><text fill="#000000" font-family="sans-serif" font-size="8.4" font-style="italic" lengthAdjust="spacing" textLength="36.6" x="44.7" y="325.5211">«service»</text><text fill="#000000" font-family="sans-serif" font-size="8.4" lengthAdjust="spacing" textLength="40.8" x="42.6" y="335.4141">ms-wallet</text></g><!--MD5=[cc9ff9d6e90c4965b1953ff81f4d8703]
entity write_db--><g id="elem_write_db"><path d="M58.5,465 C58.5,459 81.6,459 81.6,459 C81.6,459 104.7,459 104.7,465 L104.7,480.293 C104.7,486.293 81.6,486.293 81.6,486.293 C81.6,486.293 58.5,486.293 58.5,480.293 L58.5,465 " fill="#FFFFF0" style="stroke:#000000;stroke-width:0.3;"/><path d="M58.5,465 C58.5,471 81.6,471 81.6,471 C81.6,471 104.7,471 104.7,465 " fill="none" style="stroke:#000000;stroke-width:0.3;"/><text fill="#000000" font-family="sans-serif" font-size="8.4" lengthAdjust="spacing" textLength="34.2" x="64.5" y="481.5211">Write DB</text></g><!--MD5=[8bc6b3ee0db267bd48c1c9f1baa9b339]
entity read_db--><g id="elem_read_db"><path d="M145.2,465 C145.2,459 168,459 168,459 C168,459 190.8,459 190.8,465 L190.8,480.293 C190.8,486.293 168,486.293 168,486.293 C168,486.293 145.2,486.293 145.2,480.293 L145.2,465 " fill="#FFFFF0" style="stroke:#000000;stroke-width:0.3;"/><path d="M145.2,465 C145.2,471 168,471 168,471 C168,471 190.8,471 190.8,465 " fill="none" style="stroke:#000000;stroke-width:0.3;"/><text fill="#000000" font-family="sans-serif" font-size="8.4" lengthAdjust="spacing" textLength="33.6" x="151.2" y="481.5211">Read DB</text></g><!--MD5=[f376dbea7e5c36b1eb7bbb8222c0f7c0]
entity kafka_brokers--><g id="elem_kafka_brokers"><rect fill="#F1F1F1" height="27.893" rx="1.5" ry="1.5" style="stroke:#181818;stroke-width:0.3;" width="73.2" x="106.8" y="748.8"/><rect fill="#F1F1F1" height="6" style="stroke:#181818;stroke-width:0.3;" width="9" x="168" y="751.8"/><rect fill="#F1F1F1" height="1.2" style="stroke:#181818;stroke-width:0.3;" width="2.4" x="166.8" y="753"/><rect fill="#F1F1F1" height="1.2" style="stroke:#181818;stroke-width:0.3;" width="2.4" x="166.8" y="755.4"/><text fill="#000000" font-family="sans-serif" font-size="8.4" lengthAdjust="spacing" textLength="49.2" x="115.8" y="768.9211">Brokers 1..3</text></g><!--MD5=[9e192f6c6858cb294884017bf1dabec8]
entity consumer_1--><g id="elem_consumer_1"><rect fill="#F1F1F1" height="27.893" rx="1.5" ry="1.5" style="stroke:#181818;stroke-width:0.3;" width="88.8" x="269.4" y="568.2"/><rect fill="#F1F1F1" height="6" style="stroke:#181818;stroke-width:0.3;" width="9" x="346.2" y="571.2"/><rect fill="#F1F1F1" height="1.2" style="stroke:#181818;stroke-width:0.3;" width="2.4" x="345" y="572.4"/><rect fill="#F1F1F1" height="1.2" style="stroke:#181818;stroke-width:0.3;" width="2.4" x="345" y="574.8"/><text fill="#000000" font-family="sans-serif" font-size="8.4" lengthAdjust="spacing" textLength="64.8" x="278.4" y="588.3211">Consumers 1..5</text></g><!--MD5=[118f8ba39e0f55ca9cda37ed8273c842]
entity redis_instances--><g id="elem_redis_instances"><rect fill="#F1F1F1" height="27.893" rx="1.5" ry="1.5" style="stroke:#181818;stroke-width:0.3;" width="80.4" x="156" y="658.8"/><rect fill="#F1F1F1" height="6" style="stroke:#181818;stroke-width:0.3;" width="9" x="224.4" y="661.8"/><rect fill="#F1F1F1" height="1.2" style="stroke:#181818;stroke-width:0.3;" width="2.4" x="223.2" y="663"/><rect fill="#F1F1F1" height="1.2" style="stroke:#181818;stroke-width:0.3;" width="2.4" x="223.2" y="665.4"/><text fill="#000000" font-family="sans-serif" font-size="8.4" lengthAdjust="spacing" textLength="56.4" x="165" y="678.9211">Instances 1..n</text></g><!--MD5=[a30b510d56e98a480ebd0076bb86d532]
entity redis_access--><g id="elem_redis_access"><ellipse cx="129.6" cy="672.6" fill="#000000" rx="4.8" ry="4.8" style="stroke:#181818;stroke-width:0.3;"/><text fill="#000000" font-family="sans-serif" font-size="8.4" lengthAdjust="spacing" textLength="27.6" x="115.8" y="690.9211">Access</text></g><!--MD5=[16d4717972d1cc757f2ff8148a7968ae]
entity kafka_consume--><g id="elem_kafka_consume"><ellipse cx="268.2" cy="762.6" fill="#FA8072" rx="4.8" ry="4.8" style="stroke:#181818;stroke-width:0.3;"/><text fill="#000000" font-family="sans-serif" font-size="8.4" lengthAdjust="spacing" textLength="37.2" x="249.6" y="780.9211">consume</text></g><!--MD5=[12859362b8ca673b871b8ce76de6e694]
entity kafka_produce--><g id="elem_kafka_produce"><ellipse cx="81.6" cy="672.6" fill="#FA8072" rx="4.8" ry="4.8" style="stroke:#181818;stroke-width:0.3;"/><text fill="#000000" font-family="sans-serif" font-size="8.4" lengthAdjust="spacing" textLength="34.2" x="64.5" y="690.9211">produce</text></g><!--MD5=[741f803b0826940167ea2a9cc6fd3e1f]
entity data_lake--><g id="elem_data_lake"><polygon fill="#87CEFA" points="300,664.8,306,658.8,363.6,658.8,363.6,680.693,357.6,686.693,300,686.693,300,664.8" style="stroke:#181818;stroke-width:0.3;"/><line style="stroke:#181818;stroke-width:0.3;" x1="357.6" x2="363.6" y1="664.8" y2="658.8"/><line style="stroke:#181818;stroke-width:0.3;" x1="300" x2="357.6" y1="664.8" y2="664.8"/><line style="stroke:#181818;stroke-width:0.3;" x1="357.6" x2="357.6" y1="664.8" y2="686.693"/><text fill="#000000" font-family="sans-serif" font-size="8.4" lengthAdjust="spacing" textLength="39.6" x="309" y="678.9211">Data Lake</text></g><!--MD5=[45f2ff5085d056267707c7d276a8e149]
link guests_internal to ms_guests--><g id="link_guests_internal_ms_guests"><path d="M186.318,255.81 C183.342,265.848 176.52,288.864 171.648,305.31 " fill="none" id="guests_internal-ms_guests" style="stroke:#181818;stroke-width:0.6;"/></g><!--MD5=[1c8b8e41eec736a525d44e0fb642894e]
link wallet_internal to ms_wallet--><g id="link_wallet_internal_ms_wallet"><path d="M71.586,255.81 C70.764,265.848 68.868,288.864 67.512,305.31 " fill="none" id="wallet_internal-ms_wallet" style="stroke:#181818;stroke-width:0.6;"/></g><!--MD5=[c14c811fd56b8d4d07ddb8e580c9a565]
link write_db to read_db--><g id="link_write_db_read_db"><path d="M104.754,472.5 C116.226,472.5 130.122,472.5 141.96,472.5 " fill="none" id="write_db-to-read_db" style="stroke:#181818;stroke-width:0.6;"/><polygon fill="#181818" points="145.08,472.5,139.68,470.1,142.08,472.5,139.68,474.9,145.08,472.5" style="stroke:#181818;stroke-width:0.6;"/><text fill="#000000" font-family="sans-serif" font-size="7.8" font-weight="bold" lengthAdjust="spacing" textLength="18.6" x="115.65" y="468.641">Sync</text></g><!--MD5=[a1b5ccf591d84b3305454368e6520f2f]
link read_db to nosql_read_access--><g id="link_read_db_nosql_read_access"><path d="M171.69,486.162 C178.494,510.24 192.726,560.616 197.214,576.498 " fill="none" id="read_db-nosql_read_access" style="stroke:#181818;stroke-width:0.6;"/></g><!--MD5=[94a10434d03075f0d1999cb6080aaad2]
link write_db to debezium_connector--><g id="link_write_db_debezium_connector"><path d="M81.6,486.162 C81.6,505.35 81.6,541.224 81.6,563.046 " fill="none" id="write_db-debezium_connector" style="stroke:#181818;stroke-width:0.6;"/></g><!--MD5=[76326a147343decc5dede72600e42104]
link redis_access to redis_instances--><g id="link_redis_access_redis_instances"><path d="M135.066,672.6 C141.99,672.6 148.914,672.6 155.838,672.6 " fill="none" id="redis_access-redis_instances" style="stroke:#181818;stroke-width:0.6;"/></g><!--MD5=[d34598303d7fa10629cd19607aaecda7]
link public to guests_internal--><g id="link_public_guests_internal"><path d="M187.8,141.648 C187.8,158.46 187.8,214.536 187.8,238.542 " fill="none" id="public-to-guests_internal" style="stroke:#181818;stroke-width:0.6;"/><path d="M192.8743,242.7971 A5.4,5.4 0 0 0 182.7257 242.7971" fill="none" style="stroke:#181818;stroke-width:0.8999999999999999;"/></g><!--MD5=[d83300e87129440bfc8092f7490ad1bc]
link public to wallet_internal--><g id="link_public_wallet_internal"><path d="M182.4,139.302 C170.55,144.978 141.78,159.774 122.4,178.2 C102.588,197.04 85.698,224.73 77.43,239.478 " fill="none" id="public-to-wallet_internal" style="stroke:#181818;stroke-width:0.6;"/><path d="M79.857,245.6045 A5.4,5.4 0 0 0 70.9603 240.7214" fill="none" style="stroke:#181818;stroke-width:0.8999999999999999;"/></g><!--MD5=[94e671037f05e3bfa36319a7b3b6acec]
link match_link to guests_internal--><g id="link_match_link_guests_internal"><path d="M243.5716,538.8569 C243.5556,538.6865 243.5396,538.5157 243.5236,538.3447 C243.4598,537.6606 243.3961,536.9718 243.3328,536.2783 C243.0793,533.5047 242.8302,530.6585 242.5895,527.7564 C242.108,521.9524 241.6598,515.925 241.2761,509.808 C240.5089,497.574 240,484.9815 240,473.1 C240,323.7 240,323.7 240,323.7 C240,295.296 213.474,270.342 198.24,258.354 " fill="none" id="match_link-to-guests_internal" style="stroke:#181818;stroke-width:0.6;"/><path d="M191.7879,259.8281 A5.4,5.4 0 0 0 197.9258 251.7459" fill="none" style="stroke:#181818;stroke-width:0.8999999999999999;"/></g><!--MD5=[5b0924be97d99f4b42712c7be1e32466]
link ms_guests to couch_db--><g id="link_ms_guests_couch_db"><path d="M138.474,343.398 C104.166,366.342 50.058,402.732 48.6,405 C47.5972,406.5615 46.6747,408.1841 45.8264,409.8543 C45.4022,410.6894 44.9965,411.5365 44.6086,412.3937 C44.4147,412.8223 44.2252,413.2535 44.0401,413.6871 C43.9475,413.9038 43.856,414.1212 43.7656,414.3391 " fill="none" id="ms_guests-to-couch_db" style="stroke:#181818;stroke-width:0.6;stroke-dasharray:7.0,7.0;"/><polygon fill="#181818" points="43.7656,414.3391,48.0517,410.271,44.9152,411.5681,43.6181,408.4317,43.7656,414.3391" style="stroke:#181818;stroke-width:0.6;"/></g><!--MD5=[9f95cd16f260286e55319d7268c9ccae]
link ms_wallet to couch_db--><g id="link_ms_wallet_couch_db"><path d="M61.752,343.302 C58.074,359.508 52.716,383.766 48.6,405 C48.2471,406.8218 47.8945,408.6726 47.5435,410.542 C47.368,411.4767 47.1929,412.416 47.0184,413.3587 C46.9747,413.5944 46.9311,413.8303 46.8875,414.0663 C46.8658,414.1844 46.844,414.3024 46.8222,414.4206 " fill="none" id="ms_wallet-to-couch_db" style="stroke:#181818;stroke-width:0.6;stroke-dasharray:7.0,7.0;"/><polygon fill="#181818" points="46.8222,414.4206,50.1609,409.5448,47.3658,411.4702,45.4404,408.6751,46.8222,414.4206" style="stroke:#181818;stroke-width:0.6;"/></g><!--MD5=[fe6185060501032e3512b553b9ccc916]
link debezium_connector to kafka_produce--><g id="link_debezium_connector_kafka_produce"><path d="M81.6,600.906 C81.6,618.99 81.6,646.044 81.6,661.026 " fill="none" id="debezium_connector-to-kafka_produce" style="stroke:#181818;stroke-width:0.6;"/><path d="M86.6743,665.3051 A5.4,5.4 0 0 0 76.5257 665.3051" fill="none" style="stroke:#181818;stroke-width:0.8999999999999999;"/></g><!--MD5=[ae2e9a5b2aa188a92c50dae3874b1974]
reverse link nosql_read_access to match_link--><g id="link_nosql_read_access_match_link"><path d="M210.066,582 C216.396,582 222.7275,582 229.059,582 C232.2247,582 235.3905,582 238.5561,582 C240.1388,582 241.7216,582 243.3042,582 C243.3537,582 243.4032,582 243.4526,582 " fill="none" id="nosql_read_access-backto-match_link" style="stroke:#181818;stroke-width:0.6;"/><path d="M205.8949,587.0743 A5.4,5.4 0 0 0 205.8949 576.9257" fill="none" style="stroke:#181818;stroke-width:0.8999999999999999;"/></g><!--MD5=[b053901814905456b8fd8f8cff401718]
link match_link to redis_access--><g id="link_match_link_redis_access"><path d="M243.5642,595.3163 C243.5371,595.3748 243.5099,595.4335 243.4825,595.4922 C243.4279,595.6096 243.3728,595.7275 243.3171,595.8457 C243.2059,596.0822 243.0928,596.3201 242.9778,596.5594 C242.7478,597.038 242.5103,597.522 242.265,598.0102 C238.341,605.8215 232.458,614.709 224.4,619.8 C194.616,638.616 173.502,608.238 145.8,630 C136.302,637.458 132.372,651.21 130.74,660.948 " fill="none" id="match_link-to-redis_access" style="stroke:#181818;stroke-width:0.6;"/><path d="M135.1894,666.0045 A5.4,5.4 0 0 0 125.1268 664.685" fill="none" style="stroke:#181818;stroke-width:0.8999999999999999;"/></g><!--MD5=[a00e3b328ec6eb930c807630108aa710]
link android to public--><g id="link_android_public"><path d="M100.752,65.436 C124.32,84.432 160.092,113.262 177.522,127.314 " fill="none" id="android-to-public" style="stroke:#181818;stroke-width:0.6;"/><path d="M184.0548,126.0677 A5.4,5.4 0 0 0 177.6885 133.9712" fill="none" style="stroke:#181818;stroke-width:0.8999999999999999;"/></g><!--MD5=[b6e357b018622cc2c3a198e565c63111]
link ios to public--><g id="link_ios_public"><path d="M165.444,65.436 C171.15,83.352 179.646,110.01 184.35,124.776 " fill="none" id="ios-to-public" style="stroke:#181818;stroke-width:0.6;"/><path d="M190.4985,127.3528 A5.4,5.4 0 0 0 180.8266 130.4269" fill="none" style="stroke:#181818;stroke-width:0.8999999999999999;"/></g><!--MD5=[ecb94a0cf9f4839855044905b2ff185b]
link web to public--><g id="link_web_public"><path d="M251.064,65.436 C234.402,83.916 209.352,111.702 196.332,126.138 " fill="none" id="web-to-public" style="stroke:#181818;stroke-width:0.6;"/><path d="M197.2712,132.6718 A5.4,5.4 0 0 0 189.7278 125.8826" fill="none" style="stroke:#181818;stroke-width:0.8999999999999999;"/></g><!--MD5=[c9dad59e6393349c0842912da04d4439]
link teammember to public--><g id="link_teammember_public"><path d="M364.944,65.43 C355.284,70.308 344.718,75.432 334.8,79.8 C285.042,101.73 223.716,123.318 198.948,131.814 " fill="none" id="teammember-to-public" style="stroke:#181818;stroke-width:0.6;"/><path d="M196.6113,137.9755 A5.4,5.4 0 0 0 193.3324 128.3711" fill="none" style="stroke:#181818;stroke-width:0.8999999999999999;"/></g><!--MD5=[a6fa9435821ce293024e9024b662c6d5]
link public to authenticate--><g id="link_public_authenticate"><path d="M191.694,141.648 C205.428,158.748 251.79,216.474 270.486,239.748 " fill="none" id="public-to-authenticate" style="stroke:#181818;stroke-width:0.6;"/><path d="M277.2193,240.025 A5.4,5.4 0 0 0 269.3101 246.3843" fill="none" style="stroke:#181818;stroke-width:0.8999999999999999;"/></g><!--MD5=[cf0367516c5db7c89cf98d2236235915]
link kafka_produce to kafka_brokers--><g id="link_kafka_produce_kafka_brokers"><path d="M85.098,678.228 C94.446,691.656 120.222,728.694 134.16,748.728 " fill="none" id="kafka_produce-kafka_brokers" style="stroke:#181818;stroke-width:0.6;"/></g><!--MD5=[69e86b7b900ee632d7e6258b31081ab3]
link kafka_brokers to kafka_consume--><g id="link_kafka_brokers_kafka_consume"><path d="M180.204,762.6 C207.702,762.6 235.2,762.6 262.698,762.6 " fill="none" id="kafka_brokers-kafka_consume" style="stroke:#181818;stroke-width:0.6;"/></g><!--MD5=[9548a49b2833d17758e18684fcade6e2]
link match_link to kafka_consume--><g id="link_match_link_kafka_consume"><path d="M251.5158,610.815 C251.5647,611.2581 251.614,611.7051 251.6638,612.1558 C251.7632,613.0573 251.8644,613.9738 251.9671,614.9045 C252.3778,618.6272 252.8137,622.5774 253.269,626.7029 C254.1794,634.9537 255.1672,643.9058 256.1865,653.142 C260.2635,690.087 264.843,731.58 266.982,750.942 " fill="none" id="match_link-to-kafka_consume" style="stroke:#181818;stroke-width:0.6;"/><path d="M272.5005,754.6983 A5.4,5.4 0 0 0 262.4133 755.8143" fill="none" style="stroke:#181818;stroke-width:0.8999999999999999;"/></g><!--MD5=[f6db522b5cae85554e792c6f63273eb0]
link data_lake to kafka_consume--><g id="link_data_lake_kafka_consume"><path d="M322.278,686.496 C309.384,704.496 286.668,736.218 275.214,752.202 " fill="none" id="data_lake-to-kafka_consume" style="stroke:#181818;stroke-width:0.6;"/><path d="M276.8697,758.602 A5.4,5.4 0 0 0 268.6153 752.6977" fill="none" style="stroke:#181818;stroke-width:0.8999999999999999;"/></g><!--MD5=[949a7d641ac9c53e76703f737bb7e86f]
@startuml

skinparam database {
    backgroundColor Ivory
    borderColor black
}

skinparam package {
    backgroundColor #F0E442
}

interface consume as kafka_consume #Salmon
interface produce as kafka_produce #Salmon

node "API Gateway" as gateway {
    interface public #YellowGreen
}

node "UI" #Strategy {
    component "Android" as android <<mobile>>
    component "iOS" as ios <<mobile>>
    component "universalorlando.com" as web <<public web>>
    component "Team Member Tools" as teammember <<internal web>>
}

node "LDAP" as ldap <<ldap>> #BurlyWood {
    folder "LDAP Directory" as ldap_dir
    interface authenticate
}

node "Microservices" #MediumTurquoise {

    package "ms-guests" as guests_package {
        interface internal as guests_internal #3D8CFF
        component "ms-guests" as ms_guests <<service>>
        guests_internal - - ms_guests
    }
    package "ms-wallet" as wallet_package {
        interface internal as wallet_internal #3D8CFF
        component "ms-wallet" as ms_wallet <<service>>
        wallet_internal - - ms_wallet
    }
     database "Couch DB" as couch_db <<NoSQL>> {
        database "Write DB" as write_db
        database "Read DB" as read_db
        write_db -right-> read_db :**Sync**
     }
    interface "Read Access" as nosql_read_access
    component "**Debezium**\nconnector" as debezium_connector #Plum
    read_db - - nosql_read_access
    write_db - - debezium_connector

}

queue "Kafka Cluster" as debezium <<Debezium>> #Salmon {
    component "Brokers 1..3" as kafka_brokers
}

node "Match & Link" as match_link <<Processor>> #Pink {
    component "Consumers 1..5" as consumer_1
}

node "In-Memory Cache" as redis #YellowGreen {
    component "Instances 1..n" as redis_instances
    interface "Access" as redis_access #Black
    redis_instances -left- redis_access
}

node "Data Lake" as data_lake #LightSkyBlue

'Gateway'
public - -( guests_internal
public - -( wallet_internal

'MS'
match_link -right-( guests_internal

'Couch'
ms_guests - -.> couch_db
ms_wallet - -.> couch_db
debezium_connector -down-( kafka_produce
match_link -left-( nosql_read_access

'Cache'
match_link - -( redis_access

'UI'
android - -( public
ios - -( public
web - -( public
teammember - -( public

'LDAP'

public - -( authenticate

'Kafka'
kafka_brokers -up- kafka_produce
kafka_brokers -right- kafka_consume
match_link - -( kafka_consume
data_lake - -( kafka_consume

@enduml

@startuml

skinparam database {
    backgroundColor Ivory
    borderColor black
}

skinparam package {
    backgroundColor #F0E442
}

interface consume as kafka_consume #Salmon
interface produce as kafka_produce #Salmon

node "API Gateway" as gateway {
    interface public #YellowGreen
}

node "UI" #Strategy {
    component "Android" as android <<mobile>>
    component "iOS" as ios <<mobile>>
    component "universalorlando.com" as web <<public web>>
    component "Team Member Tools" as teammember <<internal web>>
}

node "LDAP" as ldap <<ldap>> #BurlyWood {
    folder "LDAP Directory" as ldap_dir
    interface authenticate
}

node "Microservices" #MediumTurquoise {

    package "ms-guests" as guests_package {
        interface internal as guests_internal #3D8CFF
        component "ms-guests" as ms_guests <<service>>
        guests_internal - - ms_guests
    }
    package "ms-wallet" as wallet_package {
        interface internal as wallet_internal #3D8CFF
        component "ms-wallet" as ms_wallet <<service>>
        wallet_internal - - ms_wallet
    }
     database "Couch DB" as couch_db <<NoSQL>> {
        database "Write DB" as write_db
        database "Read DB" as read_db
        write_db -right-> read_db :**Sync**
     }
    interface "Read Access" as nosql_read_access
    component "**Debezium**\nconnector" as debezium_connector #Plum
    read_db - - nosql_read_access
    write_db - - debezium_connector

}

queue "Kafka Cluster" as debezium <<Debezium>> #Salmon {
    component "Brokers 1..3" as kafka_brokers
}

node "Match & Link" as match_link <<Processor>> #Pink {
    component "Consumers 1..5" as consumer_1
}

node "In-Memory Cache" as redis #YellowGreen {
    component "Instances 1..n" as redis_instances
    interface "Access" as redis_access #Black
    redis_instances -left- redis_access
}

node "Data Lake" as data_lake #LightSkyBlue

public - -( guests_internal
public - -( wallet_internal

match_link -right-( guests_internal

ms_guests - -.> couch_db
ms_wallet - -.> couch_db
debezium_connector -down-( kafka_produce
match_link -left-( nosql_read_access

match_link - -( redis_access

android - -( public
ios - -( public
web - -( public
teammember - -( public


public - -( authenticate

kafka_brokers -up- kafka_produce
kafka_brokers -right- kafka_consume
match_link - -( kafka_consume
data_lake - -( kafka_consume

@enduml

PlantUML version 1.2022.7(Mon Aug 22 13:01:30 EDT 2022)
(GPL source distribution)
Java Runtime: OpenJDK Runtime Environment
JVM: OpenJDK 64-Bit Server VM
Default Encoding: UTF-8
Language: en
Country: US
--></g></svg>