<?xml version="1.0" encoding="UTF-8" standalone="no"?><svg xmlns="http://www.w3.org/2000/svg" xmlns:xlink="http://www.w3.org/1999/xlink" contentStyleType="text/css" height="630.6px" preserveAspectRatio="none" style="width:550px;height:630px;background:#FFFFFF;" version="1.1" viewBox="0 0 550 630" width="550.2px" zoomAndPan="magnify"><defs/><g><!--MD5=[c8b95a079abb2c9a723943a7bccb3f44]
cluster gateway--><g id="cluster_gateway"><polygon fill="#F0E442" points="208.8,95.4,214.8,89.4,307.8,89.4,307.8,127.8,301.8,133.8,208.8,133.8,208.8,95.4" style="stroke:#181818;stroke-width:0.6;"/><line style="stroke:#181818;stroke-width:0.6;" x1="301.8" x2="307.8" y1="95.4" y2="89.4"/><line style="stroke:#181818;stroke-width:0.6;" x1="208.8" x2="301.8" y1="95.4" y2="95.4"/><line style="stroke:#181818;stroke-width:0.6;" x1="301.8" x2="301.8" y1="95.4" y2="133.8"/><text fill="#000000" font-family="sans-serif" font-size="8.4" font-weight="bold" lengthAdjust="spacing" textLength="53.4" x="229.2" y="105.3211">API Gateway</text></g><!--MD5=[1feb5a0622a9211287ff216bc4a47e33]
cluster ldap--><g id="cluster_ldap"><polygon fill="#DEB887" points="9.6,170.4,15.6,164.4,189,164.4,189,236.4,183,242.4,9.6,242.4,9.6,170.4" style="stroke:#181818;stroke-width:0.6;"/><line style="stroke:#181818;stroke-width:0.6;" x1="183" x2="189" y1="170.4" y2="164.4"/><line style="stroke:#181818;stroke-width:0.6;" x1="9.6" x2="183" y1="170.4" y2="170.4"/><line style="stroke:#181818;stroke-width:0.6;" x1="183" x2="183" y1="170.4" y2="242.4"/><text fill="#000000" font-family="sans-serif" font-size="8.4" font-style="italic" lengthAdjust="spacing" textLength="26.4" x="83.7" y="180.3211">«ldap»</text><text fill="#000000" font-family="sans-serif" font-size="8.4" font-weight="bold" lengthAdjust="spacing" textLength="22.8" x="85.5" y="190.2141">LDAP</text></g><!--MD5=[9681dc6e01e10c6b4fe06895ae94f592]
cluster UI--><g id="cluster_UI"><polygon fill="#F8E7C0" points="61.8,9.6,67.8,3.6,487.2,3.6,487.2,69,481.2,75,61.8,75,61.8,9.6" style="stroke:#181818;stroke-width:0.6;"/><line style="stroke:#181818;stroke-width:0.6;" x1="481.2" x2="487.2" y1="9.6" y2="3.6"/><line style="stroke:#181818;stroke-width:0.6;" x1="61.8" x2="481.2" y1="9.6" y2="9.6"/><line style="stroke:#181818;stroke-width:0.6;" x1="481.2" x2="481.2" y1="9.6" y2="75"/><text fill="#000000" font-family="sans-serif" font-size="8.4" font-weight="bold" lengthAdjust="spacing" textLength="9" x="267.6" y="19.5211">UI</text></g><!--MD5=[f72e8905bd6e3a370cb106f12698fafd]
cluster Microservices--><g id="cluster_Microservices"><polygon fill="#48D1CC" points="203.4,154.2,209.4,148.2,409.8,148.2,409.8,324.6,403.8,330.6,203.4,330.6,203.4,154.2" style="stroke:#181818;stroke-width:0.6;"/><line style="stroke:#181818;stroke-width:0.6;" x1="403.8" x2="409.8" y1="154.2" y2="148.2"/><line style="stroke:#181818;stroke-width:0.6;" x1="203.4" x2="403.8" y1="154.2" y2="154.2"/><line style="stroke:#181818;stroke-width:0.6;" x1="403.8" x2="403.8" y1="154.2" y2="330.6"/><text fill="#000000" font-family="sans-serif" font-size="8.4" font-weight="bold" lengthAdjust="spacing" textLength="58.8" x="274.8" y="164.1211">Microservices</text></g><!--MD5=[47b50930d2ddde729e61ed45c55cebd8]
cluster guest_package--><g id="cluster_guest_package"><path d="M314.1,177 L357.3,177 A2.25,2.25 0 0 1 358.8,178.5 L363,190.493 L393.9,190.493 A1.5,1.5 0 0 1 395.4,191.993 L395.4,314.7 A1.5,1.5 0 0 1 393.9,316.2 L314.1,316.2 A1.5,1.5 0 0 1 312.6,314.7 L312.6,178.5 A1.5,1.5 0 0 1 314.1,177 " fill="#F0E442" style="stroke:#000000;stroke-width:0.8999999999999999;"/><line style="stroke:#000000;stroke-width:0.8999999999999999;" x1="312.6" x2="363" y1="190.493" y2="190.493"/><text fill="#000000" font-family="sans-serif" font-size="8.4" font-weight="bold" lengthAdjust="spacing" textLength="42.6" x="315" y="186.3211">ms-guest</text></g><!--MD5=[2e051986f4c41550e999345493d2c05f]
cluster folio_package--><g id="cluster_folio_package"><path d="M219.3,177 L258.9,177 A2.25,2.25 0 0 1 260.4,178.5 L264.6,190.493 L296.7,190.493 A1.5,1.5 0 0 1 298.2,191.993 L298.2,314.7 A1.5,1.5 0 0 1 296.7,316.2 L219.3,316.2 A1.5,1.5 0 0 1 217.8,314.7 L217.8,178.5 A1.5,1.5 0 0 1 219.3,177 " fill="#F0E442" style="stroke:#000000;stroke-width:0.8999999999999999;"/><line style="stroke:#000000;stroke-width:0.8999999999999999;" x1="217.8" x2="264.6" y1="190.493" y2="190.493"/><text fill="#000000" font-family="sans-serif" font-size="8.4" font-weight="bold" lengthAdjust="spacing" textLength="39" x="220.2" y="186.3211">ms-folio</text></g><!--MD5=[6335950ccef517345999595fcd67b7eb]
cluster IBM--><g id="cluster_IBM"><polygon fill="#DA70D6" points="225.6,351,231.6,345,465,345,465,614.4,459,620.4,225.6,620.4,225.6,351" style="stroke:#181818;stroke-width:0.6;"/><line style="stroke:#181818;stroke-width:0.6;" x1="459" x2="465" y1="351" y2="345"/><line style="stroke:#181818;stroke-width:0.6;" x1="225.6" x2="459" y1="351" y2="351"/><line style="stroke:#181818;stroke-width:0.6;" x1="459" x2="459" y1="351" y2="620.4"/><text fill="#000000" font-family="sans-serif" font-size="8.4" font-weight="bold" lengthAdjust="spacing" textLength="16.2" x="334.8" y="360.9211">IBM</text></g><!--MD5=[c5d0bdb92111ab1f7056b8d8fe221503]
cluster mdm_package--><g id="cluster_mdm_package"><path d="M246.3,378.6 L282.9,378.6 A2.25,2.25 0 0 1 284.4,380.1 L288.6,392.093 L362.1,392.093 A1.5,1.5 0 0 1 363.6,393.593 L363.6,599.7 A1.5,1.5 0 0 1 362.1,601.2 L246.3,601.2 A1.5,1.5 0 0 1 244.8,599.7 L244.8,380.1 A1.5,1.5 0 0 1 246.3,378.6 " fill="#F0E442" style="stroke:#000000;stroke-width:0.8999999999999999;"/><line style="stroke:#000000;stroke-width:0.8999999999999999;" x1="244.8" x2="288.6" y1="392.093" y2="392.093"/><text fill="#000000" font-family="sans-serif" font-size="8.4" font-weight="bold" lengthAdjust="spacing" textLength="36" x="247.2" y="387.9211">MDM AE</text></g><!--MD5=[06959a3f3cbea176f36acf10396f6fcf]
entity public--><g id="elem_public"><ellipse cx="258" cy="118.8" fill="#9ACD32" rx="4.8" ry="4.8" style="stroke:#181818;stroke-width:0.3;"/><text fill="#000000" font-family="sans-serif" font-size="8.4" lengthAdjust="spacing" textLength="25.2" x="245.4" y="137.1211">public</text></g><!--MD5=[85d3f8ffd301b42283bb9f0f23821f75]
entity ldap_dir--><g id="elem_ldap_dir"><path d="M102,199.2 L126.6,199.2 A2.25,2.25 0 0 1 128.1,200.7 L132.3,211.8 L177.6,211.8 A1.5,1.5 0 0 1 179.1,213.3 L179.1,230.393 A1.5,1.5 0 0 1 177.6,231.893 L102,231.893 A1.5,1.5 0 0 1 100.5,230.393 L100.5,200.7 A1.5,1.5 0 0 1 102,199.2 " fill="#F1F1F1" style="stroke:#181818;stroke-width:0.3;"/><line style="stroke:#181818;stroke-width:0.3;" x1="100.5" x2="132.3" y1="211.8" y2="211.8"/><text fill="#000000" font-family="sans-serif" font-size="8.4" lengthAdjust="spacing" textLength="60.6" x="106.5" y="224.1211">LDAP Directory</text></g><!--MD5=[58fe32485a25c6dfb2b4de3b02168686]
entity authenticate--><g id="elem_authenticate"><ellipse cx="49.2" cy="215.4" fill="#F1F1F1" rx="4.8" ry="4.8" style="stroke:#181818;stroke-width:0.3;"/><text fill="#000000" font-family="sans-serif" font-size="8.4" lengthAdjust="spacing" textLength="51" x="23.7" y="233.7211">authenticate</text></g><!--MD5=[d0e2a5f97e7b84b4a52fc47ac0121b09]
entity android--><g id="elem_android"><rect fill="#F1F1F1" height="37.7859" rx="1.5" ry="1.5" style="stroke:#181818;stroke-width:0.3;" width="60.6" x="287.7" y="27.6"/><rect fill="#F1F1F1" height="6" style="stroke:#181818;stroke-width:0.3;" width="9" x="336.3" y="30.6"/><rect fill="#F1F1F1" height="1.2" style="stroke:#181818;stroke-width:0.3;" width="2.4" x="335.1" y="31.8"/><rect fill="#F1F1F1" height="1.2" style="stroke:#181818;stroke-width:0.3;" width="2.4" x="335.1" y="34.2"/><text fill="#000000" font-family="sans-serif" font-size="8.4" font-style="italic" lengthAdjust="spacing" textLength="36.6" x="296.7" y="47.7211">«mobile»</text><text fill="#000000" font-family="sans-serif" font-size="8.4" lengthAdjust="spacing" textLength="33.6" x="298.2" y="57.6141">Android</text></g><!--MD5=[be09490d94791046e3419ff8f61a31bb]
entity ios--><g id="elem_ios"><rect fill="#F1F1F1" height="37.7859" rx="1.5" ry="1.5" style="stroke:#181818;stroke-width:0.3;" width="60.6" x="206.1" y="27.6"/><rect fill="#F1F1F1" height="6" style="stroke:#181818;stroke-width:0.3;" width="9" x="254.7" y="30.6"/><rect fill="#F1F1F1" height="1.2" style="stroke:#181818;stroke-width:0.3;" width="2.4" x="253.5" y="31.8"/><rect fill="#F1F1F1" height="1.2" style="stroke:#181818;stroke-width:0.3;" width="2.4" x="253.5" y="34.2"/><text fill="#000000" font-family="sans-serif" font-size="8.4" font-style="italic" lengthAdjust="spacing" textLength="36.6" x="215.1" y="47.7211">«mobile»</text><text fill="#000000" font-family="sans-serif" font-size="8.4" lengthAdjust="spacing" textLength="13.8" x="226.5" y="57.6141">iOS</text></g><!--MD5=[08af8945a84acfe1eabc0963aa87c412]
entity web--><g id="elem_web"><rect fill="#F1F1F1" height="37.7859" rx="1.5" ry="1.5" style="stroke:#181818;stroke-width:0.3;" width="113.4" x="71.7" y="27.6"/><rect fill="#F1F1F1" height="6" style="stroke:#181818;stroke-width:0.3;" width="9" x="173.1" y="30.6"/><rect fill="#F1F1F1" height="1.2" style="stroke:#181818;stroke-width:0.3;" width="2.4" x="171.9" y="31.8"/><rect fill="#F1F1F1" height="1.2" style="stroke:#181818;stroke-width:0.3;" width="2.4" x="171.9" y="34.2"/><text fill="#000000" font-family="sans-serif" font-size="8.4" font-style="italic" lengthAdjust="spacing" textLength="52.8" x="99" y="47.7211">«public web»</text><text fill="#000000" font-family="sans-serif" font-size="8.4" lengthAdjust="spacing" textLength="89.4" x="80.7" y="57.6141">universalorlando.com</text></g><!--MD5=[95dd478b86db0b9ac73366f6568c523e]
entity teammember--><g id="elem_teammember"><rect fill="#F1F1F1" height="37.7859" rx="1.5" ry="1.5" style="stroke:#181818;stroke-width:0.3;" width="108" x="369.6" y="27.6"/><rect fill="#F1F1F1" height="6" style="stroke:#181818;stroke-width:0.3;" width="9" x="465.6" y="30.6"/><rect fill="#F1F1F1" height="1.2" style="stroke:#181818;stroke-width:0.3;" width="2.4" x="464.4" y="31.8"/><rect fill="#F1F1F1" height="1.2" style="stroke:#181818;stroke-width:0.3;" width="2.4" x="464.4" y="34.2"/><text fill="#000000" font-family="sans-serif" font-size="8.4" font-style="italic" lengthAdjust="spacing" textLength="59.4" x="390.9" y="47.7211">«internal web»</text><text fill="#000000" font-family="sans-serif" font-size="8.4" lengthAdjust="spacing" textLength="84" x="378.6" y="57.6141">Team Member Tools</text></g><!--MD5=[f31fdf47782496e3b291617a4a20cca7]
entity guest_internal--><g id="elem_guest_internal"><ellipse cx="348" cy="215.4" fill="#3D8CFF" rx="4.8" ry="4.8" style="stroke:#181818;stroke-width:0.3;"/><text fill="#000000" font-family="sans-serif" font-size="8.4" lengthAdjust="spacing" textLength="31.8" x="332.1" y="233.7211">internal</text></g><!--MD5=[07febe21ee9876a65e3fd88a98b64d08]
entity ms_guest--><g id="elem_ms_guest"><rect fill="#F1F1F1" height="37.7859" rx="1.5" ry="1.5" style="stroke:#181818;stroke-width:0.3;" width="63.6" x="322.2" y="268.8"/><rect fill="#F1F1F1" height="6" style="stroke:#181818;stroke-width:0.3;" width="9" x="373.8" y="271.8"/><rect fill="#F1F1F1" height="1.2" style="stroke:#181818;stroke-width:0.3;" width="2.4" x="372.6" y="273"/><rect fill="#F1F1F1" height="1.2" style="stroke:#181818;stroke-width:0.3;" width="2.4" x="372.6" y="275.4"/><text fill="#000000" font-family="sans-serif" font-size="8.4" font-style="italic" lengthAdjust="spacing" textLength="36.6" x="332.7" y="288.9211">«service»</text><text fill="#000000" font-family="sans-serif" font-size="8.4" lengthAdjust="spacing" textLength="39.6" x="331.2" y="298.8141">ms-guest</text></g><!--MD5=[0cfc328824470a64df123b72f2dbbc39]
entity folio_internal--><g id="elem_folio_internal"><ellipse cx="258" cy="215.4" fill="#3D8CFF" rx="4.8" ry="4.8" style="stroke:#181818;stroke-width:0.3;"/><text fill="#000000" font-family="sans-serif" font-size="8.4" lengthAdjust="spacing" textLength="31.8" x="242.1" y="233.7211">internal</text></g><!--MD5=[65be68ba5797e53cc28f772aa742b9a5]
entity ms_folio--><g id="elem_ms_folio"><rect fill="#F1F1F1" height="37.7859" rx="1.5" ry="1.5" style="stroke:#181818;stroke-width:0.3;" width="60.6" x="227.7" y="268.8"/><rect fill="#F1F1F1" height="6" style="stroke:#181818;stroke-width:0.3;" width="9" x="276.3" y="271.8"/><rect fill="#F1F1F1" height="1.2" style="stroke:#181818;stroke-width:0.3;" width="2.4" x="275.1" y="273"/><rect fill="#F1F1F1" height="1.2" style="stroke:#181818;stroke-width:0.3;" width="2.4" x="275.1" y="275.4"/><text fill="#000000" font-family="sans-serif" font-size="8.4" font-style="italic" lengthAdjust="spacing" textLength="36.6" x="236.7" y="288.9211">«service»</text><text fill="#000000" font-family="sans-serif" font-size="8.4" lengthAdjust="spacing" textLength="35.4" x="237.3" y="298.8141">ms-folio</text></g><!--MD5=[2331507006b4b8bee4c616015350b23c]
entity db2--><g id="elem_db2"><path d="M378,555.3 C378,549.3 400.8,549.3 400.8,549.3 C400.8,549.3 423.6,549.3 423.6,555.3 L423.6,580.4859 C423.6,586.4859 400.8,586.4859 400.8,586.4859 C400.8,586.4859 378,586.4859 378,580.4859 L378,555.3 " fill="#FFFFF0" style="stroke:#000000;stroke-width:0.3;"/><path d="M378,555.3 C378,561.3 400.8,561.3 400.8,561.3 C400.8,561.3 423.6,561.3 423.6,555.3 " fill="none" style="stroke:#000000;stroke-width:0.3;"/><text fill="#000000" font-family="sans-serif" font-size="8.4" font-style="italic" lengthAdjust="spacing" textLength="24.6" x="388.5" y="571.8211">«DB2»</text><text fill="#000000" font-family="sans-serif" font-size="8.4" lengthAdjust="spacing" textLength="33.6" x="384" y="581.7141">MDM AE</text></g><!--MD5=[66085980fb25c92f71603a5f15be7374]
entity data_access--><g id="elem_data_access"><ellipse cx="450" cy="567.9" fill="#F1F1F1" rx="4.8" ry="4.8" style="stroke:#181818;stroke-width:0.3;"/><text fill="#000000" font-family="sans-serif" font-size="8.4" lengthAdjust="spacing" textLength="48.6" x="425.7" y="586.2211">Data Access</text></g><!--MD5=[a6fcae1b0bb86115d3670e6d135079c5]
entity mdm_internal--><g id="elem_mdm_internal"><ellipse cx="301.8" cy="421.8" fill="#3D8CFF" rx="4.8" ry="4.8" style="stroke:#181818;stroke-width:0.3;"/><text fill="#000000" font-family="sans-serif" font-size="8.4" lengthAdjust="spacing" textLength="31.8" x="285.9" y="440.1211">internal</text></g><!--MD5=[405b1b76be19e5378968a026940b4d18]
entity mdm--><g id="elem_mdm"><rect fill="#F1F1F1" height="37.7859" rx="1.5" ry="1.5" style="stroke:#181818;stroke-width:0.3;" width="79.2" x="262.2" y="475.2"/><rect fill="#F1F1F1" height="6" style="stroke:#181818;stroke-width:0.3;" width="9" x="329.4" y="478.2"/><rect fill="#F1F1F1" height="1.2" style="stroke:#181818;stroke-width:0.3;" width="2.4" x="328.2" y="479.4"/><rect fill="#F1F1F1" height="1.2" style="stroke:#181818;stroke-width:0.3;" width="2.4" x="328.2" y="481.8"/><text fill="#000000" font-family="sans-serif" font-size="8.4" font-style="italic" lengthAdjust="spacing" textLength="55.2" x="271.2" y="495.3211">«component»</text><text fill="#000000" font-family="sans-serif" font-size="8.4" lengthAdjust="spacing" textLength="42.6" x="277.5" y="505.2141">MDM Core</text></g><!--MD5=[9da4f503ff78b8d9a7d83b6ce15996cd]
entity match_merge--><g id="elem_match_merge"><rect fill="#F1F1F1" height="37.7859" rx="1.5" ry="1.5" style="stroke:#181818;stroke-width:0.3;" width="85.2" x="259.2" y="549"/><rect fill="#F1F1F1" height="6" style="stroke:#181818;stroke-width:0.3;" width="9" x="332.4" y="552"/><rect fill="#F1F1F1" height="1.2" style="stroke:#181818;stroke-width:0.3;" width="2.4" x="331.2" y="553.2"/><rect fill="#F1F1F1" height="1.2" style="stroke:#181818;stroke-width:0.3;" width="2.4" x="331.2" y="555.6"/><text fill="#000000" font-family="sans-serif" font-size="8.4" font-style="italic" lengthAdjust="spacing" textLength="55.2" x="271.2" y="569.1211">«component»</text><text fill="#000000" font-family="sans-serif" font-size="8.4" lengthAdjust="spacing" textLength="61.2" x="268.2" y="579.0141">Match &amp; Merge</text></g><!--MD5=[741f803b0826940167ea2a9cc6fd3e1f]
entity data_lake--><g id="elem_data_lake"><polygon fill="#87CEFA" points="476.4,560.1,482.4,554.1,540,554.1,540,575.993,534,581.993,476.4,581.993,476.4,560.1" style="stroke:#181818;stroke-width:0.3;"/><line style="stroke:#181818;stroke-width:0.3;" x1="534" x2="540" y1="560.1" y2="554.1"/><line style="stroke:#181818;stroke-width:0.3;" x1="476.4" x2="534" y1="560.1" y2="560.1"/><line style="stroke:#181818;stroke-width:0.3;" x1="534" x2="534" y1="560.1" y2="581.993"/><text fill="#000000" font-family="sans-serif" font-size="8.4" lengthAdjust="spacing" textLength="39.6" x="485.4" y="574.2211">Data Lake</text></g><!--MD5=[d27ec4ec336a7214b286012dbaabf1f3]
link guest_internal to ms_guest--><g id="link_guest_internal_ms_guest"><path d="M348.414,220.884 C349.23,230.58 351.096,252.69 352.446,268.698 " fill="none" id="guest_internal-ms_guest" style="stroke:#181818;stroke-width:0.6;"/></g><!--MD5=[806bb599b1cef24f71b77f282c942852]
link folio_internal to ms_folio--><g id="link_folio_internal_ms_folio"><path d="M258,220.884 C258,230.58 258,252.69 258,268.698 " fill="none" id="folio_internal-ms_folio" style="stroke:#181818;stroke-width:0.6;"/></g><!--MD5=[ff2c8ffe4ac8a7023e5f9019dae9d8ea]
link mdm_internal to mdm--><g id="link_mdm_internal_mdm"><path d="M301.8,427.284 C301.8,436.98 301.8,459.09 301.8,475.098 " fill="none" id="mdm_internal-mdm" style="stroke:#181818;stroke-width:0.6;"/></g><!--MD5=[3ad645b36e0682e35fcd146811f96dd6]
link mdm to match_merge--><g id="link_mdm_match_merge"><path d="M301.8,513.018 C301.8,522.996 301.8,535.392 301.8,545.82 " fill="none" id="mdm-to-match_merge" style="stroke:#181818;stroke-width:0.6;"/><polygon fill="#181818" points="301.8,548.988,304.2,543.588,301.8,545.988,299.4,543.588,301.8,548.988" style="stroke:#181818;stroke-width:0.6;"/></g><!--MD5=[7cfff68bcc2716ad4181fc1863047860]
link mdm_package to db2--><g id="link_mdm_package_db2"><path d="M363.7195,439.3726 C363.8023,439.6582 363.8859,439.9467 363.9704,440.2381 C364.3082,441.4033 364.659,442.6135 365.0217,443.8648 C365.7471,446.3674 366.5202,449.0345 367.3323,451.8362 C368.9565,457.4395 370.7366,463.5808 372.603,470.0198 C380.0685,495.7755 388.914,526.293 394.68,546.186 " fill="none" id="mdm_package-to-db2" style="stroke:#181818;stroke-width:0.6;stroke-dasharray:7.0,7.0;"/><polygon fill="#181818" points="395.556,549.21,396.3641,543.3562,394.7239,546.3277,391.7524,544.6875,395.556,549.21" style="stroke:#181818;stroke-width:0.6;"/></g><!--MD5=[a00e3b328ec6eb930c807630108aa710]
link android to public--><g id="link_android_public"><path d="M302.55,65.412 C290.97,79.128 275.58,97.368 266.25,108.42 " fill="none" id="android-to-public" style="stroke:#181818;stroke-width:0.6;"/><path d="M267.2701,115.0785 A5.4,5.4 0 0 0 259.5107 108.5373" fill="none" style="stroke:#181818;stroke-width:0.8999999999999999;"/></g><!--MD5=[b6e357b018622cc2c3a198e565c63111]
link ios to public--><g id="link_ios_public"><path d="M241.962,65.412 C246,78.69 251.322,96.21 254.7,107.346 " fill="none" id="ios-to-public" style="stroke:#181818;stroke-width:0.6;"/><path d="M260.8044,109.9751 A5.4,5.4 0 0 0 251.0957 112.9312" fill="none" style="stroke:#181818;stroke-width:0.8999999999999999;"/></g><!--MD5=[ecb94a0cf9f4839855044905b2ff185b]
link web to public--><g id="link_web_public"><path d="M161.778,65.412 C189.93,80.856 228.522,102.03 247.116,112.23 " fill="none" id="web-to-public" style="stroke:#181818;stroke-width:0.6;"/><path d="M253.2305,109.797 A5.4,5.4 0 0 0 248.3474 118.6937" fill="none" style="stroke:#181818;stroke-width:0.8999999999999999;"/></g><!--MD5=[c9dad59e6393349c0842912da04d4439]
link teammember to public--><g id="link_teammember_public"><path d="M388.944,65.418 C379.278,70.296 368.712,75.426 358.8,79.8 C326.922,93.87 288.138,107.772 269.322,114.318 " fill="none" id="teammember-to-public" style="stroke:#181818;stroke-width:0.6;"/><path d="M266.9426,120.5123 A5.4,5.4 0 0 0 263.6378 110.9168" fill="none" style="stroke:#181818;stroke-width:0.8999999999999999;"/></g><!--MD5=[0b7dc5e39426026a544a753026833882]
link public to guest_internal--><g id="link_public_guest_internal"><path d="M263.424,121.728 C271.626,125.442 287.376,133.314 298.2,143.4 C318.126,161.964 334.674,189.762 342.726,204.606 " fill="none" id="public-to-guest_internal" style="stroke:#181818;stroke-width:0.6;"/><path d="M349.1743,205.9297 A5.4,5.4 0 0 0 340.21 210.6875" fill="none" style="stroke:#181818;stroke-width:0.8999999999999999;"/></g><!--MD5=[f3ed6b0365a3977560961ae6db5ce450]
link public to folio_internal--><g id="link_public_folio_internal"><path d="M258,124.26 C258,138.93 258,183.012 258,203.766 " fill="none" id="public-to-folio_internal" style="stroke:#181818;stroke-width:0.6;"/><path d="M263.0743,207.9851 A5.4,5.4 0 0 0 252.9257 207.9851" fill="none" style="stroke:#181818;stroke-width:0.8999999999999999;"/></g><!--MD5=[6914c2f7e06c4019d68da8e561d31f22]
link ms_guest to mdm_internal--><g id="link_ms_guest_mdm_internal"><path d="M342.12,306.726 C336.252,316.404 329.418,328.632 324.6,340.2 C314.514,364.398 307.368,394.47 303.99,410.292 " fill="none" id="ms_guest-to-mdm_internal" style="stroke:#181818;stroke-width:0.6;"/><path d="M308.0854,415.536 A5.4,5.4 0 0 0 298.1474 413.4789" fill="none" style="stroke:#181818;stroke-width:0.8999999999999999;"/></g><!--MD5=[12f36fd617830bbbdcbcfcb50523ada0]
link ms_folio to mdm_internal--><g id="link_ms_folio_mdm_internal"><path d="M264.09,306.78 C273.378,334.95 290.778,387.756 298.248,410.418 " fill="none" id="ms_folio-to-mdm_internal" style="stroke:#181818;stroke-width:0.6;"/><path d="M304.392,412.8545 A5.4,5.4 0 0 0 294.7526 416.029" fill="none" style="stroke:#181818;stroke-width:0.8999999999999999;"/></g><!--MD5=[a6fa9435821ce293024e9024b662c6d5]
link public to authenticate--><g id="link_public_authenticate"><path d="M252.582,119.544 C226.902,120.33 117.48,124.734 90,143.4 C68.508,158.004 56.952,187.932 52.068,204.012 " fill="none" id="public-to-authenticate" style="stroke:#181818;stroke-width:0.6;"/><path d="M55.7618,209.5787 A5.4,5.4 0 0 0 45.9987 206.8079" fill="none" style="stroke:#181818;stroke-width:0.8999999999999999;"/></g><!--MD5=[958e18b0bfb9a904435d32284ca4be47]
link db2 to data_access--><g id="link_db2_data_access"><path d="M423.672,567.9 C430.596,567.9 437.52,567.9 444.444,567.9 " fill="none" id="db2-data_access" style="stroke:#181818;stroke-width:0.6;"/></g><!--MD5=[955e68c820382e32149c6d1b48e38f9e]
reverse link data_access to data_lake--><g id="link_data_access_data_lake"><path d="M461.472,567.9 C466.404,567.9 471.336,567.9 476.268,567.9 " fill="none" id="data_access-backto-data_lake" style="stroke:#181818;stroke-width:0.6;"/><path d="M457.3009,572.9743 A5.4,5.4 0 0 0 457.3009 562.8257" fill="none" style="stroke:#181818;stroke-width:0.8999999999999999;"/></g><!--MD5=[6714b98dcae61cf2c8ec4e55deedd49e]
@startuml

skinparam database {
    backgroundColor Ivory
    borderColor black
}

skinparam package {
    backgroundColor #F0E442
}

node "API Gateway" as gateway {
    interface public #YellowGreen
}

node "LDAP" as ldap <<ldap>> #BurlyWood {
    folder "LDAP Directory" as ldap_dir
    interface authenticate
}

node "UI" #Strategy {
    component "Android" as android <<mobile>>
    component "iOS" as ios <<mobile>>
    component "universalorlando.com" as web <<public web>>
    component "Team Member Tools" as teammember <<internal web>>
}

node "Microservices" #MediumTurquoise {

    package "ms-guest" as guest_package {
        interface internal as guest_internal #3D8CFF
        component "ms-guest" as ms_guest <<service>>
        guest_internal - - ms_guest
    }
    package "ms-folio" as folio_package #F0E442 {
        interface internal as folio_internal #3D8CFF
        component "ms-folio" as ms_folio <<service>>
        folio_internal - - ms_folio
    }
}

node "IBM" #Orchid {
    package "MDM AE" as mdm_package {
        interface internal as mdm_internal #3D8CFF
        component "MDM Core" as mdm <<component>>
        component "Match & Merge" as match_merge <<component>>
    }
    database "MDM AE" as db2 <<DB2>>
    mdm_internal - - mdm
    mdm - -> match_merge
    mdm_package - -.> db2

    interface "Data Access" as data_access
}

node "Data Lake" as data_lake #LightSkyBlue

'UI'
android - -( public
ios - -( public
web - -( public
teammember -right-( public

'Gateway'
public - -( guest_internal
public - -( folio_internal

'MS'
ms_guest - -( mdm_internal
ms_folio - -( mdm_internal

'LDAP'
public - -( authenticate

'Data Lake'
db2 -right- data_access
data_lake -left-( data_access

'[Another Component] - -> [Example 1]
'[Example 1] - -> [Folder 3]
'[Folder 3] - -> [Frame 4]

@enduml

@startuml

skinparam database {
    backgroundColor Ivory
    borderColor black
}

skinparam package {
    backgroundColor #F0E442
}

node "API Gateway" as gateway {
    interface public #YellowGreen
}

node "LDAP" as ldap <<ldap>> #BurlyWood {
    folder "LDAP Directory" as ldap_dir
    interface authenticate
}

node "UI" #Strategy {
    component "Android" as android <<mobile>>
    component "iOS" as ios <<mobile>>
    component "universalorlando.com" as web <<public web>>
    component "Team Member Tools" as teammember <<internal web>>
}

node "Microservices" #MediumTurquoise {

    package "ms-guest" as guest_package {
        interface internal as guest_internal #3D8CFF
        component "ms-guest" as ms_guest <<service>>
        guest_internal - - ms_guest
    }
    package "ms-folio" as folio_package #F0E442 {
        interface internal as folio_internal #3D8CFF
        component "ms-folio" as ms_folio <<service>>
        folio_internal - - ms_folio
    }
}

node "IBM" #Orchid {
    package "MDM AE" as mdm_package {
        interface internal as mdm_internal #3D8CFF
        component "MDM Core" as mdm <<component>>
        component "Match & Merge" as match_merge <<component>>
    }
    database "MDM AE" as db2 <<DB2>>
    mdm_internal - - mdm
    mdm - -> match_merge
    mdm_package - -.> db2

    interface "Data Access" as data_access
}

node "Data Lake" as data_lake #LightSkyBlue

android - -( public
ios - -( public
web - -( public
teammember -right-( public

public - -( guest_internal
public - -( folio_internal

ms_guest - -( mdm_internal
ms_folio - -( mdm_internal

public - -( authenticate

db2 -right- data_access
data_lake -left-( data_access


@enduml

PlantUML version 1.2022.7(Mon Aug 22 13:01:30 EDT 2022)
(GPL source distribution)
Java Runtime: OpenJDK Runtime Environment
JVM: OpenJDK 64-Bit Server VM
Default Encoding: UTF-8
Language: en
Country: US
--></g></svg>