<?xml version="1.0" encoding="UTF-8" standalone="no"?><svg xmlns="http://www.w3.org/2000/svg" xmlns:xlink="http://www.w3.org/1999/xlink" contentStyleType="text/css" height="1030px" preserveAspectRatio="none" style="width:742px;height:1030px;background:#FFFFFF;" version="1.1" viewBox="0 0 742 1030" width="742px" zoomAndPan="magnify"><defs/><g><!--MD5=[1feb5a0622a9211287ff216bc4a47e33]
cluster ldap--><g id="cluster_ldap"><polygon fill="#DEB887" points="488,378,498,368,687,368,687,500,677,510,488,510,488,378" style="stroke:#181818;stroke-width:1.0;"/><line style="stroke:#181818;stroke-width:1.0;" x1="677" x2="687" y1="378" y2="368"/><line style="stroke:#181818;stroke-width:1.0;" x1="488" x2="677" y1="378" y2="378"/><line style="stroke:#181818;stroke-width:1.0;" x1="677" x2="677" y1="378" y2="510"/><text fill="#000000" font-family="sans-serif" font-size="14" font-style="italic" lengthAdjust="spacing" textLength="44" x="561.5" y="394.5352">«ldap»</text><text fill="#000000" font-family="sans-serif" font-size="14" font-weight="bold" lengthAdjust="spacing" textLength="38" x="564.5" y="411.0234">LDAP</text></g><!--MD5=[9681dc6e01e10c6b4fe06895ae94f592]
cluster UI--><g id="cluster_UI"><polygon fill="#F8E7C0" points="16,16,26,6,725,6,725,115,715,125,16,125,16,16" style="stroke:#181818;stroke-width:1.0;"/><line style="stroke:#181818;stroke-width:1.0;" x1="715" x2="725" y1="16" y2="6"/><line style="stroke:#181818;stroke-width:1.0;" x1="16" x2="715" y1="16" y2="16"/><line style="stroke:#181818;stroke-width:1.0;" x1="715" x2="715" y1="16" y2="125"/><text fill="#000000" font-family="sans-serif" font-size="14" font-weight="bold" lengthAdjust="spacing" textLength="15" x="359" y="32.5352">UI</text></g><!--MD5=[f72e8905bd6e3a370cb106f12698fafd]
cluster Microservices--><g id="cluster_Microservices"><polygon fill="#48D1CC" points="86,213,96,203,430,203,430,520.5,420,530.5,86,530.5,86,213" style="stroke:#181818;stroke-width:1.0;"/><line style="stroke:#181818;stroke-width:1.0;" x1="420" x2="430" y1="213" y2="203"/><line style="stroke:#181818;stroke-width:1.0;" x1="86" x2="420" y1="213" y2="213"/><line style="stroke:#181818;stroke-width:1.0;" x1="420" x2="420" y1="213" y2="530.5"/><text fill="#000000" font-family="sans-serif" font-size="14" font-weight="bold" lengthAdjust="spacing" textLength="98" x="205" y="229.5352">Microservices</text></g><!--MD5=[47b50930d2ddde729e61ed45c55cebd8]
cluster guest_package--><g id="cluster_guest_package"><path d="M270.5,251 L342.5,251 A3.75,3.75 0 0 1 345,253.5 L352,273.4883 L403.5,273.4883 A2.5,2.5 0 0 1 406,275.9883 L406,504 A2.5,2.5 0 0 1 403.5,506.5 L270.5,506.5 A2.5,2.5 0 0 1 268,504 L268,253.5 A2.5,2.5 0 0 1 270.5,251 " fill="#F0E442" style="stroke:#000000;stroke-width:1.5;"/><line style="stroke:#000000;stroke-width:1.5;" x1="268" x2="352" y1="273.4883" y2="273.4883"/><text fill="#000000" font-family="sans-serif" font-size="14" font-weight="bold" lengthAdjust="spacing" textLength="71" x="272" y="266.5352">ms-guest</text></g><!--MD5=[2e051986f4c41550e999345493d2c05f]
cluster folio_package--><g id="cluster_folio_package"><path d="M112.5,251 L178.5,251 A3.75,3.75 0 0 1 181,253.5 L188,273.4883 L241.5,273.4883 A2.5,2.5 0 0 1 244,275.9883 L244,504 A2.5,2.5 0 0 1 241.5,506.5 L112.5,506.5 A2.5,2.5 0 0 1 110,504 L110,253.5 A2.5,2.5 0 0 1 112.5,251 " fill="#F0E442" style="stroke:#000000;stroke-width:1.5;"/><line style="stroke:#000000;stroke-width:1.5;" x1="110" x2="188" y1="273.4883" y2="273.4883"/><text fill="#000000" font-family="sans-serif" font-size="14" font-weight="bold" lengthAdjust="spacing" textLength="65" x="114" y="266.5352">ms-folio</text></g><!--MD5=[6335950ccef517345999595fcd67b7eb]
cluster IBM--><g id="cluster_IBM"><polygon fill="#DA70D6" points="130,564.5,140,554.5,529,554.5,529,1003.5,519,1013.5,130,1013.5,130,564.5" style="stroke:#181818;stroke-width:1.0;"/><line style="stroke:#181818;stroke-width:1.0;" x1="519" x2="529" y1="564.5" y2="554.5"/><line style="stroke:#181818;stroke-width:1.0;" x1="130" x2="519" y1="564.5" y2="564.5"/><line style="stroke:#181818;stroke-width:1.0;" x1="519" x2="519" y1="564.5" y2="1013.5"/><text fill="#000000" font-family="sans-serif" font-size="14" font-weight="bold" lengthAdjust="spacing" textLength="27" x="312" y="581.0352">IBM</text></g><!--MD5=[c5d0bdb92111ab1f7056b8d8fe221503]
cluster mdm_package--><g id="cluster_mdm_package"><path d="M164.5,610.5 L225.5,610.5 A3.75,3.75 0 0 1 228,613 L235,632.9883 L357.5,632.9883 A2.5,2.5 0 0 1 360,635.4883 L360,979 A2.5,2.5 0 0 1 357.5,981.5 L164.5,981.5 A2.5,2.5 0 0 1 162,979 L162,613 A2.5,2.5 0 0 1 164.5,610.5 " fill="#F0E442" style="stroke:#000000;stroke-width:1.5;"/><line style="stroke:#000000;stroke-width:1.5;" x1="162" x2="235" y1="632.9883" y2="632.9883"/><text fill="#000000" font-family="sans-serif" font-size="14" font-weight="bold" lengthAdjust="spacing" textLength="60" x="166" y="626.0352">MDM AE</text></g><!--MD5=[85d3f8ffd301b42283bb9f0f23821f75]
entity ldap_dir--><g id="elem_ldap_dir"><path d="M534,432 L575,432 A3.75,3.75 0 0 1 577.5,434.5 L584.5,453 L660,453 A2.5,2.5 0 0 1 662.5,455.5 L662.5,483.9883 A2.5,2.5 0 0 1 660,486.4883 L534,486.4883 A2.5,2.5 0 0 1 531.5,483.9883 L531.5,434.5 A2.5,2.5 0 0 1 534,432 " fill="#F1F1F1" style="stroke:#181818;stroke-width:0.5;"/><line style="stroke:#181818;stroke-width:0.5;" x1="531.5" x2="584.5" y1="453" y2="453"/><text fill="#000000" font-family="sans-serif" font-size="14" lengthAdjust="spacing" textLength="101" x="541.5" y="473.5352">LDAP Directory</text></g><!--MD5=[d0e2a5f97e7b84b4a52fc47ac0121b09]
entity android--><g id="elem_android"><rect fill="#F1F1F1" height="62.9766" rx="2.5" ry="2.5" style="stroke:#181818;stroke-width:0.5;" width="101" x="392.5" y="46"/><rect fill="#F1F1F1" height="10" style="stroke:#181818;stroke-width:0.5;" width="15" x="473.5" y="51"/><rect fill="#F1F1F1" height="2" style="stroke:#181818;stroke-width:0.5;" width="4" x="471.5" y="53"/><rect fill="#F1F1F1" height="2" style="stroke:#181818;stroke-width:0.5;" width="4" x="471.5" y="57"/><text fill="#000000" font-family="sans-serif" font-size="14" font-style="italic" lengthAdjust="spacing" textLength="61" x="407.5" y="79.5352">«mobile»</text><text fill="#000000" font-family="sans-serif" font-size="14" lengthAdjust="spacing" textLength="56" x="410" y="96.0234">Android</text></g><!--MD5=[be09490d94791046e3419ff8f61a31bb]
entity ios--><g id="elem_ios"><rect fill="#F1F1F1" height="62.9766" rx="2.5" ry="2.5" style="stroke:#181818;stroke-width:0.5;" width="101" x="256.5" y="46"/><rect fill="#F1F1F1" height="10" style="stroke:#181818;stroke-width:0.5;" width="15" x="337.5" y="51"/><rect fill="#F1F1F1" height="2" style="stroke:#181818;stroke-width:0.5;" width="4" x="335.5" y="53"/><rect fill="#F1F1F1" height="2" style="stroke:#181818;stroke-width:0.5;" width="4" x="335.5" y="57"/><text fill="#000000" font-family="sans-serif" font-size="14" font-style="italic" lengthAdjust="spacing" textLength="61" x="271.5" y="79.5352">«mobile»</text><text fill="#000000" font-family="sans-serif" font-size="14" lengthAdjust="spacing" textLength="23" x="290.5" y="96.0234">iOS</text></g><!--MD5=[08af8945a84acfe1eabc0963aa87c412]
entity web--><g id="elem_web"><rect fill="#F1F1F1" height="62.9766" rx="2.5" ry="2.5" style="stroke:#181818;stroke-width:0.5;" width="189" x="32.5" y="46"/><rect fill="#F1F1F1" height="10" style="stroke:#181818;stroke-width:0.5;" width="15" x="201.5" y="51"/><rect fill="#F1F1F1" height="2" style="stroke:#181818;stroke-width:0.5;" width="4" x="199.5" y="53"/><rect fill="#F1F1F1" height="2" style="stroke:#181818;stroke-width:0.5;" width="4" x="199.5" y="57"/><text fill="#000000" font-family="sans-serif" font-size="14" font-style="italic" lengthAdjust="spacing" textLength="88" x="78" y="79.5352">«public web»</text><text fill="#000000" font-family="sans-serif" font-size="14" lengthAdjust="spacing" textLength="149" x="47.5" y="96.0234">universalorlando.com</text></g><!--MD5=[95dd478b86db0b9ac73366f6568c523e]
entity teammember--><g id="elem_teammember"><rect fill="#F1F1F1" height="62.9766" rx="2.5" ry="2.5" style="stroke:#181818;stroke-width:0.5;" width="180" x="529" y="46"/><rect fill="#F1F1F1" height="10" style="stroke:#181818;stroke-width:0.5;" width="15" x="689" y="51"/><rect fill="#F1F1F1" height="2" style="stroke:#181818;stroke-width:0.5;" width="4" x="687" y="53"/><rect fill="#F1F1F1" height="2" style="stroke:#181818;stroke-width:0.5;" width="4" x="687" y="57"/><text fill="#000000" font-family="sans-serif" font-size="14" font-style="italic" lengthAdjust="spacing" textLength="99" x="564.5" y="79.5352">«internal web»</text><text fill="#000000" font-family="sans-serif" font-size="14" lengthAdjust="spacing" textLength="140" x="544" y="96.0234">Team Member Tools</text></g><!--MD5=[f31fdf47782496e3b291617a4a20cca7]
entity guest_internal--><g id="elem_guest_internal"><ellipse cx="337" cy="315" fill="#3D8CFF" rx="8" ry="8" style="stroke:#181818;stroke-width:0.5;"/><text fill="#000000" font-family="sans-serif" font-size="14" lengthAdjust="spacing" textLength="53" x="310.5" y="345.5352">internal</text></g><!--MD5=[07febe21ee9876a65e3fd88a98b64d08]
entity ms_guest--><g id="elem_ms_guest"><rect fill="#F1F1F1" height="62.9766" rx="2.5" ry="2.5" style="stroke:#181818;stroke-width:0.5;" width="106" x="284" y="427.5"/><rect fill="#F1F1F1" height="10" style="stroke:#181818;stroke-width:0.5;" width="15" x="370" y="432.5"/><rect fill="#F1F1F1" height="2" style="stroke:#181818;stroke-width:0.5;" width="4" x="368" y="434.5"/><rect fill="#F1F1F1" height="2" style="stroke:#181818;stroke-width:0.5;" width="4" x="368" y="438.5"/><text fill="#000000" font-family="sans-serif" font-size="14" font-style="italic" lengthAdjust="spacing" textLength="61" x="301.5" y="461.0352">«service»</text><text fill="#000000" font-family="sans-serif" font-size="14" lengthAdjust="spacing" textLength="66" x="299" y="477.5234">ms-guest</text></g><!--MD5=[0cfc328824470a64df123b72f2dbbc39]
entity folio_internal--><g id="elem_folio_internal"><ellipse cx="185" cy="315" fill="#3D8CFF" rx="8" ry="8" style="stroke:#181818;stroke-width:0.5;"/><text fill="#000000" font-family="sans-serif" font-size="14" lengthAdjust="spacing" textLength="53" x="158.5" y="345.5352">internal</text></g><!--MD5=[65be68ba5797e53cc28f772aa742b9a5]
entity ms_folio--><g id="elem_ms_folio"><rect fill="#F1F1F1" height="62.9766" rx="2.5" ry="2.5" style="stroke:#181818;stroke-width:0.5;" width="101" x="126.5" y="427.5"/><rect fill="#F1F1F1" height="10" style="stroke:#181818;stroke-width:0.5;" width="15" x="207.5" y="432.5"/><rect fill="#F1F1F1" height="2" style="stroke:#181818;stroke-width:0.5;" width="4" x="205.5" y="434.5"/><rect fill="#F1F1F1" height="2" style="stroke:#181818;stroke-width:0.5;" width="4" x="205.5" y="438.5"/><text fill="#000000" font-family="sans-serif" font-size="14" font-style="italic" lengthAdjust="spacing" textLength="61" x="141.5" y="461.0352">«service»</text><text fill="#000000" font-family="sans-serif" font-size="14" lengthAdjust="spacing" textLength="59" x="142.5" y="477.5234">ms-folio</text></g><!--MD5=[2331507006b4b8bee4c616015350b23c]
entity db2--><g id="elem_db2"><path d="M384,905 C384,895 422,895 422,895 C422,895 460,895 460,905 L460,946.9766 C460,956.9766 422,956.9766 422,956.9766 C422,956.9766 384,956.9766 384,946.9766 L384,905 " fill="#FFFFF0" style="stroke:#000000;stroke-width:0.5;"/><path d="M384,905 C384,915 422,915 422,915 C422,915 460,915 460,905 " fill="none" style="stroke:#000000;stroke-width:0.5;"/><text fill="#000000" font-family="sans-serif" font-size="14" font-style="italic" lengthAdjust="spacing" textLength="41" x="401.5" y="932.5352">«DB2»</text><text fill="#000000" font-family="sans-serif" font-size="14" lengthAdjust="spacing" textLength="56" x="394" y="949.0234">MDM AE</text></g><!--MD5=[66085980fb25c92f71603a5f15be7374]
entity data_access--><g id="elem_data_access"><ellipse cx="504" cy="926" fill="#F1F1F1" rx="8" ry="8" style="stroke:#181818;stroke-width:0.5;"/><text fill="#000000" font-family="sans-serif" font-size="14" lengthAdjust="spacing" textLength="81" x="463.5" y="956.5352">Data Access</text></g><!--MD5=[a6fcae1b0bb86115d3670e6d135079c5]
entity mdm_internal--><g id="elem_mdm_internal"><ellipse cx="257" cy="682.5" fill="#3D8CFF" rx="8" ry="8" style="stroke:#181818;stroke-width:0.5;"/><text fill="#000000" font-family="sans-serif" font-size="14" lengthAdjust="spacing" textLength="53" x="230.5" y="713.0352">internal</text></g><!--MD5=[405b1b76be19e5378968a026940b4d18]
entity mdm--><g id="elem_mdm"><rect fill="#F1F1F1" height="62.9766" rx="2.5" ry="2.5" style="stroke:#181818;stroke-width:0.5;" width="132" x="191" y="771.5"/><rect fill="#F1F1F1" height="10" style="stroke:#181818;stroke-width:0.5;" width="15" x="303" y="776.5"/><rect fill="#F1F1F1" height="2" style="stroke:#181818;stroke-width:0.5;" width="4" x="301" y="778.5"/><rect fill="#F1F1F1" height="2" style="stroke:#181818;stroke-width:0.5;" width="4" x="301" y="782.5"/><text fill="#000000" font-family="sans-serif" font-size="14" font-style="italic" lengthAdjust="spacing" textLength="92" x="206" y="805.0352">«component»</text><text fill="#000000" font-family="sans-serif" font-size="14" lengthAdjust="spacing" textLength="71" x="216.5" y="821.5234">MDM Core</text></g><!--MD5=[9da4f503ff78b8d9a7d83b6ce15996cd]
entity match_merge--><g id="elem_match_merge"><rect fill="#F1F1F1" height="62.9766" rx="2.5" ry="2.5" style="stroke:#181818;stroke-width:0.5;" width="142" x="186" y="894.5"/><rect fill="#F1F1F1" height="10" style="stroke:#181818;stroke-width:0.5;" width="15" x="308" y="899.5"/><rect fill="#F1F1F1" height="2" style="stroke:#181818;stroke-width:0.5;" width="4" x="306" y="901.5"/><rect fill="#F1F1F1" height="2" style="stroke:#181818;stroke-width:0.5;" width="4" x="306" y="905.5"/><text fill="#000000" font-family="sans-serif" font-size="14" font-style="italic" lengthAdjust="spacing" textLength="92" x="206" y="928.0352">«component»</text><text fill="#000000" font-family="sans-serif" font-size="14" lengthAdjust="spacing" textLength="102" x="201" y="944.5234">Match &amp; Merge</text></g><!--MD5=[7b30460008fc71f9986330c33ee2d290]
entity gateway--><g id="elem_gateway"><ellipse cx="337" cy="178" fill="#9ACD32" rx="8" ry="8" style="stroke:#181818;stroke-width:0.5;"/><text fill="#000000" font-family="sans-serif" font-size="14" lengthAdjust="spacing" textLength="56" x="309" y="208.5352">gateway</text></g><!--MD5=[58fe32485a25c6dfb2b4de3b02168686]
entity authenticate--><g id="elem_authenticate"><ellipse cx="496" cy="315" fill="#FF0000" rx="8" ry="8" style="stroke:#181818;stroke-width:0.5;"/><text fill="#000000" font-family="sans-serif" font-size="14" lengthAdjust="spacing" textLength="85" x="453.5" y="345.5352">authenticate</text></g><!--MD5=[741f803b0826940167ea2a9cc6fd3e1f]
entity data_lake--><g id="elem_data_lake"><rect fill="#F1F1F1" height="46.4883" rx="2.5" ry="2.5" style="stroke:#181818;stroke-width:0.5;" width="106" x="545" y="780"/><rect fill="#F1F1F1" height="10" style="stroke:#181818;stroke-width:0.5;" width="15" x="631" y="785"/><rect fill="#F1F1F1" height="2" style="stroke:#181818;stroke-width:0.5;" width="4" x="629" y="787"/><rect fill="#F1F1F1" height="2" style="stroke:#181818;stroke-width:0.5;" width="4" x="629" y="791"/><text fill="#000000" font-family="sans-serif" font-size="14" lengthAdjust="spacing" textLength="66" x="560" y="813.5352">Data Lake</text></g><!--MD5=[d27ec4ec336a7214b286012dbaabf1f3]
link guest_internal to ms_guest--><g id="link_guest_internal_ms_guest"><path d="M337,324.04 C337,343.58 337,394.37 337,427.49 " fill="none" id="guest_internal-ms_guest" style="stroke:#181818;stroke-width:1.0;"/></g><!--MD5=[806bb599b1cef24f71b77f282c942852]
link folio_internal to ms_folio--><g id="link_folio_internal_ms_folio"><path d="M184.55,324.04 C183.45,343.58 180.58,394.37 178.72,427.49 " fill="none" id="folio_internal-ms_folio" style="stroke:#181818;stroke-width:1.0;"/></g><!--MD5=[ff2c8ffe4ac8a7023e5f9019dae9d8ea]
link mdm_internal to mdm--><g id="link_mdm_internal_mdm"><path d="M257,691.64 C257,707.8 257,744.65 257,771.33 " fill="none" id="mdm_internal-mdm" style="stroke:#181818;stroke-width:1.0;"/></g><!--MD5=[3ad645b36e0682e35fcd146811f96dd6]
link mdm to match_merge--><g id="link_mdm_match_merge"><path d="M257,834.53 C257,851.16 257,871.82 257,889.2 " fill="none" id="mdm-to-match_merge" style="stroke:#181818;stroke-width:1.0;"/><polygon fill="#181818" points="257,894.48,261,885.48,257,889.48,253,885.48,257,894.48" style="stroke:#181818;stroke-width:1.0;"/></g><!--MD5=[7cfff68bcc2716ad4181fc1863047860]
link mdm_package to db2--><g id="link_mdm_package_db2"><path d="M360.1992,711.7877 C360.3372,712.2637 360.4766,712.7446 360.6173,713.2301 C361.1803,715.1722 361.7649,717.1891 362.3694,719.2746 C363.5785,723.4456 364.867,727.8909 366.2205,732.5603 C368.9275,741.8991 371.8944,752.1347 375.005,762.8663 C387.4475,805.7925 402.19,856.655 411.8,889.81 " fill="none" id="mdm_package-to-db2" style="stroke:#181818;stroke-width:1.0;stroke-dasharray:7.0,7.0;"/><polygon fill="#181818" points="413.26,894.85,414.6068,885.0937,411.8732,890.0462,406.9207,887.3126,413.26,894.85" style="stroke:#181818;stroke-width:1.0;"/></g><!--MD5=[72ec6d1f8a90e168d8cc7d8c78310f59]
link android to gateway--><g id="link_android_gateway"><path d="M410.04,109.13 C391.17,126.66 368.33,147.89 353.27,161.88 " fill="none" id="android-to-gateway" style="stroke:#181818;stroke-width:1.0;"/><path d="M353.7889,172.9558 A9,9 0 0 0 342.284 160.5567" fill="none" style="stroke:#181818;stroke-width:1.5;"/></g><!--MD5=[70011d888e820d831589a35534f2f817]
link ios to gateway--><g id="link_ios_gateway"><path d="M316.33,109.13 C321.32,125.52 327.3,145.15 331.54,159.08 " fill="none" id="ios-to-gateway" style="stroke:#181818;stroke-width:1.0;"/><path d="M341.7139,163.4419 A9,9 0 0 0 325.5329 168.3687" fill="none" style="stroke:#181818;stroke-width:1.5;"/></g><!--MD5=[b6dceaa84534c7aadd69d4ab3c7bab94]
link web to gateway--><g id="link_web_gateway"><path d="M189.04,109.11 C205.25,116.99 222.74,125.4 239,133 C266.49,145.86 298.64,160.15 318.41,168.86 " fill="none" id="web-to-gateway" style="stroke:#181818;stroke-width:1.0;"/><path d="M328.3463,163.9885 A9,9 0 0 0 321.5553 179.4798" fill="none" style="stroke:#181818;stroke-width:1.5;"/></g><!--MD5=[b69de3ebd0ddc99a165fcd5cb896ca40]
link teammember to gateway--><g id="link_teammember_gateway"><path d="M564.27,109.04 C547.52,117.59 528.81,126.35 511,133 C456.43,153.39 388.76,167.46 356.23,173.57 " fill="none" id="teammember-to-gateway" style="stroke:#181818;stroke-width:1.0;"/><path d="M350.8193,183.1655 A9,9 0 0 0 347.7766 166.527" fill="none" style="stroke:#181818;stroke-width:1.5;"/></g><!--MD5=[99a2a1653296f43ee36539ff464ff338]
link gateway to guest_internal--><g id="link_gateway_guest_internal"><path d="M337,187.04 C337,208.19 337,265.78 337,295.58 " fill="none" id="gateway-to-guest_internal" style="stroke:#181818;stroke-width:1.0;"/><path d="M345.4572,302.7518 A9,9 0 0 0 328.5428 302.7518" fill="none" style="stroke:#181818;stroke-width:1.5;"/></g><!--MD5=[52502d1e8de3a9daf768097e54eb711d]
link gateway to folio_internal--><g id="link_gateway_folio_internal"><path d="M327.68,179.09 C313.59,179.66 286.54,182.46 268,195 C230.04,220.68 204.12,269.96 192.29,296.33 " fill="none" id="gateway-to-folio_internal" style="stroke:#181818;stroke-width:1.0;"/><path d="M197.195,306.319 A9,9 0 0 0 181.6607 299.6269" fill="none" style="stroke:#181818;stroke-width:1.5;"/></g><!--MD5=[6914c2f7e06c4019d68da8e561d31f22]
link ms_guest to mdm_internal--><g id="link_ms_guest_mdm_internal"><path d="M320.47,490.64 C312.11,506.92 302.24,527.46 295,546.5 C279.48,587.34 267.05,637.26 261,663.46 " fill="none" id="ms_guest-to-mdm_internal" style="stroke:#181818;stroke-width:1.0;"/><path d="M267.6691,672.3027 A9,9 0 0 0 251.1753 668.5541" fill="none" style="stroke:#181818;stroke-width:1.5;"/></g><!--MD5=[12f36fd617830bbbdcbcfcb50523ada0]
link ms_folio to mdm_internal--><g id="link_ms_folio_mdm_internal"><path d="M188.12,490.8 C205.08,537.75 236.87,625.76 250.51,663.53 " fill="none" id="ms_folio-to-mdm_internal" style="stroke:#181818;stroke-width:1.0;"/><path d="M260.896,667.3887 A9,9 0 0 0 244.99 673.142" fill="none" style="stroke:#181818;stroke-width:1.5;"/></g><!--MD5=[bfa1a27fd83a3f9162138828e961b77b]
link authenticate to ldap--><g id="link_authenticate_ldap"><path d="M496,324.04 C496,331.4325 496,343.2994 496,356.9906 C496,360.4134 496,363.9503 496,367.5597 " fill="none" id="authenticate-ldap" style="stroke:#181818;stroke-width:1.0;"/></g><!--MD5=[7c614c6059d17c678bbabd0113cb2b05]
link gateway to authenticate--><g id="link_gateway_authenticate"><path d="M346.26,179.18 C360.27,179.87 387.23,182.82 406,195 C445.71,220.77 474.59,270.38 487.86,296.67 " fill="none" id="gateway-to-authenticate" style="stroke:#181818;stroke-width:1.0;"/><path d="M498.5725,299.3362 A9,9 0 0 0 483.3578 306.7261" fill="none" style="stroke:#181818;stroke-width:1.5;"/></g><!--MD5=[958e18b0bfb9a904435d32284ca4be47]
link db2 to data_access--><g id="link_db2_data_access"><path d="M460.12,926 C471.66,926 483.2,926 494.74,926 " fill="none" id="db2-data_access" style="stroke:#181818;stroke-width:1.0;"/></g><!--MD5=[49aae4d11e1281c34afb753f11296c78]
link data_lake to data_access--><g id="link_data_lake_data_access"><path d="M580.76,826.19 C562.21,850.07 533.15,887.48 516.62,908.76 " fill="none" id="data_lake-to-data_access" style="stroke:#181818;stroke-width:1.0;"/><path d="M518.939,919.5517 A9,9 0 0 0 505.5745 909.184" fill="none" style="stroke:#181818;stroke-width:1.5;"/></g><!--MD5=[3c6d62bf5095d38ab2efb420d0d2b9c1]
@startuml

skinparam database {
    backgroundColor Ivory
    borderColor black
}

skinparam package {
    backgroundColor #F0E442
}

interface gateway #YellowGreen
interface authenticate #Red

node "LDAP" as ldap <<ldap>> #BurlyWood {
    folder "LDAP Directory" as ldap_dir
}

node "UI" #Strategy {
    component "Android" as android <<mobile>>
    component "iOS" as ios <<mobile>>
    component "universalorlando.com" as web <<public web>>
    component "Team Member Tools" as teammember <<internal web>>
}

node "Microservices" #MediumTurquoise {

    package "ms-guest" as guest_package {
        interface internal as guest_internal #3D8CFF
        component "ms-guest" as ms_guest <<service>>
        guest_internal - - ms_guest
    }
    package "ms-folio" as folio_package #F0E442 {
        interface internal as folio_internal #3D8CFF
        component "ms-folio" as ms_folio <<service>>
        folio_internal - - ms_folio
    }
}

node "IBM" #Orchid {
    package "MDM AE" as mdm_package {
        interface internal as mdm_internal #3D8CFF
        component "MDM Core" as mdm <<component>>
        component "Match & Merge" as match_merge <<component>>
    }
    database "MDM AE" as db2 <<DB2>>
    mdm_internal - - mdm
    mdm - -> match_merge
    mdm_package - -.> db2

    interface "Data Access" as data_access
}

component "Data Lake" as data_lake

'UI'
android - -( gateway
ios - -( gateway
web - -( gateway
teammember -right-( gateway

'Gateway'
gateway - -( guest_internal
gateway - -( folio_internal

'MS'
ms_guest - -( mdm_internal
ms_folio - -( mdm_internal

'LDAP'
authenticate - - ldap
gateway - -( authenticate

'Data Lake'
db2 -right- data_access
data_lake - -( data_access

'[Another Component] - -> [Example 1]
'[Example 1] - -> [Folder 3]
'[Folder 3] - -> [Frame 4]

@enduml

@startuml

skinparam database {
    backgroundColor Ivory
    borderColor black
}

skinparam package {
    backgroundColor #F0E442
}

interface gateway #YellowGreen
interface authenticate #Red

node "LDAP" as ldap <<ldap>> #BurlyWood {
    folder "LDAP Directory" as ldap_dir
}

node "UI" #Strategy {
    component "Android" as android <<mobile>>
    component "iOS" as ios <<mobile>>
    component "universalorlando.com" as web <<public web>>
    component "Team Member Tools" as teammember <<internal web>>
}

node "Microservices" #MediumTurquoise {

    package "ms-guest" as guest_package {
        interface internal as guest_internal #3D8CFF
        component "ms-guest" as ms_guest <<service>>
        guest_internal - - ms_guest
    }
    package "ms-folio" as folio_package #F0E442 {
        interface internal as folio_internal #3D8CFF
        component "ms-folio" as ms_folio <<service>>
        folio_internal - - ms_folio
    }
}

node "IBM" #Orchid {
    package "MDM AE" as mdm_package {
        interface internal as mdm_internal #3D8CFF
        component "MDM Core" as mdm <<component>>
        component "Match & Merge" as match_merge <<component>>
    }
    database "MDM AE" as db2 <<DB2>>
    mdm_internal - - mdm
    mdm - -> match_merge
    mdm_package - -.> db2

    interface "Data Access" as data_access
}

component "Data Lake" as data_lake

android - -( gateway
ios - -( gateway
web - -( gateway
teammember -right-( gateway

gateway - -( guest_internal
gateway - -( folio_internal

ms_guest - -( mdm_internal
ms_folio - -( mdm_internal

authenticate - - ldap
gateway - -( authenticate

db2 -right- data_access
data_lake - -( data_access


@enduml

PlantUML version 1.2022.7(Mon Aug 22 13:01:30 EDT 2022)
(GPL source distribution)
Java Runtime: OpenJDK Runtime Environment
JVM: OpenJDK 64-Bit Server VM
Default Encoding: UTF-8
Language: en
Country: US
--></g></svg>