<?xml version="1.0" encoding="UTF-8" standalone="no"?><svg xmlns="http://www.w3.org/2000/svg" xmlns:xlink="http://www.w3.org/1999/xlink" contentStyleType="text/css" height="780px" preserveAspectRatio="none" style="width:1221px;height:780px;background:#FFFFFF;" version="1.1" viewBox="0 0 1221 780" width="1221px" zoomAndPan="magnify"><defs/><g><!--MD5=[9681dc6e01e10c6b4fe06895ae94f592]
cluster UI--><g id="cluster_UI"><polygon fill="#F8E7C0" points="16,16,26,6,725,6,725,115,715,125,16,125,16,16" style="stroke:#181818;stroke-width:1.0;"/><line style="stroke:#181818;stroke-width:1.0;" x1="715" x2="725" y1="16" y2="6"/><line style="stroke:#181818;stroke-width:1.0;" x1="16" x2="715" y1="16" y2="16"/><line style="stroke:#181818;stroke-width:1.0;" x1="715" x2="715" y1="16" y2="125"/><text fill="#000000" font-family="sans-serif" font-size="14" font-weight="bold" lengthAdjust="spacing" textLength="15" x="359" y="32.5352">UI</text></g><!--MD5=[1feb5a0622a9211287ff216bc4a47e33]
cluster ldap--><g id="cluster_ldap"><polygon fill="#DEB887" points="20,234,30,224,219,224,219,356,209,366,20,366,20,234" style="stroke:#181818;stroke-width:1.0;"/><line style="stroke:#181818;stroke-width:1.0;" x1="209" x2="219" y1="234" y2="224"/><line style="stroke:#181818;stroke-width:1.0;" x1="20" x2="209" y1="234" y2="234"/><line style="stroke:#181818;stroke-width:1.0;" x1="209" x2="209" y1="234" y2="366"/><text fill="#000000" font-family="sans-serif" font-size="14" font-style="italic" lengthAdjust="spacing" textLength="44" x="93.5" y="250.5352">«ldap»</text><text fill="#000000" font-family="sans-serif" font-size="14" font-weight="bold" lengthAdjust="spacing" textLength="38" x="96.5" y="267.0234">LDAP</text></g><!--MD5=[f72e8905bd6e3a370cb106f12698fafd]
cluster Microservices--><g id="cluster_Microservices"><polygon fill="#48D1CC" points="251,213,261,203,609,203,609,753,599,763,251,763,251,213" style="stroke:#181818;stroke-width:1.0;"/><line style="stroke:#181818;stroke-width:1.0;" x1="599" x2="609" y1="213" y2="203"/><line style="stroke:#181818;stroke-width:1.0;" x1="251" x2="599" y1="213" y2="213"/><line style="stroke:#181818;stroke-width:1.0;" x1="599" x2="599" y1="213" y2="763"/><text fill="#000000" font-family="sans-serif" font-size="14" font-weight="bold" lengthAdjust="spacing" textLength="98" x="377" y="229.5352">Microservices</text></g><!--MD5=[155688ac9c6405cb28b411556fc5fed5]
cluster guests_package--><g id="cluster_guests_package"><path d="M441.5,251 L521.5,251 A3.75,3.75 0 0 1 524,253.5 L531,273.4883 L582.5,273.4883 A2.5,2.5 0 0 1 585,275.9883 L585,480.5 A2.5,2.5 0 0 1 582.5,483 L441.5,483 A2.5,2.5 0 0 1 439,480.5 L439,253.5 A2.5,2.5 0 0 1 441.5,251 " fill="#F0E442" style="stroke:#000000;stroke-width:1.5;"/><line style="stroke:#000000;stroke-width:1.5;" x1="439" x2="531" y1="273.4883" y2="273.4883"/><text fill="#000000" font-family="sans-serif" font-size="14" font-weight="bold" lengthAdjust="spacing" textLength="79" x="443" y="266.5352">ms-guests</text></g><!--MD5=[6c2879b2d2bb996634356ed1d183dc5e]
cluster wallet_package--><g id="cluster_wallet_package"><path d="M277.5,251 L353.5,251 A3.75,3.75 0 0 1 356,253.5 L363,273.4883 L412.5,273.4883 A2.5,2.5 0 0 1 415,275.9883 L415,480.5 A2.5,2.5 0 0 1 412.5,483 L277.5,483 A2.5,2.5 0 0 1 275,480.5 L275,253.5 A2.5,2.5 0 0 1 277.5,251 " fill="#F0E442" style="stroke:#000000;stroke-width:1.5;"/><line style="stroke:#000000;stroke-width:1.5;" x1="275" x2="363" y1="273.4883" y2="273.4883"/><text fill="#000000" font-family="sans-serif" font-size="14" font-weight="bold" lengthAdjust="spacing" textLength="75" x="279" y="266.5352">ms-wallet</text></g><!--MD5=[2e5a3d3009757c2339f40e553b0ed60f]
cluster kafka--><g id="cluster_kafka"><path d="M808,528 L952,528 C957,528 957,584.5 957,584.5 C957,584.5 957,641 952,641 L808,641 C803,641 803,584.5 803,584.5 C803,584.5 803,528 808,528 " fill="#FA8072" style="stroke:#181818;stroke-width:1.0;"/><path d="M952,528 C947,528 947,584.5 947,584.5 C947,641 952,641 952,641 " fill="none" style="stroke:#181818;stroke-width:1.0;"/><text fill="#000000" font-family="sans-serif" font-size="14" font-style="italic" lengthAdjust="spacing" textLength="59" x="850.5" y="543.5352">«Queue»</text><text fill="#000000" font-family="sans-serif" font-size="14" font-weight="bold" lengthAdjust="spacing" textLength="98" x="831" y="560.0234">Kafka Cluster</text></g><!--MD5=[d40e80ed04d21816f83ec4d22e72d19f]
cluster match_link--><g id="cluster_match_link"><polygon fill="#FFC0CB" points="989,525,999,515,1204,515,1204,639,1194,649,989,649,989,525" style="stroke:#181818;stroke-width:1.0;"/><line style="stroke:#181818;stroke-width:1.0;" x1="1194" x2="1204" y1="525" y2="515"/><line style="stroke:#181818;stroke-width:1.0;" x1="989" x2="1194" y1="525" y2="525"/><line style="stroke:#181818;stroke-width:1.0;" x1="1194" x2="1194" y1="525" y2="649"/><text fill="#000000" font-family="sans-serif" font-size="14" font-style="italic" lengthAdjust="spacing" textLength="81" x="1052" y="541.5352">«Processor»</text><text fill="#000000" font-family="sans-serif" font-size="14" font-weight="bold" lengthAdjust="spacing" textLength="94" x="1045.5" y="558.0234">Match &amp; Link</text></g><!--MD5=[d0e2a5f97e7b84b4a52fc47ac0121b09]
entity android--><g id="elem_android"><rect fill="#F1F1F1" height="62.9766" rx="2.5" ry="2.5" style="stroke:#181818;stroke-width:0.5;" width="101" x="607.5" y="46"/><rect fill="#F1F1F1" height="10" style="stroke:#181818;stroke-width:0.5;" width="15" x="688.5" y="51"/><rect fill="#F1F1F1" height="2" style="stroke:#181818;stroke-width:0.5;" width="4" x="686.5" y="53"/><rect fill="#F1F1F1" height="2" style="stroke:#181818;stroke-width:0.5;" width="4" x="686.5" y="57"/><text fill="#000000" font-family="sans-serif" font-size="14" font-style="italic" lengthAdjust="spacing" textLength="61" x="622.5" y="79.5352">«mobile»</text><text fill="#000000" font-family="sans-serif" font-size="14" lengthAdjust="spacing" textLength="56" x="625" y="96.0234">Android</text></g><!--MD5=[be09490d94791046e3419ff8f61a31bb]
entity ios--><g id="elem_ios"><rect fill="#F1F1F1" height="62.9766" rx="2.5" ry="2.5" style="stroke:#181818;stroke-width:0.5;" width="101" x="471.5" y="46"/><rect fill="#F1F1F1" height="10" style="stroke:#181818;stroke-width:0.5;" width="15" x="552.5" y="51"/><rect fill="#F1F1F1" height="2" style="stroke:#181818;stroke-width:0.5;" width="4" x="550.5" y="53"/><rect fill="#F1F1F1" height="2" style="stroke:#181818;stroke-width:0.5;" width="4" x="550.5" y="57"/><text fill="#000000" font-family="sans-serif" font-size="14" font-style="italic" lengthAdjust="spacing" textLength="61" x="486.5" y="79.5352">«mobile»</text><text fill="#000000" font-family="sans-serif" font-size="14" lengthAdjust="spacing" textLength="23" x="505.5" y="96.0234">iOS</text></g><!--MD5=[08af8945a84acfe1eabc0963aa87c412]
entity web--><g id="elem_web"><rect fill="#F1F1F1" height="62.9766" rx="2.5" ry="2.5" style="stroke:#181818;stroke-width:0.5;" width="189" x="247.5" y="46"/><rect fill="#F1F1F1" height="10" style="stroke:#181818;stroke-width:0.5;" width="15" x="416.5" y="51"/><rect fill="#F1F1F1" height="2" style="stroke:#181818;stroke-width:0.5;" width="4" x="414.5" y="53"/><rect fill="#F1F1F1" height="2" style="stroke:#181818;stroke-width:0.5;" width="4" x="414.5" y="57"/><text fill="#000000" font-family="sans-serif" font-size="14" font-style="italic" lengthAdjust="spacing" textLength="88" x="293" y="79.5352">«public web»</text><text fill="#000000" font-family="sans-serif" font-size="14" lengthAdjust="spacing" textLength="149" x="262.5" y="96.0234">universalorlando.com</text></g><!--MD5=[95dd478b86db0b9ac73366f6568c523e]
entity teammember--><g id="elem_teammember"><rect fill="#F1F1F1" height="62.9766" rx="2.5" ry="2.5" style="stroke:#181818;stroke-width:0.5;" width="180" x="32" y="46"/><rect fill="#F1F1F1" height="10" style="stroke:#181818;stroke-width:0.5;" width="15" x="192" y="51"/><rect fill="#F1F1F1" height="2" style="stroke:#181818;stroke-width:0.5;" width="4" x="190" y="53"/><rect fill="#F1F1F1" height="2" style="stroke:#181818;stroke-width:0.5;" width="4" x="190" y="57"/><text fill="#000000" font-family="sans-serif" font-size="14" font-style="italic" lengthAdjust="spacing" textLength="99" x="67.5" y="79.5352">«internal web»</text><text fill="#000000" font-family="sans-serif" font-size="14" lengthAdjust="spacing" textLength="140" x="47" y="96.0234">Team Member Tools</text></g><!--MD5=[85d3f8ffd301b42283bb9f0f23821f75]
entity ldap_dir--><g id="elem_ldap_dir"><path d="M66,288 L107,288 A3.75,3.75 0 0 1 109.5,290.5 L116.5,309 L192,309 A2.5,2.5 0 0 1 194.5,311.5 L194.5,339.9883 A2.5,2.5 0 0 1 192,342.4883 L66,342.4883 A2.5,2.5 0 0 1 63.5,339.9883 L63.5,290.5 A2.5,2.5 0 0 1 66,288 " fill="#F1F1F1" style="stroke:#181818;stroke-width:0.5;"/><line style="stroke:#181818;stroke-width:0.5;" x1="63.5" x2="116.5" y1="309" y2="309"/><text fill="#000000" font-family="sans-serif" font-size="14" lengthAdjust="spacing" textLength="101" x="73.5" y="329.5352">LDAP Directory</text></g><!--MD5=[733ebafc4ddc0c6f83011f92b027dea0]
entity couch_db--><g id="elem_couch_db"><path d="M454,695 C454,685 497,685 497,685 C497,685 540,685 540,695 L540,736.9766 C540,746.9766 497,746.9766 497,746.9766 C497,746.9766 454,746.9766 454,736.9766 L454,695 " fill="#FFFFF0" style="stroke:#000000;stroke-width:0.5;"/><path d="M454,695 C454,705 497,705 497,705 C497,705 540,705 540,695 " fill="none" style="stroke:#000000;stroke-width:0.5;"/><text fill="#000000" font-family="sans-serif" font-size="14" font-style="italic" lengthAdjust="spacing" textLength="59" x="467.5" y="722.5352">«NoSQL»</text><text fill="#000000" font-family="sans-serif" font-size="14" lengthAdjust="spacing" textLength="66" x="464" y="739.0234">Couch DB</text></g><!--MD5=[51969f2f23c9be6be87857b423767cab]
entity nosql_data_access--><g id="elem_nosql_data_access"><ellipse cx="584" cy="716" fill="#F1F1F1" rx="8" ry="8" style="stroke:#181818;stroke-width:0.5;"/><text fill="#000000" font-family="sans-serif" font-size="14" lengthAdjust="spacing" textLength="81" x="543.5" y="746.5352">Data Access</text></g><!--MD5=[d1b457bbd51b46fbb259e557b99e92ae]
entity guests_internal--><g id="elem_guests_internal"><ellipse cx="500" cy="315" fill="#3D8CFF" rx="8" ry="8" style="stroke:#181818;stroke-width:0.5;"/><text fill="#000000" font-family="sans-serif" font-size="14" lengthAdjust="spacing" textLength="53" x="473.5" y="345.5352">internal</text></g><!--MD5=[da13416faa82b4a43890a3a8fce00ce4]
entity ms_guests--><g id="elem_ms_guests"><rect fill="#F1F1F1" height="62.9766" rx="2.5" ry="2.5" style="stroke:#181818;stroke-width:0.5;" width="113" x="455.5" y="404"/><rect fill="#F1F1F1" height="10" style="stroke:#181818;stroke-width:0.5;" width="15" x="548.5" y="409"/><rect fill="#F1F1F1" height="2" style="stroke:#181818;stroke-width:0.5;" width="4" x="546.5" y="411"/><rect fill="#F1F1F1" height="2" style="stroke:#181818;stroke-width:0.5;" width="4" x="546.5" y="415"/><text fill="#000000" font-family="sans-serif" font-size="14" font-style="italic" lengthAdjust="spacing" textLength="61" x="476.5" y="437.5352">«service»</text><text fill="#000000" font-family="sans-serif" font-size="14" lengthAdjust="spacing" textLength="73" x="470.5" y="454.0234">ms-guests</text></g><!--MD5=[ba5a8998a04e4bdc0dbbcbd792069ae3]
entity wallet_internal--><g id="elem_wallet_internal"><ellipse cx="345" cy="315" fill="#3D8CFF" rx="8" ry="8" style="stroke:#181818;stroke-width:0.5;"/><text fill="#000000" font-family="sans-serif" font-size="14" lengthAdjust="spacing" textLength="53" x="318.5" y="345.5352">internal</text></g><!--MD5=[c01b3adff0033688fb146172ea200fae]
entity ms_wallet--><g id="elem_ms_wallet"><rect fill="#F1F1F1" height="62.9766" rx="2.5" ry="2.5" style="stroke:#181818;stroke-width:0.5;" width="108" x="291" y="404"/><rect fill="#F1F1F1" height="10" style="stroke:#181818;stroke-width:0.5;" width="15" x="379" y="409"/><rect fill="#F1F1F1" height="2" style="stroke:#181818;stroke-width:0.5;" width="4" x="377" y="411"/><rect fill="#F1F1F1" height="2" style="stroke:#181818;stroke-width:0.5;" width="4" x="377" y="415"/><text fill="#000000" font-family="sans-serif" font-size="14" font-style="italic" lengthAdjust="spacing" textLength="61" x="309.5" y="437.5352">«service»</text><text fill="#000000" font-family="sans-serif" font-size="14" lengthAdjust="spacing" textLength="68" x="306" y="454.0234">ms-wallet</text></g><!--MD5=[f376dbea7e5c36b1eb7bbb8222c0f7c0]
entity kafka_brokers--><g id="elem_kafka_brokers"><rect fill="#F1F1F1" height="46.4883" rx="2.5" ry="2.5" style="stroke:#181818;stroke-width:0.5;" width="122" x="819" y="579"/><rect fill="#F1F1F1" height="10" style="stroke:#181818;stroke-width:0.5;" width="15" x="921" y="584"/><rect fill="#F1F1F1" height="2" style="stroke:#181818;stroke-width:0.5;" width="4" x="919" y="586"/><rect fill="#F1F1F1" height="2" style="stroke:#181818;stroke-width:0.5;" width="4" x="919" y="590"/><text fill="#000000" font-family="sans-serif" font-size="14" lengthAdjust="spacing" textLength="82" x="834" y="612.5352">Brokers 1..3</text></g><!--MD5=[9e192f6c6858cb294884017bf1dabec8]
entity consumer_1--><g id="elem_consumer_1"><rect fill="#F1F1F1" height="46.4883" rx="2.5" ry="2.5" style="stroke:#181818;stroke-width:0.5;" width="148" x="1032" y="579"/><rect fill="#F1F1F1" height="10" style="stroke:#181818;stroke-width:0.5;" width="15" x="1160" y="584"/><rect fill="#F1F1F1" height="2" style="stroke:#181818;stroke-width:0.5;" width="4" x="1158" y="586"/><rect fill="#F1F1F1" height="2" style="stroke:#181818;stroke-width:0.5;" width="4" x="1158" y="590"/><text fill="#000000" font-family="sans-serif" font-size="14" lengthAdjust="spacing" textLength="108" x="1047" y="612.5352">Consumers 1..5</text></g><!--MD5=[7b30460008fc71f9986330c33ee2d290]
entity gateway--><g id="elem_gateway"><ellipse cx="345" cy="178" fill="#9ACD32" rx="8" ry="8" style="stroke:#181818;stroke-width:0.5;"/><text fill="#000000" font-family="sans-serif" font-size="14" lengthAdjust="spacing" textLength="56" x="317" y="208.5352">gateway</text></g><!--MD5=[58fe32485a25c6dfb2b4de3b02168686]
entity authenticate--><g id="elem_authenticate"><ellipse cx="160" cy="178" fill="#FF0000" rx="8" ry="8" style="stroke:#181818;stroke-width:0.5;"/><text fill="#000000" font-family="sans-serif" font-size="14" lengthAdjust="spacing" textLength="85" x="117.5" y="208.5352">authenticate</text></g><!--MD5=[12859362b8ca673b871b8ce76de6e694]
entity kafka_produce--><g id="elem_kafka_produce"><ellipse cx="775" cy="602" fill="#F1F1F1" rx="8" ry="8" style="stroke:#181818;stroke-width:0.5;"/><text fill="#000000" font-family="sans-serif" font-size="14" lengthAdjust="spacing" textLength="57" x="746.5" y="632.5352">produce</text></g><!--MD5=[16d4717972d1cc757f2ff8148a7968ae]
entity kafka_consume--><g id="elem_kafka_consume"><ellipse cx="880" cy="716" fill="#F1F1F1" rx="8" ry="8" style="stroke:#181818;stroke-width:0.5;"/><text fill="#000000" font-family="sans-serif" font-size="14" lengthAdjust="spacing" textLength="62" x="849" y="746.5352">consume</text></g><!--MD5=[741f803b0826940167ea2a9cc6fd3e1f]
entity data_lake--><g id="elem_data_lake"><polygon fill="#F1F1F1" points="625,589,635,579,731,579,731,615.4883,721,625.4883,625,625.4883,625,589" style="stroke:#181818;stroke-width:0.5;"/><line style="stroke:#181818;stroke-width:0.5;" x1="721" x2="731" y1="589" y2="579"/><line style="stroke:#181818;stroke-width:0.5;" x1="625" x2="721" y1="589" y2="589"/><line style="stroke:#181818;stroke-width:0.5;" x1="721" x2="721" y1="589" y2="625.4883"/><text fill="#000000" font-family="sans-serif" font-size="14" lengthAdjust="spacing" textLength="66" x="640" y="612.5352">Data Lake</text></g><!--MD5=[45f2ff5085d056267707c7d276a8e149]
link guests_internal to ms_guests--><g id="link_guests_internal_ms_guests"><path d="M500.82,324.14 C502.46,340.3 506.19,377.15 508.89,403.83 " fill="none" id="guests_internal-ms_guests" style="stroke:#181818;stroke-width:1.0;"/></g><!--MD5=[1c8b8e41eec736a525d44e0fb642894e]
link wallet_internal to ms_wallet--><g id="link_wallet_internal_ms_wallet"><path d="M345,324.14 C345,340.3 345,377.15 345,403.83 " fill="none" id="wallet_internal-ms_wallet" style="stroke:#181818;stroke-width:1.0;"/></g><!--MD5=[3728e85fd39c56197067781e363ec437]
link gateway to guests_internal--><g id="link_gateway_guests_internal"><path d="M354.43,179.08 C368.7,179.64 396.12,182.42 415,195 C453.44,220.61 480.17,269.92 492.43,296.31 " fill="none" id="gateway-to-guests_internal" style="stroke:#181818;stroke-width:1.0;"/><path d="M503.1218,299.5254 A9,9 0 0 0 487.6832 306.4354" fill="none" style="stroke:#181818;stroke-width:1.5;"/></g><!--MD5=[5e464d3c789b7cb478c44ebcb3d22016]
link gateway to wallet_internal--><g id="link_gateway_wallet_internal"><path d="M345,187.04 C345,208.19 345,265.78 345,295.58 " fill="none" id="gateway-to-wallet_internal" style="stroke:#181818;stroke-width:1.0;"/><path d="M353.4572,302.7518 A9,9 0 0 0 336.5428 302.7518" fill="none" style="stroke:#181818;stroke-width:1.5;"/></g><!--MD5=[5b0924be97d99f4b42712c7be1e32466]
link ms_guests to couch_db--><g id="link_ms_guests_couch_db"><path d="M510.35,467.1 C507.55,519.12 501.88,624.49 498.91,679.6 " fill="none" id="ms_guests-to-couch_db" style="stroke:#181818;stroke-width:1.0;stroke-dasharray:7.0,7.0;"/><polygon fill="#181818" points="498.63,684.77,503.1133,676.0008,498.9018,679.7774,495.1252,675.5659,498.63,684.77" style="stroke:#181818;stroke-width:1.0;"/></g><!--MD5=[9f95cd16f260286e55319d7268c9ccae]
link ms_wallet to couch_db--><g id="link_ms_wallet_couch_db"><path d="M361.7,467.1 C390.21,519.33 448.06,625.34 478.04,680.26 " fill="none" id="ms_wallet-to-couch_db" style="stroke:#181818;stroke-width:1.0;stroke-dasharray:7.0,7.0;"/><polygon fill="#181818" points="480.5,684.77,479.6885,674.9546,478.0997,680.3838,472.6706,678.7951,480.5,684.77" style="stroke:#181818;stroke-width:1.0;"/></g><!--MD5=[31a5899a1d35084ec145db3d9932b64c]
link couch_db to nosql_data_access--><g id="link_couch_db_nosql_data_access"><path d="M540.16,716 C551.69,716 563.22,716 574.75,716 " fill="none" id="couch_db-nosql_data_access" style="stroke:#181818;stroke-width:1.0;"/></g><!--MD5=[c615f89baa09b41f7aa777cc85663aa4]
link data_lake to nosql_data_access--><g id="link_data_lake_nosql_data_access"><path d="M659.43,625.13 C641.15,646.91 613.68,679.64 597.42,699.01 " fill="none" id="data_lake-to-nosql_data_access" style="stroke:#181818;stroke-width:1.0;"/><path d="M599.2664,709.9604 A9,9 0 0 0 586.3121 699.0846" fill="none" style="stroke:#181818;stroke-width:1.5;"/></g><!--MD5=[72ec6d1f8a90e168d8cc7d8c78310f59]
link android to gateway--><g id="link_android_gateway"><path d="M626.33,109.28 C615.55,118.2 602.95,127.11 590,133 C511.8,168.55 407.33,175.42 364.53,176.72 " fill="none" id="android-to-gateway" style="stroke:#181818;stroke-width:1.0;"/><path d="M357.6506,185.3347 A9,9 0 0 0 357.2641 168.4246" fill="none" style="stroke:#181818;stroke-width:1.5;"/></g><!--MD5=[70011d888e820d831589a35534f2f817]
link ios to gateway--><g id="link_ios_gateway"><path d="M487.78,109.13 C477.38,117.54 465.62,126.2 454,133 C424.18,150.46 386.13,164.07 363.78,171.28 " fill="none" id="ios-to-gateway" style="stroke:#181818;stroke-width:1.0;"/><path d="M359.6459,181.4425 A9,9 0 0 0 354.5663 165.3087" fill="none" style="stroke:#181818;stroke-width:1.5;"/></g><!--MD5=[b6dceaa84534c7aadd69d4ab3c7bab94]
link web to gateway--><g id="link_web_gateway"><path d="M342.93,109.13 C343.43,125.36 344.02,144.77 344.44,158.66 " fill="none" id="web-to-gateway" style="stroke:#181818;stroke-width:1.0;"/><path d="M353.1064,165.5077 A9,9 0 0 0 336.2002 166.039" fill="none" style="stroke:#181818;stroke-width:1.5;"/></g><!--MD5=[b69de3ebd0ddc99a165fcd5cb896ca40]
link teammember to gateway--><g id="link_teammember_gateway"><path d="M179.77,109.02 C195.87,117.15 213.48,125.69 230,133 C263.42,147.78 303.48,162.44 326.41,170.55 " fill="none" id="teammember-to-gateway" style="stroke:#181818;stroke-width:1.0;"/><path d="M335.8264,164.8806 A9,9 0 0 0 330.2247 180.8406" fill="none" style="stroke:#181818;stroke-width:1.5;"/></g><!--MD5=[bfa1a27fd83a3f9162138828e961b77b]
link authenticate to ldap--><g id="link_authenticate_ldap"><path d="M150.77,178.95 C126.48,179.04 61.63,180.63 47,195 C42.2988,199.6188 38.4667,204.9025 35.3612,210.6177 C33.8084,213.4753 32.4373,216.4407 31.2299,219.4848 C30.9281,220.2458 30.6365,221.0118 30.3549,221.7822 C30.214,222.1674 30.0757,222.5537 29.9398,222.9411 C29.8719,223.1348 29.8046,223.3287 29.7378,223.5229 " fill="none" id="authenticate-ldap" style="stroke:#181818;stroke-width:1.0;"/></g><!--MD5=[2dd83f557b9552e36aa32fcb289eb3f0]
reverse link authenticate to gateway--><g id="link_authenticate_gateway"><path d="M179.13,178 C231.32,178 283.52,178 335.72,178 " fill="none" id="authenticate-backto-gateway" style="stroke:#181818;stroke-width:1.0;"/><path d="M172.1082,186.4572 A9,9 0 0 0 172.1082 169.5428" fill="none" style="stroke:#181818;stroke-width:1.5;"/></g><!--MD5=[cb2a29a44474df7f1a27b97359ef1930]
link kafka_brokers to kafka_produce--><g id="link_kafka_brokers_kafka_produce"><path d="M818.89,602 C807.27,602 795.65,602 784.02,602 " fill="none" id="kafka_brokers-kafka_produce" style="stroke:#181818;stroke-width:1.0;"/></g><!--MD5=[69e86b7b900ee632d7e6258b31081ab3]
link kafka_brokers to kafka_consume--><g id="link_kafka_brokers_kafka_consume"><path d="M880,625.13 C880,650.25 880,689.93 880,706.88 " fill="none" id="kafka_brokers-kafka_consume" style="stroke:#181818;stroke-width:1.0;"/></g><!--MD5=[74eadd002092ccd979fdd25de901366a]
link ms_guests to kafka_produce--><g id="link_ms_guests_kafka_produce"><path d="M568.67,444.72 C630.47,454.81 723.94,473.73 749,499 C771.24,521.42 775.3,560.05 775.59,582.79 " fill="none" id="ms_guests-to-kafka_produce" style="stroke:#181818;stroke-width:1.0;"/><path d="M783.9819,589.8187 A9,9 0 0 0 767.0685 589.6254" fill="none" style="stroke:#181818;stroke-width:1.5;"/></g><!--MD5=[952e41a979291b5538f69302ef16c37c]
link ms_wallet to kafka_produce--><g id="link_ms_wallet_kafka_produce"><path d="M387.42,467.12 C402.9,476.62 421.03,485.92 439,491 C455.58,495.69 735.53,488.25 749,499 C774.04,518.98 776.98,559.43 776.34,582.94 " fill="none" id="ms_wallet-to-kafka_produce" style="stroke:#181818;stroke-width:1.0;"/><path d="M784.4281,590.3332 A9,9 0 0 0 767.5373 589.4391" fill="none" style="stroke:#181818;stroke-width:1.5;"/></g><!--MD5=[9548a49b2833d17758e18684fcade6e2]
link match_link to kafka_consume--><g id="link_match_link_kafka_consume"><path d="M988.9667,619.3048 C988.8742,619.4781 988.781,619.6523 988.6871,619.8275 C988.3113,620.528 987.9243,621.2429 987.5262,621.9707 C986.73,623.4263 985.8897,624.9334 985.0075,626.48 C977.95,638.8525 968.215,653.75 957,665 C939.67,682.39 915.31,696.95 898.67,705.8 " fill="none" id="match_link-to-kafka_consume" style="stroke:#181818;stroke-width:1.0;"/><path d="M896.0244,716.6649 A9,9 0 0 0 888.3154 701.6093" fill="none" style="stroke:#181818;stroke-width:1.5;"/></g><!--MD5=[f6db522b5cae85554e792c6f63273eb0]
link data_lake to kafka_consume--><g id="link_data_lake_kafka_consume"><path d="M699.11,625.01 C712.47,637.98 730.63,653.96 749,665 C786.06,687.28 834.76,702.71 861.1,710.07 " fill="none" id="data_lake-to-kafka_consume" style="stroke:#181818;stroke-width:1.0;"/><path d="M870.1687,703.7623 A9,9 0 0 0 865.7489 720.0891" fill="none" style="stroke:#181818;stroke-width:1.5;"/></g><!--MD5=[9bfbc5d27515d6261476df18ce2a7324]
@startuml

skinparam database {
    backgroundColor Ivory
    borderColor black
}

skinparam package {
    backgroundColor #F0E442
}

interface gateway #YellowGreen
interface authenticate #Red
interface produce as kafka_produce
interface consume as kafka_consume

node "UI" #Strategy {
    component "Android" as android <<mobile>>
    component "iOS" as ios <<mobile>>
    component "universalorlando.com" as web <<public web>>
    component "Team Member Tools" as teammember <<internal web>>
}

node "LDAP" as ldap <<ldap>> #BurlyWood {
    folder "LDAP Directory" as ldap_dir
}

node "Microservices" #MediumTurquoise {

    package "ms-guests" as guests_package {
        interface internal as guests_internal #3D8CFF
        component "ms-guests" as ms_guests <<service>>
        guests_internal - - ms_guests
    }
    package "ms-wallet" as wallet_package {
        interface internal as wallet_internal #3D8CFF
        component "ms-wallet" as ms_wallet <<service>>
        wallet_internal - - ms_wallet
    }
    database "Couch DB" as couch_db <<NoSQL>>
    interface "Data Access" as nosql_data_access
}

queue "Kafka Cluster" as kafka <<Queue>> #Salmon {
    component "Brokers 1..3" as kafka_brokers
}

node "Match & Link" as match_link <<Processor>> #Pink {
    component "Consumers 1..5" as consumer_1
}

node "Data Lake" as data_lake

'Gateway'
gateway - -( guests_internal
gateway - -( wallet_internal

'Couch'
ms_guests - -.> couch_db
ms_wallet - -.> couch_db
couch_db -right- nosql_data_access
data_lake - -( nosql_data_access

'UI'
android - -( gateway
ios - -( gateway
web - -( gateway
teammember - -( gateway

'LDAP'
authenticate - - ldap
gateway -left-( authenticate

'Kafka'
kafka_brokers -right- kafka_produce
kafka_brokers - - kafka_consume
ms_guests - -( kafka_produce
ms_wallet - -( kafka_produce
match_link - -( kafka_consume
data_lake - -( kafka_consume

@enduml

@startuml

skinparam database {
    backgroundColor Ivory
    borderColor black
}

skinparam package {
    backgroundColor #F0E442
}

interface gateway #YellowGreen
interface authenticate #Red
interface produce as kafka_produce
interface consume as kafka_consume

node "UI" #Strategy {
    component "Android" as android <<mobile>>
    component "iOS" as ios <<mobile>>
    component "universalorlando.com" as web <<public web>>
    component "Team Member Tools" as teammember <<internal web>>
}

node "LDAP" as ldap <<ldap>> #BurlyWood {
    folder "LDAP Directory" as ldap_dir
}

node "Microservices" #MediumTurquoise {

    package "ms-guests" as guests_package {
        interface internal as guests_internal #3D8CFF
        component "ms-guests" as ms_guests <<service>>
        guests_internal - - ms_guests
    }
    package "ms-wallet" as wallet_package {
        interface internal as wallet_internal #3D8CFF
        component "ms-wallet" as ms_wallet <<service>>
        wallet_internal - - ms_wallet
    }
    database "Couch DB" as couch_db <<NoSQL>>
    interface "Data Access" as nosql_data_access
}

queue "Kafka Cluster" as kafka <<Queue>> #Salmon {
    component "Brokers 1..3" as kafka_brokers
}

node "Match & Link" as match_link <<Processor>> #Pink {
    component "Consumers 1..5" as consumer_1
}

node "Data Lake" as data_lake

gateway - -( guests_internal
gateway - -( wallet_internal

ms_guests - -.> couch_db
ms_wallet - -.> couch_db
couch_db -right- nosql_data_access
data_lake - -( nosql_data_access

android - -( gateway
ios - -( gateway
web - -( gateway
teammember - -( gateway

authenticate - - ldap
gateway -left-( authenticate

kafka_brokers -right- kafka_produce
kafka_brokers - - kafka_consume
ms_guests - -( kafka_produce
ms_wallet - -( kafka_produce
match_link - -( kafka_consume
data_lake - -( kafka_consume

@enduml

PlantUML version 1.2022.7(Mon Aug 22 13:01:30 EDT 2022)
(GPL source distribution)
Java Runtime: OpenJDK Runtime Environment
JVM: OpenJDK 64-Bit Server VM
Default Encoding: UTF-8
Language: en
Country: US
--></g></svg>