<?xml version="1.0" encoding="UTF-8" standalone="no"?><svg xmlns="http://www.w3.org/2000/svg" xmlns:xlink="http://www.w3.org/1999/xlink" contentStyleType="text/css" height="1061px" preserveAspectRatio="none" style="width:1240px;height:1061px;background:#FFFFFF;" version="1.1" viewBox="0 0 1240 1061" width="1240px" zoomAndPan="magnify"><defs/><g><!--MD5=[c8b95a079abb2c9a723943a7bccb3f44]
cluster gateway--><g id="cluster_gateway"><polygon fill="#F0E442" points="379,223.5,389,213.5,544,213.5,544,333.5,534,343.5,379,343.5,379,223.5" style="stroke:#181818;stroke-width:1.0;"/><line style="stroke:#181818;stroke-width:1.0;" x1="534" x2="544" y1="223.5" y2="213.5"/><line style="stroke:#181818;stroke-width:1.0;" x1="379" x2="534" y1="223.5" y2="223.5"/><line style="stroke:#181818;stroke-width:1.0;" x1="534" x2="534" y1="223.5" y2="343.5"/><text fill="#000000" font-family="sans-serif" font-size="14" font-weight="bold" lengthAdjust="spacing" textLength="89" x="413" y="240.0352">API Gateway</text></g><!--MD5=[9681dc6e01e10c6b4fe06895ae94f592]
cluster UI--><g id="cluster_UI"><polygon fill="#F8E7C0" points="16,72.5,26,62.5,725,62.5,725,171.5,715,181.5,16,181.5,16,72.5" style="stroke:#181818;stroke-width:1.0;"/><line style="stroke:#181818;stroke-width:1.0;" x1="715" x2="725" y1="72.5" y2="62.5"/><line style="stroke:#181818;stroke-width:1.0;" x1="16" x2="715" y1="72.5" y2="72.5"/><line style="stroke:#181818;stroke-width:1.0;" x1="715" x2="715" y1="72.5" y2="181.5"/><text fill="#000000" font-family="sans-serif" font-size="14" font-weight="bold" lengthAdjust="spacing" textLength="15" x="359" y="89.0352">UI</text></g><!--MD5=[1feb5a0622a9211287ff216bc4a47e33]
cluster ldap--><g id="cluster_ldap"><polygon fill="#DEB887" points="554,412.5,564,402.5,853,402.5,853,522.5,843,532.5,554,532.5,554,412.5" style="stroke:#181818;stroke-width:1.0;"/><line style="stroke:#181818;stroke-width:1.0;" x1="843" x2="853" y1="412.5" y2="402.5"/><line style="stroke:#181818;stroke-width:1.0;" x1="554" x2="843" y1="412.5" y2="412.5"/><line style="stroke:#181818;stroke-width:1.0;" x1="843" x2="843" y1="412.5" y2="532.5"/><text fill="#000000" font-family="sans-serif" font-size="14" font-style="italic" lengthAdjust="spacing" textLength="44" x="677.5" y="429.0352">«ldap»</text><text fill="#000000" font-family="sans-serif" font-size="14" font-weight="bold" lengthAdjust="spacing" textLength="38" x="680.5" y="445.5234">LDAP</text></g><!--MD5=[f72e8905bd6e3a370cb106f12698fafd]
cluster Microservices--><g id="cluster_Microservices"><polygon fill="#48D1CC" points="159,385.5,169,375.5,530,375.5,530,1034,520,1044,159,1044,159,385.5" style="stroke:#181818;stroke-width:1.0;"/><line style="stroke:#181818;stroke-width:1.0;" x1="520" x2="530" y1="385.5" y2="375.5"/><line style="stroke:#181818;stroke-width:1.0;" x1="159" x2="520" y1="385.5" y2="385.5"/><line style="stroke:#181818;stroke-width:1.0;" x1="520" x2="520" y1="385.5" y2="1044"/><text fill="#000000" font-family="sans-serif" font-size="14" font-weight="bold" lengthAdjust="spacing" textLength="98" x="291.5" y="402.0352">Microservices</text></g><!--MD5=[155688ac9c6405cb28b411556fc5fed5]
cluster guests_package--><g id="cluster_guests_package"><path d="M349.5,423.5 L429.5,423.5 A3.75,3.75 0 0 1 432,426 L439,445.9883 L490.5,445.9883 A2.5,2.5 0 0 1 493,448.4883 L493,667.5 A2.5,2.5 0 0 1 490.5,670 L349.5,670 A2.5,2.5 0 0 1 347,667.5 L347,426 A2.5,2.5 0 0 1 349.5,423.5 " fill="#F0E442" style="stroke:#000000;stroke-width:1.5;"/><line style="stroke:#000000;stroke-width:1.5;" x1="347" x2="439" y1="445.9883" y2="445.9883"/><text fill="#000000" font-family="sans-serif" font-size="14" font-weight="bold" lengthAdjust="spacing" textLength="79" x="351" y="439.0352">ms-guests</text></g><!--MD5=[868014e6f08dc9b5c449d37e97dd66ff]
cluster match_link_package--><g id="cluster_match_link_package"><path d="M332.5,694 L445.5,694 A3.75,3.75 0 0 1 448,696.5 L455,716.4883 L503.5,716.4883 A2.5,2.5 0 0 1 506,718.9883 L506,923.5 A2.5,2.5 0 0 1 503.5,926 L332.5,926 A2.5,2.5 0 0 1 330,923.5 L330,696.5 A2.5,2.5 0 0 1 332.5,694 " fill="#F0E442" style="stroke:#000000;stroke-width:1.5;"/><line style="stroke:#000000;stroke-width:1.5;" x1="330" x2="455" y1="716.4883" y2="716.4883"/><text fill="#000000" font-family="sans-serif" font-size="14" font-weight="bold" lengthAdjust="spacing" textLength="112" x="334" y="709.5352">ms-match-link</text></g><!--MD5=[6c2879b2d2bb996634356ed1d183dc5e]
cluster wallet_package--><g id="cluster_wallet_package"><path d="M185.5,423.5 L261.5,423.5 A3.75,3.75 0 0 1 264,426 L271,445.9883 L320.5,445.9883 A2.5,2.5 0 0 1 323,448.4883 L323,667.5 A2.5,2.5 0 0 1 320.5,670 L185.5,670 A2.5,2.5 0 0 1 183,667.5 L183,426 A2.5,2.5 0 0 1 185.5,423.5 " fill="#F0E442" style="stroke:#000000;stroke-width:1.5;"/><line style="stroke:#000000;stroke-width:1.5;" x1="183" x2="271" y1="445.9883" y2="445.9883"/><text fill="#000000" font-family="sans-serif" font-size="14" font-weight="bold" lengthAdjust="spacing" textLength="75" x="187" y="439.0352">ms-wallet</text></g><!--MD5=[6335950ccef517345999595fcd67b7eb]
cluster IBM--><g id="cluster_IBM"><polygon fill="#808080" points="877,16,887,6,1223,6,1223,565,1213,575,877,575,877,16" style="stroke:#181818;stroke-width:1.0;"/><line style="stroke:#181818;stroke-width:1.0;" x1="1213" x2="1223" y1="16" y2="6"/><line style="stroke:#181818;stroke-width:1.0;" x1="877" x2="1213" y1="16" y2="16"/><line style="stroke:#181818;stroke-width:1.0;" x1="1213" x2="1213" y1="16" y2="575"/><text fill="#000000" font-family="sans-serif" font-size="14" font-weight="bold" lengthAdjust="spacing" textLength="27" x="1032.5" y="32.5352">IBM</text></g><!--MD5=[c5d0bdb92111ab1f7056b8d8fe221503]
cluster mdm_package--><g id="cluster_mdm_package"><path d="M911.5,62 L972.5,62 A3.75,3.75 0 0 1 975,64.5 L982,84.4883 L1104.5,84.4883 A2.5,2.5 0 0 1 1107,86.9883 L1107,540.5 A2.5,2.5 0 0 1 1104.5,543 L911.5,543 A2.5,2.5 0 0 1 909,540.5 L909,64.5 A2.5,2.5 0 0 1 911.5,62 " fill="#808080" style="stroke:#000000;stroke-width:1.5;"/><line style="stroke:#000000;stroke-width:1.5;" x1="909" x2="982" y1="84.4883" y2="84.4883"/><text fill="#000000" font-family="sans-serif" font-size="14" font-weight="bold" lengthAdjust="spacing" textLength="60" x="913" y="77.5352">MDM AE</text></g><!--MD5=[06959a3f3cbea176f36acf10396f6fcf]
entity public--><g id="elem_public"><ellipse cx="432" cy="290.5" fill="#9ACD32" rx="8" ry="8" style="stroke:#181818;stroke-width:0.5;"/><text fill="#000000" font-family="sans-serif" font-size="14" lengthAdjust="spacing" textLength="42" x="411" y="321.0352">public</text></g><!--MD5=[d0e2a5f97e7b84b4a52fc47ac0121b09]
entity android--><g id="elem_android"><rect fill="#F1F1F1" height="62.9766" rx="2.5" ry="2.5" style="stroke:#181818;stroke-width:0.5;" width="101" x="607.5" y="102.5"/><rect fill="#F1F1F1" height="10" style="stroke:#181818;stroke-width:0.5;" width="15" x="688.5" y="107.5"/><rect fill="#F1F1F1" height="2" style="stroke:#181818;stroke-width:0.5;" width="4" x="686.5" y="109.5"/><rect fill="#F1F1F1" height="2" style="stroke:#181818;stroke-width:0.5;" width="4" x="686.5" y="113.5"/><text fill="#000000" font-family="sans-serif" font-size="14" font-style="italic" lengthAdjust="spacing" textLength="61" x="622.5" y="136.0352">«mobile»</text><text fill="#000000" font-family="sans-serif" font-size="14" lengthAdjust="spacing" textLength="56" x="625" y="152.5234">Android</text></g><!--MD5=[be09490d94791046e3419ff8f61a31bb]
entity ios--><g id="elem_ios"><rect fill="#F1F1F1" height="62.9766" rx="2.5" ry="2.5" style="stroke:#181818;stroke-width:0.5;" width="101" x="471.5" y="102.5"/><rect fill="#F1F1F1" height="10" style="stroke:#181818;stroke-width:0.5;" width="15" x="552.5" y="107.5"/><rect fill="#F1F1F1" height="2" style="stroke:#181818;stroke-width:0.5;" width="4" x="550.5" y="109.5"/><rect fill="#F1F1F1" height="2" style="stroke:#181818;stroke-width:0.5;" width="4" x="550.5" y="113.5"/><text fill="#000000" font-family="sans-serif" font-size="14" font-style="italic" lengthAdjust="spacing" textLength="61" x="486.5" y="136.0352">«mobile»</text><text fill="#000000" font-family="sans-serif" font-size="14" lengthAdjust="spacing" textLength="23" x="505.5" y="152.5234">iOS</text></g><!--MD5=[08af8945a84acfe1eabc0963aa87c412]
entity web--><g id="elem_web"><rect fill="#F1F1F1" height="62.9766" rx="2.5" ry="2.5" style="stroke:#181818;stroke-width:0.5;" width="189" x="247.5" y="102.5"/><rect fill="#F1F1F1" height="10" style="stroke:#181818;stroke-width:0.5;" width="15" x="416.5" y="107.5"/><rect fill="#F1F1F1" height="2" style="stroke:#181818;stroke-width:0.5;" width="4" x="414.5" y="109.5"/><rect fill="#F1F1F1" height="2" style="stroke:#181818;stroke-width:0.5;" width="4" x="414.5" y="113.5"/><text fill="#000000" font-family="sans-serif" font-size="14" font-style="italic" lengthAdjust="spacing" textLength="88" x="293" y="136.0352">«public web»</text><text fill="#000000" font-family="sans-serif" font-size="14" lengthAdjust="spacing" textLength="149" x="262.5" y="152.5234">universalorlando.com</text></g><!--MD5=[95dd478b86db0b9ac73366f6568c523e]
entity teammember--><g id="elem_teammember"><rect fill="#F1F1F1" height="62.9766" rx="2.5" ry="2.5" style="stroke:#181818;stroke-width:0.5;" width="180" x="32" y="102.5"/><rect fill="#F1F1F1" height="10" style="stroke:#181818;stroke-width:0.5;" width="15" x="192" y="107.5"/><rect fill="#F1F1F1" height="2" style="stroke:#181818;stroke-width:0.5;" width="4" x="190" y="109.5"/><rect fill="#F1F1F1" height="2" style="stroke:#181818;stroke-width:0.5;" width="4" x="190" y="113.5"/><text fill="#000000" font-family="sans-serif" font-size="14" font-style="italic" lengthAdjust="spacing" textLength="99" x="67.5" y="136.0352">«internal web»</text><text fill="#000000" font-family="sans-serif" font-size="14" lengthAdjust="spacing" textLength="140" x="47" y="152.5234">Team Member Tools</text></g><!--MD5=[85d3f8ffd301b42283bb9f0f23821f75]
entity ldap_dir--><g id="elem_ldap_dir"><path d="M708,460.5 L749,460.5 A3.75,3.75 0 0 1 751.5,463 L758.5,481.5 L834,481.5 A2.5,2.5 0 0 1 836.5,484 L836.5,512.4883 A2.5,2.5 0 0 1 834,514.9883 L708,514.9883 A2.5,2.5 0 0 1 705.5,512.4883 L705.5,463 A2.5,2.5 0 0 1 708,460.5 " fill="#F1F1F1" style="stroke:#181818;stroke-width:0.5;"/><line style="stroke:#181818;stroke-width:0.5;" x1="705.5" x2="758.5" y1="481.5" y2="481.5"/><text fill="#000000" font-family="sans-serif" font-size="14" lengthAdjust="spacing" textLength="101" x="715.5" y="502.0352">LDAP Directory</text></g><!--MD5=[58fe32485a25c6dfb2b4de3b02168686]
entity authenticate--><g id="elem_authenticate"><ellipse cx="620" cy="487.5" fill="#F1F1F1" rx="8" ry="8" style="stroke:#181818;stroke-width:0.5;"/><text fill="#000000" font-family="sans-serif" font-size="14" lengthAdjust="spacing" textLength="85" x="577.5" y="518.0352">authenticate</text></g><!--MD5=[733ebafc4ddc0c6f83011f92b027dea0]
entity couch_db--><g id="elem_couch_db"><path d="M210,857.5 C210,847.5 253,847.5 253,847.5 C253,847.5 296,847.5 296,857.5 L296,899.4766 C296,909.4766 253,909.4766 253,909.4766 C253,909.4766 210,909.4766 210,899.4766 L210,857.5 " fill="#FFFFF0" style="stroke:#000000;stroke-width:0.5;"/><path d="M210,857.5 C210,867.5 253,867.5 253,867.5 C253,867.5 296,867.5 296,857.5 " fill="none" style="stroke:#000000;stroke-width:0.5;"/><text fill="#000000" font-family="sans-serif" font-size="14" font-style="italic" lengthAdjust="spacing" textLength="59" x="223.5" y="885.0352">«NoSQL»</text><text fill="#000000" font-family="sans-serif" font-size="14" lengthAdjust="spacing" textLength="66" x="220" y="901.5234">Couch DB</text></g><!--MD5=[51969f2f23c9be6be87857b423767cab]
entity nosql_data_access--><g id="elem_nosql_data_access"><ellipse cx="238" cy="999" fill="#F1F1F1" rx="8" ry="8" style="stroke:#181818;stroke-width:0.5;"/><text fill="#000000" font-family="sans-serif" font-size="14" lengthAdjust="spacing" textLength="81" x="197.5" y="1029.5352">Data Access</text></g><!--MD5=[d1b457bbd51b46fbb259e557b99e92ae]
entity guests_internal--><g id="elem_guests_internal"><ellipse cx="432" cy="487.5" fill="#3D8CFF" rx="8" ry="8" style="stroke:#181818;stroke-width:0.5;"/><text fill="#000000" font-family="sans-serif" font-size="14" lengthAdjust="spacing" textLength="53" x="405.5" y="518.0352">internal</text></g><!--MD5=[da13416faa82b4a43890a3a8fce00ce4]
entity ms_guests--><g id="elem_ms_guests"><rect fill="#F1F1F1" height="62.9766" rx="2.5" ry="2.5" style="stroke:#181818;stroke-width:0.5;" width="113" x="363.5" y="591"/><rect fill="#F1F1F1" height="10" style="stroke:#181818;stroke-width:0.5;" width="15" x="456.5" y="596"/><rect fill="#F1F1F1" height="2" style="stroke:#181818;stroke-width:0.5;" width="4" x="454.5" y="598"/><rect fill="#F1F1F1" height="2" style="stroke:#181818;stroke-width:0.5;" width="4" x="454.5" y="602"/><text fill="#000000" font-family="sans-serif" font-size="14" font-style="italic" lengthAdjust="spacing" textLength="61" x="384.5" y="624.5352">«service»</text><text fill="#000000" font-family="sans-serif" font-size="14" lengthAdjust="spacing" textLength="73" x="378.5" y="641.0234">ms-guests</text></g><!--MD5=[5cab36fa4005937a2b6b834c5c84777d]
entity match_link_internal--><g id="elem_match_link_internal"><ellipse cx="419" cy="758" fill="#3D8CFF" rx="8" ry="8" style="stroke:#181818;stroke-width:0.5;"/><text fill="#000000" font-family="sans-serif" font-size="14" lengthAdjust="spacing" textLength="53" x="392.5" y="788.5352">internal</text></g><!--MD5=[62d3f8b598f37084172e0f95d652992a]
entity ms_match_link--><g id="elem_ms_match_link"><rect fill="#F1F1F1" height="62.9766" rx="2.5" ry="2.5" style="stroke:#181818;stroke-width:0.5;" width="143" x="346.5" y="847"/><rect fill="#F1F1F1" height="10" style="stroke:#181818;stroke-width:0.5;" width="15" x="469.5" y="852"/><rect fill="#F1F1F1" height="2" style="stroke:#181818;stroke-width:0.5;" width="4" x="467.5" y="854"/><rect fill="#F1F1F1" height="2" style="stroke:#181818;stroke-width:0.5;" width="4" x="467.5" y="858"/><text fill="#000000" font-family="sans-serif" font-size="14" font-style="italic" lengthAdjust="spacing" textLength="61" x="382.5" y="880.5352">«service»</text><text fill="#000000" font-family="sans-serif" font-size="14" lengthAdjust="spacing" textLength="103" x="361.5" y="897.0234">ms-match-link</text></g><!--MD5=[ba5a8998a04e4bdc0dbbcbd792069ae3]
entity wallet_internal--><g id="elem_wallet_internal"><ellipse cx="263" cy="487.5" fill="#3D8CFF" rx="8" ry="8" style="stroke:#181818;stroke-width:0.5;"/><text fill="#000000" font-family="sans-serif" font-size="14" lengthAdjust="spacing" textLength="53" x="236.5" y="518.0352">internal</text></g><!--MD5=[c01b3adff0033688fb146172ea200fae]
entity ms_wallet--><g id="elem_ms_wallet"><rect fill="#F1F1F1" height="62.9766" rx="2.5" ry="2.5" style="stroke:#181818;stroke-width:0.5;" width="108" x="199" y="591"/><rect fill="#F1F1F1" height="10" style="stroke:#181818;stroke-width:0.5;" width="15" x="287" y="596"/><rect fill="#F1F1F1" height="2" style="stroke:#181818;stroke-width:0.5;" width="4" x="285" y="598"/><rect fill="#F1F1F1" height="2" style="stroke:#181818;stroke-width:0.5;" width="4" x="285" y="602"/><text fill="#000000" font-family="sans-serif" font-size="14" font-style="italic" lengthAdjust="spacing" textLength="61" x="217.5" y="624.5352">«service»</text><text fill="#000000" font-family="sans-serif" font-size="14" lengthAdjust="spacing" textLength="68" x="214" y="641.0234">ms-wallet</text></g><!--MD5=[2331507006b4b8bee4c616015350b23c]
entity db2--><g id="elem_db2"><path d="M1131,466.5 C1131,456.5 1169,456.5 1169,456.5 C1169,456.5 1207,456.5 1207,466.5 L1207,508.4766 C1207,518.4766 1169,518.4766 1169,518.4766 C1169,518.4766 1131,518.4766 1131,508.4766 L1131,466.5 " fill="#808080" style="stroke:#000000;stroke-width:0.5;"/><path d="M1131,466.5 C1131,476.5 1169,476.5 1169,476.5 C1169,476.5 1207,476.5 1207,466.5 " fill="none" style="stroke:#000000;stroke-width:0.5;"/><text fill="#000000" font-family="sans-serif" font-size="14" font-style="italic" lengthAdjust="spacing" textLength="41" x="1148.5" y="494.0352">«DB2»</text><text fill="#000000" font-family="sans-serif" font-size="14" lengthAdjust="spacing" textLength="56" x="1141" y="510.5234">MDM AE</text></g><!--MD5=[a6fcae1b0bb86115d3670e6d135079c5]
entity mdm_internal--><g id="elem_mdm_internal"><ellipse cx="1004" cy="134" fill="#808080" rx="8" ry="8" style="stroke:#181818;stroke-width:0.5;"/><text fill="#000000" font-family="sans-serif" font-size="14" lengthAdjust="spacing" textLength="53" x="977.5" y="164.5352">internal</text></g><!--MD5=[405b1b76be19e5378968a026940b4d18]
entity mdm--><g id="elem_mdm"><rect fill="#808080" height="62.9766" rx="2.5" ry="2.5" style="stroke:#181818;stroke-width:0.5;" width="132" x="938" y="259"/><rect fill="#808080" height="10" style="stroke:#181818;stroke-width:0.5;" width="15" x="1050" y="264"/><rect fill="#808080" height="2" style="stroke:#181818;stroke-width:0.5;" width="4" x="1048" y="266"/><rect fill="#808080" height="2" style="stroke:#181818;stroke-width:0.5;" width="4" x="1048" y="270"/><text fill="#000000" font-family="sans-serif" font-size="14" font-style="italic" lengthAdjust="spacing" textLength="92" x="953" y="292.5352">«component»</text><text fill="#000000" font-family="sans-serif" font-size="14" lengthAdjust="spacing" textLength="71" x="963.5" y="309.0234">MDM Core</text></g><!--MD5=[9da4f503ff78b8d9a7d83b6ce15996cd]
entity match_merge--><g id="elem_match_merge"><rect fill="#808080" height="62.9766" rx="2.5" ry="2.5" style="stroke:#181818;stroke-width:0.5;" width="142" x="933" y="456"/><rect fill="#808080" height="10" style="stroke:#181818;stroke-width:0.5;" width="15" x="1055" y="461"/><rect fill="#808080" height="2" style="stroke:#181818;stroke-width:0.5;" width="4" x="1053" y="463"/><rect fill="#808080" height="2" style="stroke:#181818;stroke-width:0.5;" width="4" x="1053" y="467"/><text fill="#000000" font-family="sans-serif" font-size="14" font-style="italic" lengthAdjust="spacing" textLength="92" x="953" y="489.5352">«component»</text><text fill="#000000" font-family="sans-serif" font-size="14" lengthAdjust="spacing" textLength="102" x="948" y="506.0234">Match &amp; Merge</text></g><!--MD5=[741f803b0826940167ea2a9cc6fd3e1f]
entity data_lake--><g id="elem_data_lake"><polygon fill="#87CEFA" points="37,865.5,47,855.5,143,855.5,143,891.9883,133,901.9883,37,901.9883,37,865.5" style="stroke:#181818;stroke-width:0.5;"/><line style="stroke:#181818;stroke-width:0.5;" x1="133" x2="143" y1="865.5" y2="855.5"/><line style="stroke:#181818;stroke-width:0.5;" x1="37" x2="133" y1="865.5" y2="865.5"/><line style="stroke:#181818;stroke-width:0.5;" x1="133" x2="133" y1="865.5" y2="901.9883"/><text fill="#000000" font-family="sans-serif" font-size="14" lengthAdjust="spacing" textLength="66" x="52" y="889.0352">Data Lake</text></g><!--MD5=[45f2ff5085d056267707c7d276a8e149]
link guests_internal to ms_guests--><g id="link_guests_internal_ms_guests"><path d="M431.25,496.82 C429.59,515.25 425.52,560.28 422.76,590.87 " fill="none" id="guests_internal-ms_guests" style="stroke:#181818;stroke-width:1.0;"/></g><!--MD5=[72b93564d7b3717664eeb4292de3234d]
link match_link_internal to ms_match_link--><g id="link_match_link_internal_ms_match_link"><path d="M418.93,767.14 C418.79,783.3 418.48,820.15 418.26,846.83 " fill="none" id="match_link_internal-ms_match_link" style="stroke:#181818;stroke-width:1.0;"/></g><!--MD5=[1c8b8e41eec736a525d44e0fb642894e]
link wallet_internal to ms_wallet--><g id="link_wallet_internal_ms_wallet"><path d="M262.37,496.82 C260.99,515.25 257.6,560.28 255.3,590.87 " fill="none" id="wallet_internal-ms_wallet" style="stroke:#181818;stroke-width:1.0;"/></g><!--MD5=[ff2c8ffe4ac8a7023e5f9019dae9d8ea]
link mdm_internal to mdm--><g id="link_mdm_internal_mdm"><path d="M1004,143.31 C1004,164.74 1004,222.77 1004,258.94 " fill="none" id="mdm_internal-mdm" style="stroke:#181818;stroke-width:1.0;"/></g><!--MD5=[3ad645b36e0682e35fcd146811f96dd6]
link mdm to match_merge--><g id="link_mdm_match_merge"><path d="M1004,322.4 C1004,357.2 1004,413.69 1004,450.47 " fill="none" id="mdm-to-match_merge" style="stroke:#181818;stroke-width:1.0;"/><polygon fill="#181818" points="1004,455.75,1008,446.75,1004,450.75,1000,446.75,1004,455.75" style="stroke:#181818;stroke-width:1.0;"/></g><!--MD5=[7cfff68bcc2716ad4181fc1863047860]
link mdm_package to db2--><g id="link_mdm_package_db2"><path d="M1107.1786,176.067 C1107.3246,176.8001 1107.4722,177.5411 1107.6213,178.2896 C1107.9194,179.7867 1108.2236,181.3144 1108.5337,182.8712 C1109.1538,185.9849 1109.7971,189.2153 1110.4615,192.5516 C1111.7903,199.2242 1113.2035,206.3205 1114.6837,213.7537 C1117.6442,228.6203 1120.8731,244.835 1124.2325,261.705 C1137.67,329.185 1153.195,407.15 1161.98,451.26 " fill="none" id="mdm_package-to-db2" style="stroke:#181818;stroke-width:1.0;stroke-dasharray:7.0,7.0;"/><polygon fill="#181818" points="1163,456.37,1165.1734,446.764,1162.0277,451.4655,1157.3262,448.3197,1163,456.37" style="stroke:#181818;stroke-width:1.0;"/></g><!--MD5=[d34598303d7fa10629cd19607aaecda7]
link public to guests_internal--><g id="link_public_guests_internal"><path d="M432,299.88 C432,329.14 432,427.19 432,468.21 " fill="none" id="public-to-guests_internal" style="stroke:#181818;stroke-width:1.0;"/><path d="M440.4572,475.2918 A9,9 0 0 0 423.5428 475.2918" fill="none" style="stroke:#181818;stroke-width:1.5;"/></g><!--MD5=[d83300e87129440bfc8092f7490ad1bc]
link public to wallet_internal--><g id="link_public_wallet_internal"><path d="M422.95,298.45 C406.72,311.16 372.02,339.42 347,367.5 C316.98,401.18 288,445.72 273.2,469.62 " fill="none" id="public-to-wallet_internal" style="stroke:#181818;stroke-width:1.0;"/><path d="M276.739,480.036 A9,9 0 0 0 262.3187 471.1954" fill="none" style="stroke:#181818;stroke-width:1.5;"/></g><!--MD5=[5b0924be97d99f4b42712c7be1e32466]
link ms_guests to couch_db--><g id="link_ms_guests_couch_db"><path d="M364.79,654.3 C352.14,663.27 339.61,673.95 330,686 C292.33,733.25 270.87,801.35 260.62,842.33 " fill="none" id="ms_guests-to-couch_db" style="stroke:#181818;stroke-width:1.0;stroke-dasharray:7.0,7.0;"/><polygon fill="#181818" points="259.42,847.19,265.4403,839.3954,260.6058,842.3326,257.6685,837.4981,259.42,847.19" style="stroke:#181818;stroke-width:1.0;"/></g><!--MD5=[9f95cd16f260286e55319d7268c9ccae]
link ms_wallet to couch_db--><g id="link_ms_wallet_couch_db"><path d="M253,654.14 C253,701.46 253,792.1 253,842.14 " fill="none" id="ms_wallet-to-couch_db" style="stroke:#181818;stroke-width:1.0;stroke-dasharray:7.0,7.0;"/><polygon fill="#181818" points="253,847.15,257,838.15,253,842.15,249,838.15,253,847.15" style="stroke:#181818;stroke-width:1.0;"/></g><!--MD5=[31a5899a1d35084ec145db3d9932b64c]
link couch_db to nosql_data_access--><g id="link_couch_db_nosql_data_access"><path d="M249.18,909.71 C245.81,936.31 241.13,973.3 239.06,989.65 " fill="none" id="couch_db-nosql_data_access" style="stroke:#181818;stroke-width:1.0;"/></g><!--MD5=[c615f89baa09b41f7aa777cc85663aa4]
link data_lake to nosql_data_access--><g id="link_data_lake_nosql_data_access"><path d="M117.49,901.51 C147.7,925.7 195.3,963.81 220.69,984.14 " fill="none" id="data_lake-to-nosql_data_access" style="stroke:#181818;stroke-width:1.0;"/><path d="M231.5709,982.0169 A9,9 0 0 0 220.9869 995.2108" fill="none" style="stroke:#181818;stroke-width:1.5;"/></g><!--MD5=[a4f05636c79c6ff7f51e72a997694e36]
link ms_guests to match_link_internal--><g id="link_ms_guests_match_link_internal"><path d="M419.77,654.13 C419.58,680.23 419.3,716.87 419.14,738.65 " fill="none" id="ms_guests-to-match_link_internal" style="stroke:#181818;stroke-width:1.0;"/><path d="M427.539,745.7923 A9,9 0 0 0 410.625 745.6715" fill="none" style="stroke:#181818;stroke-width:1.5;"/></g><!--MD5=[63987f2523f840777e1b0e6c36cb14c5]
link ms_match_link to guests_internal--><g id="link_ms_match_link_guests_internal"><path d="M439.25,846.93 C450.17,829.95 462.86,808.06 471,787 C502.62,705.19 517.56,675.48 494,591 C484.59,557.28 460.75,523.58 445.52,504.46 " fill="none" id="ms_match_link-to-guests_internal" style="stroke:#181818;stroke-width:1.0;"/><path d="M434.4454,504.2747 A9,9 0 0 0 447.5203 493.5441" fill="none" style="stroke:#181818;stroke-width:1.5;"/></g><!--MD5=[a00e3b328ec6eb930c807630108aa710]
link android to public--><g id="link_android_public"><path d="M628.06,165.53 C617.03,174.9 603.82,184.14 590,189.5 C564.05,199.56 487.24,180.76 465,197.5 C441.9,214.88 434.93,249.88 432.85,271.34 " fill="none" id="android-to-public" style="stroke:#181818;stroke-width:1.0;"/><path d="M440.7953,278.9631 A9,9 0 0 0 423.9239 277.7563" fill="none" style="stroke:#181818;stroke-width:1.5;"/></g><!--MD5=[b6e357b018622cc2c3a198e565c63111]
link ios to public--><g id="link_ios_public"><path d="M489.48,165.79 C480.68,175.34 471.74,186.3 465,197.5 C450.66,221.32 441.16,252.33 436.18,271.58 " fill="none" id="ios-to-public" style="stroke:#181818;stroke-width:1.0;"/><path d="M442.7073,280.4277 A9,9 0 0 0 426.281 276.3936" fill="none" style="stroke:#181818;stroke-width:1.5;"/></g><!--MD5=[ecb94a0cf9f4839855044905b2ff185b]
link web to public--><g id="link_web_public"><path d="M359.78,165.52 C378.41,197.51 407.02,246.62 422.02,272.38 " fill="none" id="web-to-public" style="stroke:#181818;stroke-width:1.0;"/><path d="M432.9835,274.3892 A9,9 0 0 0 418.374 282.9134" fill="none" style="stroke:#181818;stroke-width:1.5;"/></g><!--MD5=[c9dad59e6393349c0842912da04d4439]
link teammember to public--><g id="link_teammember_public"><path d="M182.51,165.64 C197.98,173.44 214.6,181.8 230,189.5 C297.54,223.26 378.02,262.94 413.57,280.43 " fill="none" id="teammember-to-public" style="stroke:#181818;stroke-width:1.0;"/><path d="M423.6962,275.992 A9,9 0 0 0 416.2382 291.1735" fill="none" style="stroke:#181818;stroke-width:1.5;"/></g><!--MD5=[7c614c6059d17c678bbabd0113cb2b05]
link gateway to authenticate--><g id="link_gateway_authenticate"><path d="M544.2231,310.5839 C544.305,310.7739 544.3873,310.9651 544.4702,311.1574 C544.6359,311.5421 544.8036,311.9314 544.9732,312.3251 C545.3125,313.1127 545.6596,313.9183 546.0141,314.7413 C551.6863,327.9081 559.2663,345.505 567.415,364.4225 C583.7125,402.2575 602.285,445.375 612.42,468.9 " fill="none" id="gateway-to-authenticate" style="stroke:#181818;stroke-width:1.0;"/><path d="M623.0493,472.1969 A9,9 0 0 0 607.515 478.889" fill="none" style="stroke:#181818;stroke-width:1.5;"/></g><!--MD5=[b4322eaaac4953aef3a5c0288effdf59]
@startuml

skinparam database {
    backgroundColor Ivory
    borderColor black
}

skinparam package {
    backgroundColor #F0E442
}

node "API Gateway" as gateway {
    interface public #YellowGreen
}

node "UI" #Strategy {
    component "Android" as android <<mobile>>
    component "iOS" as ios <<mobile>>
    component "universalorlando.com" as web <<public web>>
    component "Team Member Tools" as teammember <<internal web>>
}

node "LDAP" as ldap <<ldap>> #BurlyWood {
    folder "LDAP Directory" as ldap_dir
    interface authenticate
}

node "Microservices" #MediumTurquoise {
    package "ms-guests" as guests_package {
        interface internal as guests_internal #3D8CFF
        component "ms-guests" as ms_guests <<service>>
        guests_internal - - ms_guests
    }
    package "ms-match-link" as match_link_package {
        interface internal as match_link_internal #3D8CFF
        component "ms-match-link" as ms_match_link <<service>>
        match_link_internal - - ms_match_link
    }
    package "ms-wallet" as wallet_package {
        interface internal as wallet_internal #3D8CFF
        component "ms-wallet" as ms_wallet <<service>>
        wallet_internal - - ms_wallet
    }
    database "Couch DB" as couch_db <<NoSQL>>
    interface "Data Access" as nosql_data_access
}

node "IBM" #Gray {
    package "MDM AE" as mdm_package #Gray {
        interface internal as mdm_internal #Gray
        component "MDM Core" as mdm <<component>> #Gray
        component "Match & Merge" as match_merge <<component>> #Gray
    }
    database "MDM AE" as db2 <<DB2>> #Gray
    mdm_internal - - mdm
    mdm - -> match_merge
    mdm_package - -.> db2
}

node "Data Lake" as data_lake #LightSkyBlue

'Gateway'
public - -( guests_internal
public - -( wallet_internal

'Couch'
ms_guests - -.> couch_db
ms_wallet - -.> couch_db
couch_db - - nosql_data_access
data_lake - -( nosql_data_access

'MS'
ms_guests - -( match_link_internal
ms_match_link - -( guests_internal

'UI'
android - -( public
ios - -( public
web - -( public
teammember - -( public

'LDAP'
gateway - -( authenticate

'MDM'


@enduml

@startuml

skinparam database {
    backgroundColor Ivory
    borderColor black
}

skinparam package {
    backgroundColor #F0E442
}

node "API Gateway" as gateway {
    interface public #YellowGreen
}

node "UI" #Strategy {
    component "Android" as android <<mobile>>
    component "iOS" as ios <<mobile>>
    component "universalorlando.com" as web <<public web>>
    component "Team Member Tools" as teammember <<internal web>>
}

node "LDAP" as ldap <<ldap>> #BurlyWood {
    folder "LDAP Directory" as ldap_dir
    interface authenticate
}

node "Microservices" #MediumTurquoise {
    package "ms-guests" as guests_package {
        interface internal as guests_internal #3D8CFF
        component "ms-guests" as ms_guests <<service>>
        guests_internal - - ms_guests
    }
    package "ms-match-link" as match_link_package {
        interface internal as match_link_internal #3D8CFF
        component "ms-match-link" as ms_match_link <<service>>
        match_link_internal - - ms_match_link
    }
    package "ms-wallet" as wallet_package {
        interface internal as wallet_internal #3D8CFF
        component "ms-wallet" as ms_wallet <<service>>
        wallet_internal - - ms_wallet
    }
    database "Couch DB" as couch_db <<NoSQL>>
    interface "Data Access" as nosql_data_access
}

node "IBM" #Gray {
    package "MDM AE" as mdm_package #Gray {
        interface internal as mdm_internal #Gray
        component "MDM Core" as mdm <<component>> #Gray
        component "Match & Merge" as match_merge <<component>> #Gray
    }
    database "MDM AE" as db2 <<DB2>> #Gray
    mdm_internal - - mdm
    mdm - -> match_merge
    mdm_package - -.> db2
}

node "Data Lake" as data_lake #LightSkyBlue

public - -( guests_internal
public - -( wallet_internal

ms_guests - -.> couch_db
ms_wallet - -.> couch_db
couch_db - - nosql_data_access
data_lake - -( nosql_data_access

ms_guests - -( match_link_internal
ms_match_link - -( guests_internal

android - -( public
ios - -( public
web - -( public
teammember - -( public

gateway - -( authenticate



@enduml

PlantUML version 1.2022.7(Mon Aug 22 13:01:30 EDT 2022)
(GPL source distribution)
Java Runtime: OpenJDK Runtime Environment
JVM: OpenJDK 64-Bit Server VM
Default Encoding: UTF-8
Language: en
Country: US
--></g></svg>