<?xml version="1.0" encoding="UTF-8" standalone="no"?><svg xmlns="http://www.w3.org/2000/svg" xmlns:xlink="http://www.w3.org/1999/xlink" contentStyleType="text/css" height="919px" preserveAspectRatio="none" style="width:1112px;height:919px;background:#FFFFFF;" version="1.1" viewBox="0 0 1112 919" width="1112px" zoomAndPan="magnify"><defs/><g><!--MD5=[9681dc6e01e10c6b4fe06895ae94f592]
cluster UI--><g id="cluster_UI"><polygon fill="#F8E7C0" points="16,72.5,26,62.5,725,62.5,725,171.5,715,181.5,16,181.5,16,72.5" style="stroke:#181818;stroke-width:1.0;"/><line style="stroke:#181818;stroke-width:1.0;" x1="715" x2="725" y1="72.5" y2="62.5"/><line style="stroke:#181818;stroke-width:1.0;" x1="16" x2="715" y1="72.5" y2="72.5"/><line style="stroke:#181818;stroke-width:1.0;" x1="715" x2="715" y1="72.5" y2="181.5"/><text fill="#000000" font-family="sans-serif" font-size="14" font-weight="bold" lengthAdjust="spacing" textLength="15" x="359" y="89.0352">UI</text></g><!--MD5=[1feb5a0622a9211287ff216bc4a47e33]
cluster ldap--><g id="cluster_ldap"><polygon fill="#DEB887" points="530,546,540,536,729,536,729,668,719,678,530,678,530,546" style="stroke:#181818;stroke-width:1.0;"/><line style="stroke:#181818;stroke-width:1.0;" x1="719" x2="729" y1="546" y2="536"/><line style="stroke:#181818;stroke-width:1.0;" x1="530" x2="719" y1="546" y2="546"/><line style="stroke:#181818;stroke-width:1.0;" x1="719" x2="719" y1="546" y2="678"/><text fill="#000000" font-family="sans-serif" font-size="14" font-style="italic" lengthAdjust="spacing" textLength="44" x="603.5" y="562.5352">«ldap»</text><text fill="#000000" font-family="sans-serif" font-size="14" font-weight="bold" lengthAdjust="spacing" textLength="38" x="606.5" y="579.0234">LDAP</text></g><!--MD5=[f72e8905bd6e3a370cb106f12698fafd]
cluster Microservices--><g id="cluster_Microservices"><polygon fill="#48D1CC" points="114,314.5,124,304.5,472,304.5,472,892.5,462,902.5,114,902.5,114,314.5" style="stroke:#181818;stroke-width:1.0;"/><line style="stroke:#181818;stroke-width:1.0;" x1="462" x2="472" y1="314.5" y2="304.5"/><line style="stroke:#181818;stroke-width:1.0;" x1="114" x2="462" y1="314.5" y2="314.5"/><line style="stroke:#181818;stroke-width:1.0;" x1="462" x2="462" y1="314.5" y2="902.5"/><text fill="#000000" font-family="sans-serif" font-size="14" font-weight="bold" lengthAdjust="spacing" textLength="98" x="240" y="331.0352">Microservices</text></g><!--MD5=[155688ac9c6405cb28b411556fc5fed5]
cluster guests_package--><g id="cluster_guests_package"><path d="M304.5,352.5 L384.5,352.5 A3.75,3.75 0 0 1 387,355 L394,374.9883 L445.5,374.9883 A2.5,2.5 0 0 1 448,377.4883 L448,672 A2.5,2.5 0 0 1 445.5,674.5 L304.5,674.5 A2.5,2.5 0 0 1 302,672 L302,355 A2.5,2.5 0 0 1 304.5,352.5 " fill="#F0E442" style="stroke:#000000;stroke-width:1.5;"/><line style="stroke:#000000;stroke-width:1.5;" x1="302" x2="394" y1="374.9883" y2="374.9883"/><text fill="#000000" font-family="sans-serif" font-size="14" font-weight="bold" lengthAdjust="spacing" textLength="79" x="306" y="368.0352">ms-guests</text></g><!--MD5=[6c2879b2d2bb996634356ed1d183dc5e]
cluster wallet_package--><g id="cluster_wallet_package"><path d="M140.5,352.5 L216.5,352.5 A3.75,3.75 0 0 1 219,355 L226,374.9883 L275.5,374.9883 A2.5,2.5 0 0 1 278,377.4883 L278,672 A2.5,2.5 0 0 1 275.5,674.5 L140.5,674.5 A2.5,2.5 0 0 1 138,672 L138,355 A2.5,2.5 0 0 1 140.5,352.5 " fill="#F0E442" style="stroke:#000000;stroke-width:1.5;"/><line style="stroke:#000000;stroke-width:1.5;" x1="138" x2="226" y1="374.9883" y2="374.9883"/><text fill="#000000" font-family="sans-serif" font-size="14" font-weight="bold" lengthAdjust="spacing" textLength="75" x="142" y="368.0352">ms-wallet</text></g><!--MD5=[6335950ccef517345999595fcd67b7eb]
cluster IBM--><g id="cluster_IBM"><polygon fill="#808080" points="749,16,759,6,1095,6,1095,494,1085,504,749,504,749,16" style="stroke:#181818;stroke-width:1.0;"/><line style="stroke:#181818;stroke-width:1.0;" x1="1085" x2="1095" y1="16" y2="6"/><line style="stroke:#181818;stroke-width:1.0;" x1="749" x2="1085" y1="16" y2="16"/><line style="stroke:#181818;stroke-width:1.0;" x1="1085" x2="1085" y1="16" y2="504"/><text fill="#000000" font-family="sans-serif" font-size="14" font-weight="bold" lengthAdjust="spacing" textLength="27" x="904.5" y="32.5352">IBM</text></g><!--MD5=[c5d0bdb92111ab1f7056b8d8fe221503]
cluster mdm_package--><g id="cluster_mdm_package"><path d="M783.5,62 L844.5,62 A3.75,3.75 0 0 1 847,64.5 L854,84.4883 L976.5,84.4883 A2.5,2.5 0 0 1 979,86.9883 L979,469.5 A2.5,2.5 0 0 1 976.5,472 L783.5,472 A2.5,2.5 0 0 1 781,469.5 L781,64.5 A2.5,2.5 0 0 1 783.5,62 " fill="#808080" style="stroke:#000000;stroke-width:1.5;"/><line style="stroke:#000000;stroke-width:1.5;" x1="781" x2="854" y1="84.4883" y2="84.4883"/><text fill="#000000" font-family="sans-serif" font-size="14" font-weight="bold" lengthAdjust="spacing" textLength="60" x="785" y="77.5352">MDM AE</text></g><!--MD5=[d0e2a5f97e7b84b4a52fc47ac0121b09]
entity android--><g id="elem_android"><rect fill="#F1F1F1" height="62.9766" rx="2.5" ry="2.5" style="stroke:#181818;stroke-width:0.5;" width="101" x="392.5" y="102.5"/><rect fill="#F1F1F1" height="10" style="stroke:#181818;stroke-width:0.5;" width="15" x="473.5" y="107.5"/><rect fill="#F1F1F1" height="2" style="stroke:#181818;stroke-width:0.5;" width="4" x="471.5" y="109.5"/><rect fill="#F1F1F1" height="2" style="stroke:#181818;stroke-width:0.5;" width="4" x="471.5" y="113.5"/><text fill="#000000" font-family="sans-serif" font-size="14" font-style="italic" lengthAdjust="spacing" textLength="61" x="407.5" y="136.0352">«mobile»</text><text fill="#000000" font-family="sans-serif" font-size="14" lengthAdjust="spacing" textLength="56" x="410" y="152.5234">Android</text></g><!--MD5=[be09490d94791046e3419ff8f61a31bb]
entity ios--><g id="elem_ios"><rect fill="#F1F1F1" height="62.9766" rx="2.5" ry="2.5" style="stroke:#181818;stroke-width:0.5;" width="101" x="256.5" y="102.5"/><rect fill="#F1F1F1" height="10" style="stroke:#181818;stroke-width:0.5;" width="15" x="337.5" y="107.5"/><rect fill="#F1F1F1" height="2" style="stroke:#181818;stroke-width:0.5;" width="4" x="335.5" y="109.5"/><rect fill="#F1F1F1" height="2" style="stroke:#181818;stroke-width:0.5;" width="4" x="335.5" y="113.5"/><text fill="#000000" font-family="sans-serif" font-size="14" font-style="italic" lengthAdjust="spacing" textLength="61" x="271.5" y="136.0352">«mobile»</text><text fill="#000000" font-family="sans-serif" font-size="14" lengthAdjust="spacing" textLength="23" x="290.5" y="152.5234">iOS</text></g><!--MD5=[08af8945a84acfe1eabc0963aa87c412]
entity web--><g id="elem_web"><rect fill="#F1F1F1" height="62.9766" rx="2.5" ry="2.5" style="stroke:#181818;stroke-width:0.5;" width="189" x="32.5" y="102.5"/><rect fill="#F1F1F1" height="10" style="stroke:#181818;stroke-width:0.5;" width="15" x="201.5" y="107.5"/><rect fill="#F1F1F1" height="2" style="stroke:#181818;stroke-width:0.5;" width="4" x="199.5" y="109.5"/><rect fill="#F1F1F1" height="2" style="stroke:#181818;stroke-width:0.5;" width="4" x="199.5" y="113.5"/><text fill="#000000" font-family="sans-serif" font-size="14" font-style="italic" lengthAdjust="spacing" textLength="88" x="78" y="136.0352">«public web»</text><text fill="#000000" font-family="sans-serif" font-size="14" lengthAdjust="spacing" textLength="149" x="47.5" y="152.5234">universalorlando.com</text></g><!--MD5=[95dd478b86db0b9ac73366f6568c523e]
entity teammember--><g id="elem_teammember"><rect fill="#F1F1F1" height="62.9766" rx="2.5" ry="2.5" style="stroke:#181818;stroke-width:0.5;" width="180" x="529" y="102.5"/><rect fill="#F1F1F1" height="10" style="stroke:#181818;stroke-width:0.5;" width="15" x="689" y="107.5"/><rect fill="#F1F1F1" height="2" style="stroke:#181818;stroke-width:0.5;" width="4" x="687" y="109.5"/><rect fill="#F1F1F1" height="2" style="stroke:#181818;stroke-width:0.5;" width="4" x="687" y="113.5"/><text fill="#000000" font-family="sans-serif" font-size="14" font-style="italic" lengthAdjust="spacing" textLength="99" x="564.5" y="136.0352">«internal web»</text><text fill="#000000" font-family="sans-serif" font-size="14" lengthAdjust="spacing" textLength="140" x="544" y="152.5234">Team Member Tools</text></g><!--MD5=[85d3f8ffd301b42283bb9f0f23821f75]
entity ldap_dir--><g id="elem_ldap_dir"><path d="M576,600 L617,600 A3.75,3.75 0 0 1 619.5,602.5 L626.5,621 L702,621 A2.5,2.5 0 0 1 704.5,623.5 L704.5,651.9883 A2.5,2.5 0 0 1 702,654.4883 L576,654.4883 A2.5,2.5 0 0 1 573.5,651.9883 L573.5,602.5 A2.5,2.5 0 0 1 576,600 " fill="#F1F1F1" style="stroke:#181818;stroke-width:0.5;"/><line style="stroke:#181818;stroke-width:0.5;" x1="573.5" x2="626.5" y1="621" y2="621"/><text fill="#000000" font-family="sans-serif" font-size="14" lengthAdjust="spacing" textLength="101" x="583.5" y="641.5352">LDAP Directory</text></g><!--MD5=[51969f2f23c9be6be87857b423767cab]
entity nosql_data_access--><g id="elem_nosql_data_access"><ellipse cx="447" cy="855.5" fill="#F1F1F1" rx="8" ry="8" style="stroke:#181818;stroke-width:0.5;"/><text fill="#000000" font-family="sans-serif" font-size="14" lengthAdjust="spacing" textLength="81" x="406.5" y="886.0352">Data Access</text></g><!--MD5=[d1b457bbd51b46fbb259e557b99e92ae]
entity guests_internal--><g id="elem_guests_internal"><ellipse cx="375" cy="416.5" fill="#3D8CFF" rx="8" ry="8" style="stroke:#181818;stroke-width:0.5;"/><text fill="#000000" font-family="sans-serif" font-size="14" lengthAdjust="spacing" textLength="53" x="348.5" y="447.0352">internal</text></g><!--MD5=[da13416faa82b4a43890a3a8fce00ce4]
entity ms_guests--><g id="elem_ms_guests"><rect fill="#F1F1F1" height="62.9766" rx="2.5" ry="2.5" style="stroke:#181818;stroke-width:0.5;" width="113" x="318.5" y="595.5"/><rect fill="#F1F1F1" height="10" style="stroke:#181818;stroke-width:0.5;" width="15" x="411.5" y="600.5"/><rect fill="#F1F1F1" height="2" style="stroke:#181818;stroke-width:0.5;" width="4" x="409.5" y="602.5"/><rect fill="#F1F1F1" height="2" style="stroke:#181818;stroke-width:0.5;" width="4" x="409.5" y="606.5"/><text fill="#000000" font-family="sans-serif" font-size="14" font-style="italic" lengthAdjust="spacing" textLength="61" x="339.5" y="629.0352">«service»</text><text fill="#000000" font-family="sans-serif" font-size="14" lengthAdjust="spacing" textLength="73" x="333.5" y="645.5234">ms-guests</text></g><!--MD5=[ba5a8998a04e4bdc0dbbcbd792069ae3]
entity wallet_internal--><g id="elem_wallet_internal"><ellipse cx="218" cy="416.5" fill="#3D8CFF" rx="8" ry="8" style="stroke:#181818;stroke-width:0.5;"/><text fill="#000000" font-family="sans-serif" font-size="14" lengthAdjust="spacing" textLength="53" x="191.5" y="447.0352">internal</text></g><!--MD5=[c01b3adff0033688fb146172ea200fae]
entity ms_wallet--><g id="elem_ms_wallet"><rect fill="#F1F1F1" height="62.9766" rx="2.5" ry="2.5" style="stroke:#181818;stroke-width:0.5;" width="108" x="154" y="595.5"/><rect fill="#F1F1F1" height="10" style="stroke:#181818;stroke-width:0.5;" width="15" x="242" y="600.5"/><rect fill="#F1F1F1" height="2" style="stroke:#181818;stroke-width:0.5;" width="4" x="240" y="602.5"/><rect fill="#F1F1F1" height="2" style="stroke:#181818;stroke-width:0.5;" width="4" x="240" y="606.5"/><text fill="#000000" font-family="sans-serif" font-size="14" font-style="italic" lengthAdjust="spacing" textLength="61" x="172.5" y="629.0352">«service»</text><text fill="#000000" font-family="sans-serif" font-size="14" lengthAdjust="spacing" textLength="68" x="169" y="645.5234">ms-wallet</text></g><!--MD5=[733ebafc4ddc0c6f83011f92b027dea0]
entity couch_db--><g id="elem_couch_db"><path d="M317,834.5 C317,824.5 360,824.5 360,824.5 C360,824.5 403,824.5 403,834.5 L403,876.4766 C403,886.4766 360,886.4766 360,886.4766 C360,886.4766 317,886.4766 317,876.4766 L317,834.5 " fill="#FFFFF0" style="stroke:#000000;stroke-width:0.5;"/><path d="M317,834.5 C317,844.5 360,844.5 360,844.5 C360,844.5 403,844.5 403,834.5 " fill="none" style="stroke:#000000;stroke-width:0.5;"/><text fill="#000000" font-family="sans-serif" font-size="14" font-style="italic" lengthAdjust="spacing" textLength="59" x="330.5" y="862.0352">«NoSQL»</text><text fill="#000000" font-family="sans-serif" font-size="14" lengthAdjust="spacing" textLength="66" x="327" y="878.5234">Couch DB</text></g><!--MD5=[2331507006b4b8bee4c616015350b23c]
entity db2--><g id="elem_db2"><path d="M1003,395.5 C1003,385.5 1041,385.5 1041,385.5 C1041,385.5 1079,385.5 1079,395.5 L1079,437.4766 C1079,447.4766 1041,447.4766 1041,447.4766 C1041,447.4766 1003,447.4766 1003,437.4766 L1003,395.5 " fill="#808080" style="stroke:#000000;stroke-width:0.5;"/><path d="M1003,395.5 C1003,405.5 1041,405.5 1041,405.5 C1041,405.5 1079,405.5 1079,395.5 " fill="none" style="stroke:#000000;stroke-width:0.5;"/><text fill="#000000" font-family="sans-serif" font-size="14" font-style="italic" lengthAdjust="spacing" textLength="41" x="1020.5" y="423.0352">«DB2»</text><text fill="#000000" font-family="sans-serif" font-size="14" lengthAdjust="spacing" textLength="56" x="1013" y="439.5234">MDM AE</text></g><!--MD5=[a6fcae1b0bb86115d3670e6d135079c5]
entity mdm_internal--><g id="elem_mdm_internal"><ellipse cx="876" cy="134" fill="#808080" rx="8" ry="8" style="stroke:#181818;stroke-width:0.5;"/><text fill="#000000" font-family="sans-serif" font-size="14" lengthAdjust="spacing" textLength="53" x="849.5" y="164.5352">internal</text></g><!--MD5=[405b1b76be19e5378968a026940b4d18]
entity mdm--><g id="elem_mdm"><rect fill="#808080" height="62.9766" rx="2.5" ry="2.5" style="stroke:#181818;stroke-width:0.5;" width="132" x="810" y="225.5"/><rect fill="#808080" height="10" style="stroke:#181818;stroke-width:0.5;" width="15" x="922" y="230.5"/><rect fill="#808080" height="2" style="stroke:#181818;stroke-width:0.5;" width="4" x="920" y="232.5"/><rect fill="#808080" height="2" style="stroke:#181818;stroke-width:0.5;" width="4" x="920" y="236.5"/><text fill="#000000" font-family="sans-serif" font-size="14" font-style="italic" lengthAdjust="spacing" textLength="92" x="825" y="259.0352">«component»</text><text fill="#000000" font-family="sans-serif" font-size="14" lengthAdjust="spacing" textLength="71" x="835.5" y="275.5234">MDM Core</text></g><!--MD5=[9da4f503ff78b8d9a7d83b6ce15996cd]
entity match_merge--><g id="elem_match_merge"><rect fill="#808080" height="62.9766" rx="2.5" ry="2.5" style="stroke:#181818;stroke-width:0.5;" width="142" x="805" y="385"/><rect fill="#808080" height="10" style="stroke:#181818;stroke-width:0.5;" width="15" x="927" y="390"/><rect fill="#808080" height="2" style="stroke:#181818;stroke-width:0.5;" width="4" x="925" y="392"/><rect fill="#808080" height="2" style="stroke:#181818;stroke-width:0.5;" width="4" x="925" y="396"/><text fill="#000000" font-family="sans-serif" font-size="14" font-style="italic" lengthAdjust="spacing" textLength="92" x="825" y="418.5352">«component»</text><text fill="#000000" font-family="sans-serif" font-size="14" lengthAdjust="spacing" textLength="102" x="820" y="435.0234">Match &amp; Merge</text></g><!--MD5=[7b30460008fc71f9986330c33ee2d290]
entity gateway--><g id="elem_gateway"><ellipse cx="375" cy="257" fill="#9ACD32" rx="8" ry="8" style="stroke:#181818;stroke-width:0.5;"/><text fill="#000000" font-family="sans-serif" font-size="14" lengthAdjust="spacing" textLength="56" x="347" y="287.5352">gateway</text></g><!--MD5=[58fe32485a25c6dfb2b4de3b02168686]
entity authenticate--><g id="elem_authenticate"><ellipse cx="538" cy="416.5" fill="#FF0000" rx="8" ry="8" style="stroke:#181818;stroke-width:0.5;"/><text fill="#000000" font-family="sans-serif" font-size="14" lengthAdjust="spacing" textLength="85" x="495.5" y="447.0352">authenticate</text></g><!--MD5=[741f803b0826940167ea2a9cc6fd3e1f]
entity data_lake--><g id="elem_data_lake"><rect fill="#F1F1F1" height="46.4883" rx="2.5" ry="2.5" style="stroke:#181818;stroke-width:0.5;" width="106" x="488" y="718.5"/><rect fill="#F1F1F1" height="10" style="stroke:#181818;stroke-width:0.5;" width="15" x="574" y="723.5"/><rect fill="#F1F1F1" height="2" style="stroke:#181818;stroke-width:0.5;" width="4" x="572" y="725.5"/><rect fill="#F1F1F1" height="2" style="stroke:#181818;stroke-width:0.5;" width="4" x="572" y="729.5"/><text fill="#000000" font-family="sans-serif" font-size="14" lengthAdjust="spacing" textLength="66" x="503" y="752.0352">Data Lake</text></g><!--MD5=[45f2ff5085d056267707c7d276a8e149]
link guests_internal to ms_guests--><g id="link_guests_internal_ms_guests"><path d="M375,425.67 C375,453.61 375,546.24 375,595.14 " fill="none" id="guests_internal-ms_guests" style="stroke:#181818;stroke-width:1.0;"/></g><!--MD5=[1c8b8e41eec736a525d44e0fb642894e]
link wallet_internal to ms_wallet--><g id="link_wallet_internal_ms_wallet"><path d="M217.61,425.67 C216.27,453.61 211.83,546.24 209.48,595.14 " fill="none" id="wallet_internal-ms_wallet" style="stroke:#181818;stroke-width:1.0;"/></g><!--MD5=[ff2c8ffe4ac8a7023e5f9019dae9d8ea]
link mdm_internal to mdm--><g id="link_mdm_internal_mdm"><path d="M876,143.32 C876,159.98 876,198.17 876,225.48 " fill="none" id="mdm_internal-mdm" style="stroke:#181818;stroke-width:1.0;"/></g><!--MD5=[3ad645b36e0682e35fcd146811f96dd6]
link mdm to match_merge--><g id="link_mdm_match_merge"><path d="M876,288.74 C876,314.87 876,352.39 876,379.83 " fill="none" id="mdm-to-match_merge" style="stroke:#181818;stroke-width:1.0;"/><polygon fill="#181818" points="876,384.84,880,375.84,876,379.84,872,375.84,876,384.84" style="stroke:#181818;stroke-width:1.0;"/></g><!--MD5=[7cfff68bcc2716ad4181fc1863047860]
link mdm_package to db2--><g id="link_mdm_package_db2"><path d="M979.1316,167.5888 C979.4135,168.7183 979.7012,169.8711 979.9945,171.0463 C980.581,173.3968 981.1899,175.8369 981.8192,178.3587 C983.0778,183.4022 984.418,188.7727 985.8241,194.4076 C988.6364,205.6774 991.7125,218.0047 994.9275,230.8887 C1007.7875,282.425 1022.87,342.87 1032.18,380.18 " fill="none" id="mdm_package-to-db2" style="stroke:#181818;stroke-width:1.0;stroke-dasharray:7.0,7.0;"/><polygon fill="#181818" points="1033.48,385.39,1035.171,375.6874,1032.264,380.5401,1027.4112,377.6331,1033.48,385.39" style="stroke:#181818;stroke-width:1.0;"/></g><!--MD5=[3728e85fd39c56197067781e363ec437]
link gateway to guests_internal--><g id="link_gateway_guests_internal"><path d="M375,266.03 C375,290.24 375,363.02 375,397.28 " fill="none" id="gateway-to-guests_internal" style="stroke:#181818;stroke-width:1.0;"/><path d="M383.4572,404.2218 A9,9 0 0 0 366.5428 404.2218" fill="none" style="stroke:#181818;stroke-width:1.5;"/></g><!--MD5=[5e464d3c789b7cb478c44ebcb3d22016]
link gateway to wallet_internal--><g id="link_gateway_wallet_internal"><path d="M365.63,261.29 C350.85,266.82 321.81,279.1 302,296.5 C267.77,326.57 240.11,373.26 226.73,398.28 " fill="none" id="gateway-to-wallet_internal" style="stroke:#181818;stroke-width:1.0;"/><path d="M230.9611,408.4789 A9,9 0 0 0 215.9702 400.6449" fill="none" style="stroke:#181818;stroke-width:1.5;"/></g><!--MD5=[5b0924be97d99f4b42712c7be1e32466]
link ms_guests to couch_db--><g id="link_ms_guests_couch_db"><path d="M372.98,658.55 C370.21,700.32 365.26,775.1 362.34,819.21 " fill="none" id="ms_guests-to-couch_db" style="stroke:#181818;stroke-width:1.0;stroke-dasharray:7.0,7.0;"/><polygon fill="#181818" points="361.99,824.44,366.5732,815.7225,362.3188,819.4508,358.5905,815.1964,361.99,824.44" style="stroke:#181818;stroke-width:1.0;"/></g><!--MD5=[9f95cd16f260286e55319d7268c9ccae]
link ms_wallet to couch_db--><g id="link_ms_wallet_couch_db"><path d="M228.5,658.55 C256.76,700.66 307.53,776.32 337.04,820.28 " fill="none" id="ms_wallet-to-couch_db" style="stroke:#181818;stroke-width:1.0;stroke-dasharray:7.0,7.0;"/><polygon fill="#181818" points="339.83,824.44,338.1274,814.7394,337.04,820.2908,331.4887,819.2034,339.83,824.44" style="stroke:#181818;stroke-width:1.0;"/></g><!--MD5=[31a5899a1d35084ec145db3d9932b64c]
link couch_db to nosql_data_access--><g id="link_couch_db_nosql_data_access"><path d="M403.16,855.5 C414.69,855.5 426.22,855.5 437.75,855.5 " fill="none" id="couch_db-nosql_data_access" style="stroke:#181818;stroke-width:1.0;"/></g><!--MD5=[c615f89baa09b41f7aa777cc85663aa4]
link data_lake to nosql_data_access--><g id="link_data_lake_nosql_data_access"><path d="M522.43,764.63 C504.15,786.41 476.68,819.14 460.42,838.51 " fill="none" id="data_lake-to-nosql_data_access" style="stroke:#181818;stroke-width:1.0;"/><path d="M462.2664,849.4604 A9,9 0 0 0 449.3121 838.5846" fill="none" style="stroke:#181818;stroke-width:1.5;"/></g><!--MD5=[72ec6d1f8a90e168d8cc7d8c78310f59]
link android to gateway--><g id="link_android_gateway"><path d="M425.84,165.53 C412.77,188.8 395.25,219.97 384.56,238.98 " fill="none" id="android-to-gateway" style="stroke:#181818;stroke-width:1.0;"/><path d="M388.4105,249.402 A9,9 0 0 0 373.6669 241.1118" fill="none" style="stroke:#181818;stroke-width:1.5;"/></g><!--MD5=[70011d888e820d831589a35534f2f817]
link ios to gateway--><g id="link_ios_gateway"><path d="M324.16,165.53 C337.23,188.8 354.75,219.97 365.44,238.98 " fill="none" id="ios-to-gateway" style="stroke:#181818;stroke-width:1.0;"/><path d="M376.3331,241.1118 A9,9 0 0 0 361.5895 249.402" fill="none" style="stroke:#181818;stroke-width:1.5;"/></g><!--MD5=[b6dceaa84534c7aadd69d4ab3c7bab94]
link web to gateway--><g id="link_web_gateway"><path d="M189.58,165.53 C244.72,192.43 321.53,229.91 356.43,246.94 " fill="none" id="web-to-gateway" style="stroke:#181818;stroke-width:1.0;"/><path d="M366.7832,242.5796 A9,9 0 0 0 359.3642 257.7801" fill="none" style="stroke:#181818;stroke-width:1.5;"/></g><!--MD5=[b69de3ebd0ddc99a165fcd5cb896ca40]
link teammember to gateway--><g id="link_teammember_gateway"><path d="M558.8,165.55 C543.25,173.39 526.52,181.79 511,189.5 C469.02,210.35 419.54,234.42 393.37,247.11 " fill="none" id="teammember-to-gateway" style="stroke:#181818;stroke-width:1.0;"/><path d="M390.7058,257.7908 A9,9 0 0 0 383.3354 242.5666" fill="none" style="stroke:#181818;stroke-width:1.5;"/></g><!--MD5=[bfa1a27fd83a3f9162138828e961b77b]
link authenticate to ldap--><g id="link_authenticate_ldap"><path d="M538,425.67 C538,435.1575 538,452.1075 538,472.2725 C538,482.355 538,493.2413 538,504.4003 C538,509.9798 538,515.6276 538,521.2771 C538,524.1019 538,526.9272 538,529.7446 C538,531.1533 538,532.56 538,533.9638 C538,534.3147 538,534.6655 538,535.016 " fill="none" id="authenticate-ldap" style="stroke:#181818;stroke-width:1.0;"/></g><!--MD5=[7c614c6059d17c678bbabd0113cb2b05]
link gateway to authenticate--><g id="link_gateway_authenticate"><path d="M384.31,261.37 C398.99,267.01 427.91,279.43 448,296.5 C483.57,326.72 513.65,373.35 528.35,398.32 " fill="none" id="gateway-to-authenticate" style="stroke:#181818;stroke-width:1.0;"/><path d="M539.3189,400.4188 A9,9 0 0 0 524.6659 408.8679" fill="none" style="stroke:#181818;stroke-width:1.5;"/></g><!--MD5=[86bc8d2d8c52204610828d843b8ac22d]
@startuml

skinparam database {
    backgroundColor Ivory
    borderColor black
}

skinparam package {
    backgroundColor #F0E442
}

interface gateway #YellowGreen
interface authenticate #Red

component "Data Lake" as data_lake

node "UI" #Strategy {
    component "Android" as android <<mobile>>
    component "iOS" as ios <<mobile>>
    component "universalorlando.com" as web <<public web>>
    component "Team Member Tools" as teammember <<internal web>>
}

node "LDAP" as ldap <<ldap>> #BurlyWood {
    folder "LDAP Directory" as ldap_dir
}

node "Microservices" #MediumTurquoise {

    package "ms-guests" as guests_package {
        interface internal as guests_internal #3D8CFF
        component "ms-guests" as ms_guests <<service>>
        guests_internal - - ms_guests
    }
    package "ms-wallet" as wallet_package {
        interface internal as wallet_internal #3D8CFF
        component "ms-wallet" as ms_wallet <<service>>
        wallet_internal - - ms_wallet
    }
    database "Couch DB" as couch_db <<NoSQL>> {

    }
    interface "Data Access" as nosql_data_access
}

node "IBM" #Gray {
    package "MDM AE" as mdm_package #Gray {
        interface internal as mdm_internal #Gray
        component "MDM Core" as mdm <<component>> #Gray
        component "Match & Merge" as match_merge <<component>> #Gray
    }
    database "MDM AE" as db2 <<DB2>> #Gray
    mdm_internal - - mdm
    mdm - -> match_merge
    mdm_package - -.> db2
}

'Gateway'
gateway - -( guests_internal
gateway - -( wallet_internal

'Couch'
ms_guests - -.> couch_db
ms_wallet - -.> couch_db
couch_db -right- nosql_data_access
data_lake - -( nosql_data_access

'UI'
android - -( gateway
ios - -( gateway
web - -( gateway
teammember -right-( gateway

'LDAP'
authenticate - - ldap
gateway - -( authenticate

'MDM'



'[Another Component] - -> [Example 1]
'[Example 1] - -> [Folder 3]
'[Folder 3] - -> [Frame 4]

@enduml

@startuml

skinparam database {
    backgroundColor Ivory
    borderColor black
}

skinparam package {
    backgroundColor #F0E442
}

interface gateway #YellowGreen
interface authenticate #Red

component "Data Lake" as data_lake

node "UI" #Strategy {
    component "Android" as android <<mobile>>
    component "iOS" as ios <<mobile>>
    component "universalorlando.com" as web <<public web>>
    component "Team Member Tools" as teammember <<internal web>>
}

node "LDAP" as ldap <<ldap>> #BurlyWood {
    folder "LDAP Directory" as ldap_dir
}

node "Microservices" #MediumTurquoise {

    package "ms-guests" as guests_package {
        interface internal as guests_internal #3D8CFF
        component "ms-guests" as ms_guests <<service>>
        guests_internal - - ms_guests
    }
    package "ms-wallet" as wallet_package {
        interface internal as wallet_internal #3D8CFF
        component "ms-wallet" as ms_wallet <<service>>
        wallet_internal - - ms_wallet
    }
    database "Couch DB" as couch_db <<NoSQL>> {

    }
    interface "Data Access" as nosql_data_access
}

node "IBM" #Gray {
    package "MDM AE" as mdm_package #Gray {
        interface internal as mdm_internal #Gray
        component "MDM Core" as mdm <<component>> #Gray
        component "Match & Merge" as match_merge <<component>> #Gray
    }
    database "MDM AE" as db2 <<DB2>> #Gray
    mdm_internal - - mdm
    mdm - -> match_merge
    mdm_package - -.> db2
}

gateway - -( guests_internal
gateway - -( wallet_internal

ms_guests - -.> couch_db
ms_wallet - -.> couch_db
couch_db -right- nosql_data_access
data_lake - -( nosql_data_access

android - -( gateway
ios - -( gateway
web - -( gateway
teammember -right-( gateway

authenticate - - ldap
gateway - -( authenticate





@enduml

PlantUML version 1.2022.7(Mon Aug 22 13:01:30 EDT 2022)
(GPL source distribution)
Java Runtime: OpenJDK Runtime Environment
JVM: OpenJDK 64-Bit Server VM
Default Encoding: UTF-8
Language: en
Country: US
--></g></svg>