<?xml version="1.0" encoding="UTF-8" standalone="no"?><svg xmlns="http://www.w3.org/2000/svg" xmlns:xlink="http://www.w3.org/1999/xlink" contentStyleType="text/css" height="706px" preserveAspectRatio="none" style="width:890px;height:706px;background:#FFFFFF;" version="1.1" viewBox="0 0 890 706" width="890px" zoomAndPan="magnify"><defs/><g><!--MD5=[9681dc6e01e10c6b4fe06895ae94f592]
cluster UI--><g id="cluster_UI"><polygon fill="#F8E7C0" points="16,16,26,6,725,6,725,115,715,125,16,125,16,16" style="stroke:#181818;stroke-width:1.0;"/><line style="stroke:#181818;stroke-width:1.0;" x1="715" x2="725" y1="16" y2="6"/><line style="stroke:#181818;stroke-width:1.0;" x1="16" x2="715" y1="16" y2="16"/><line style="stroke:#181818;stroke-width:1.0;" x1="715" x2="715" y1="16" y2="125"/><text fill="#000000" font-family="sans-serif" font-size="14" font-weight="bold" lengthAdjust="spacing" textLength="15" x="359" y="32.5352">UI</text></g><!--MD5=[1feb5a0622a9211287ff216bc4a47e33]
cluster ldap--><g id="cluster_ldap"><polygon fill="#DEB887" points="674,378,684,368,873,368,873,500,863,510,674,510,674,378" style="stroke:#181818;stroke-width:1.0;"/><line style="stroke:#181818;stroke-width:1.0;" x1="863" x2="873" y1="378" y2="368"/><line style="stroke:#181818;stroke-width:1.0;" x1="674" x2="863" y1="378" y2="378"/><line style="stroke:#181818;stroke-width:1.0;" x1="863" x2="863" y1="378" y2="510"/><text fill="#000000" font-family="sans-serif" font-size="14" font-style="italic" lengthAdjust="spacing" textLength="44" x="747.5" y="394.5352">«ldap»</text><text fill="#000000" font-family="sans-serif" font-size="14" font-weight="bold" lengthAdjust="spacing" textLength="38" x="750.5" y="411.0234">LDAP</text></g><!--MD5=[f72e8905bd6e3a370cb106f12698fafd]
cluster Microservices--><g id="cluster_Microservices"><polygon fill="#48D1CC" points="96,213,106,203,616,203,616,679.5,606,689.5,96,689.5,96,213" style="stroke:#181818;stroke-width:1.0;"/><line style="stroke:#181818;stroke-width:1.0;" x1="606" x2="616" y1="213" y2="203"/><line style="stroke:#181818;stroke-width:1.0;" x1="96" x2="606" y1="213" y2="213"/><line style="stroke:#181818;stroke-width:1.0;" x1="606" x2="606" y1="213" y2="689.5"/><text fill="#000000" font-family="sans-serif" font-size="14" font-weight="bold" lengthAdjust="spacing" textLength="98" x="303" y="229.5352">Microservices</text></g><!--MD5=[155688ac9c6405cb28b411556fc5fed5]
cluster guests_package--><g id="cluster_guests_package"><path d="M448.5,255 L528.5,255 A3.75,3.75 0 0 1 531,257.5 L538,277.4883 L589.5,277.4883 A2.5,2.5 0 0 1 592,279.9883 L592,504 A2.5,2.5 0 0 1 589.5,506.5 L448.5,506.5 A2.5,2.5 0 0 1 446,504 L446,257.5 A2.5,2.5 0 0 1 448.5,255 " fill="#F0E442" style="stroke:#000000;stroke-width:1.5;"/><line style="stroke:#000000;stroke-width:1.5;" x1="446" x2="538" y1="277.4883" y2="277.4883"/><text fill="#000000" font-family="sans-serif" font-size="14" font-weight="bold" lengthAdjust="spacing" textLength="79" x="450" y="270.5352">ms-guests</text><text fill="#000000" font-family="sans-serif" font-size="14" font-style="italic" lengthAdjust="spacing" textLength="43" x="501.5" y="293.0234">«New»</text></g><!--MD5=[47b50930d2ddde729e61ed45c55cebd8]
cluster guest_package--><g id="cluster_guest_package"><path d="M286.5,255 L358.5,255 A3.75,3.75 0 0 1 361,257.5 L368,277.4883 L419.5,277.4883 A2.5,2.5 0 0 1 422,279.9883 L422,504 A2.5,2.5 0 0 1 419.5,506.5 L286.5,506.5 A2.5,2.5 0 0 1 284,504 L284,257.5 A2.5,2.5 0 0 1 286.5,255 " fill="#F0E442" style="stroke:#000000;stroke-width:1.5;"/><line style="stroke:#000000;stroke-width:1.5;" x1="284" x2="368" y1="277.4883" y2="277.4883"/><text fill="#000000" font-family="sans-serif" font-size="14" font-weight="bold" lengthAdjust="spacing" textLength="71" x="288" y="270.5352">ms-guest</text><text fill="#000000" font-family="sans-serif" font-size="14" font-style="italic" lengthAdjust="spacing" textLength="54" x="330" y="293.0234">«proxy»</text></g><!--MD5=[6c2879b2d2bb996634356ed1d183dc5e]
cluster wallet_package--><g id="cluster_wallet_package"><path d="M122.5,251 L198.5,251 A3.75,3.75 0 0 1 201,253.5 L208,273.4883 L257.5,273.4883 A2.5,2.5 0 0 1 260,275.9883 L260,504 A2.5,2.5 0 0 1 257.5,506.5 L122.5,506.5 A2.5,2.5 0 0 1 120,504 L120,253.5 A2.5,2.5 0 0 1 122.5,251 " fill="#F0E442" style="stroke:#000000;stroke-width:1.5;"/><line style="stroke:#000000;stroke-width:1.5;" x1="120" x2="208" y1="273.4883" y2="273.4883"/><text fill="#000000" font-family="sans-serif" font-size="14" font-weight="bold" lengthAdjust="spacing" textLength="75" x="124" y="266.5352">ms-wallet</text></g><!--MD5=[d0e2a5f97e7b84b4a52fc47ac0121b09]
entity android--><g id="elem_android"><rect fill="#F1F1F1" height="62.9766" rx="2.5" ry="2.5" style="stroke:#181818;stroke-width:0.5;" width="101" x="392.5" y="46"/><rect fill="#F1F1F1" height="10" style="stroke:#181818;stroke-width:0.5;" width="15" x="473.5" y="51"/><rect fill="#F1F1F1" height="2" style="stroke:#181818;stroke-width:0.5;" width="4" x="471.5" y="53"/><rect fill="#F1F1F1" height="2" style="stroke:#181818;stroke-width:0.5;" width="4" x="471.5" y="57"/><text fill="#000000" font-family="sans-serif" font-size="14" font-style="italic" lengthAdjust="spacing" textLength="61" x="407.5" y="79.5352">«mobile»</text><text fill="#000000" font-family="sans-serif" font-size="14" lengthAdjust="spacing" textLength="56" x="410" y="96.0234">Android</text></g><!--MD5=[be09490d94791046e3419ff8f61a31bb]
entity ios--><g id="elem_ios"><rect fill="#F1F1F1" height="62.9766" rx="2.5" ry="2.5" style="stroke:#181818;stroke-width:0.5;" width="101" x="256.5" y="46"/><rect fill="#F1F1F1" height="10" style="stroke:#181818;stroke-width:0.5;" width="15" x="337.5" y="51"/><rect fill="#F1F1F1" height="2" style="stroke:#181818;stroke-width:0.5;" width="4" x="335.5" y="53"/><rect fill="#F1F1F1" height="2" style="stroke:#181818;stroke-width:0.5;" width="4" x="335.5" y="57"/><text fill="#000000" font-family="sans-serif" font-size="14" font-style="italic" lengthAdjust="spacing" textLength="61" x="271.5" y="79.5352">«mobile»</text><text fill="#000000" font-family="sans-serif" font-size="14" lengthAdjust="spacing" textLength="23" x="290.5" y="96.0234">iOS</text></g><!--MD5=[08af8945a84acfe1eabc0963aa87c412]
entity web--><g id="elem_web"><rect fill="#F1F1F1" height="62.9766" rx="2.5" ry="2.5" style="stroke:#181818;stroke-width:0.5;" width="189" x="32.5" y="46"/><rect fill="#F1F1F1" height="10" style="stroke:#181818;stroke-width:0.5;" width="15" x="201.5" y="51"/><rect fill="#F1F1F1" height="2" style="stroke:#181818;stroke-width:0.5;" width="4" x="199.5" y="53"/><rect fill="#F1F1F1" height="2" style="stroke:#181818;stroke-width:0.5;" width="4" x="199.5" y="57"/><text fill="#000000" font-family="sans-serif" font-size="14" font-style="italic" lengthAdjust="spacing" textLength="88" x="78" y="79.5352">«public web»</text><text fill="#000000" font-family="sans-serif" font-size="14" lengthAdjust="spacing" textLength="149" x="47.5" y="96.0234">universalorlando.com</text></g><!--MD5=[95dd478b86db0b9ac73366f6568c523e]
entity teammember--><g id="elem_teammember"><rect fill="#F1F1F1" height="62.9766" rx="2.5" ry="2.5" style="stroke:#181818;stroke-width:0.5;" width="180" x="529" y="46"/><rect fill="#F1F1F1" height="10" style="stroke:#181818;stroke-width:0.5;" width="15" x="689" y="51"/><rect fill="#F1F1F1" height="2" style="stroke:#181818;stroke-width:0.5;" width="4" x="687" y="53"/><rect fill="#F1F1F1" height="2" style="stroke:#181818;stroke-width:0.5;" width="4" x="687" y="57"/><text fill="#000000" font-family="sans-serif" font-size="14" font-style="italic" lengthAdjust="spacing" textLength="99" x="564.5" y="79.5352">«internal web»</text><text fill="#000000" font-family="sans-serif" font-size="14" lengthAdjust="spacing" textLength="140" x="544" y="96.0234">Team Member Tools</text></g><!--MD5=[85d3f8ffd301b42283bb9f0f23821f75]
entity ldap_dir--><g id="elem_ldap_dir"><path d="M720,432 L761,432 A3.75,3.75 0 0 1 763.5,434.5 L770.5,453 L846,453 A2.5,2.5 0 0 1 848.5,455.5 L848.5,483.9883 A2.5,2.5 0 0 1 846,486.4883 L720,486.4883 A2.5,2.5 0 0 1 717.5,483.9883 L717.5,434.5 A2.5,2.5 0 0 1 720,432 " fill="#F1F1F1" style="stroke:#181818;stroke-width:0.5;"/><line style="stroke:#181818;stroke-width:0.5;" x1="717.5" x2="770.5" y1="453" y2="453"/><text fill="#000000" font-family="sans-serif" font-size="14" lengthAdjust="spacing" textLength="101" x="727.5" y="473.5352">LDAP Directory</text></g><!--MD5=[733ebafc4ddc0c6f83011f92b027dea0]
entity couch_db--><g id="elem_couch_db"><path d="M459,621.5 C459,611.5 502,611.5 502,611.5 C502,611.5 545,611.5 545,621.5 L545,663.4766 C545,673.4766 502,673.4766 502,673.4766 C502,673.4766 459,673.4766 459,663.4766 L459,621.5 " fill="#FFFFF0" style="stroke:#000000;stroke-width:0.5;"/><path d="M459,621.5 C459,631.5 502,631.5 502,631.5 C502,631.5 545,631.5 545,621.5 " fill="none" style="stroke:#000000;stroke-width:0.5;"/><text fill="#000000" font-family="sans-serif" font-size="14" font-style="italic" lengthAdjust="spacing" textLength="59" x="472.5" y="649.0352">«NoSQL»</text><text fill="#000000" font-family="sans-serif" font-size="14" lengthAdjust="spacing" textLength="66" x="469" y="665.5234">Couch DB</text></g><!--MD5=[51969f2f23c9be6be87857b423767cab]
entity nosql_data_access--><g id="elem_nosql_data_access"><ellipse cx="589" cy="642.5" fill="#F1F1F1" rx="8" ry="8" style="stroke:#181818;stroke-width:0.5;"/><text fill="#000000" font-family="sans-serif" font-size="14" lengthAdjust="spacing" textLength="81" x="548.5" y="673.0352">Data Access</text></g><!--MD5=[d1b457bbd51b46fbb259e557b99e92ae]
entity guests_internal--><g id="elem_guests_internal"><ellipse cx="495" cy="315" fill="#3D8CFF" rx="8" ry="8" style="stroke:#181818;stroke-width:0.5;"/><text fill="#000000" font-family="sans-serif" font-size="14" lengthAdjust="spacing" textLength="53" x="468.5" y="345.5352">internal</text></g><!--MD5=[da13416faa82b4a43890a3a8fce00ce4]
entity ms_guests--><g id="elem_ms_guests"><rect fill="#F1F1F1" height="62.9766" rx="2.5" ry="2.5" style="stroke:#181818;stroke-width:0.5;" width="113" x="462.5" y="427.5"/><rect fill="#F1F1F1" height="10" style="stroke:#181818;stroke-width:0.5;" width="15" x="555.5" y="432.5"/><rect fill="#F1F1F1" height="2" style="stroke:#181818;stroke-width:0.5;" width="4" x="553.5" y="434.5"/><rect fill="#F1F1F1" height="2" style="stroke:#181818;stroke-width:0.5;" width="4" x="553.5" y="438.5"/><text fill="#000000" font-family="sans-serif" font-size="14" font-style="italic" lengthAdjust="spacing" textLength="61" x="483.5" y="461.0352">«service»</text><text fill="#000000" font-family="sans-serif" font-size="14" lengthAdjust="spacing" textLength="73" x="477.5" y="477.5234">ms-guests</text></g><!--MD5=[f31fdf47782496e3b291617a4a20cca7]
entity guest_internal--><g id="elem_guest_internal"><ellipse cx="375" cy="315" fill="#3D8CFF" rx="8" ry="8" style="stroke:#181818;stroke-width:0.5;"/><text fill="#000000" font-family="sans-serif" font-size="14" lengthAdjust="spacing" textLength="53" x="348.5" y="345.5352">internal</text></g><!--MD5=[07febe21ee9876a65e3fd88a98b64d08]
entity ms_guest--><g id="elem_ms_guest"><rect fill="#F1F1F1" height="62.9766" rx="2.5" ry="2.5" style="stroke:#181818;stroke-width:0.5;" width="106" x="300" y="427.5"/><rect fill="#F1F1F1" height="10" style="stroke:#181818;stroke-width:0.5;" width="15" x="386" y="432.5"/><rect fill="#F1F1F1" height="2" style="stroke:#181818;stroke-width:0.5;" width="4" x="384" y="434.5"/><rect fill="#F1F1F1" height="2" style="stroke:#181818;stroke-width:0.5;" width="4" x="384" y="438.5"/><text fill="#000000" font-family="sans-serif" font-size="14" font-style="italic" lengthAdjust="spacing" textLength="61" x="317.5" y="461.0352">«service»</text><text fill="#000000" font-family="sans-serif" font-size="14" lengthAdjust="spacing" textLength="66" x="315" y="477.5234">ms-guest</text></g><!--MD5=[ba5a8998a04e4bdc0dbbcbd792069ae3]
entity wallet_internal--><g id="elem_wallet_internal"><ellipse cx="200" cy="315" fill="#3D8CFF" rx="8" ry="8" style="stroke:#181818;stroke-width:0.5;"/><text fill="#000000" font-family="sans-serif" font-size="14" lengthAdjust="spacing" textLength="53" x="173.5" y="345.5352">internal</text></g><!--MD5=[c01b3adff0033688fb146172ea200fae]
entity ms_wallet--><g id="elem_ms_wallet"><rect fill="#F1F1F1" height="62.9766" rx="2.5" ry="2.5" style="stroke:#181818;stroke-width:0.5;" width="108" x="136" y="427.5"/><rect fill="#F1F1F1" height="10" style="stroke:#181818;stroke-width:0.5;" width="15" x="224" y="432.5"/><rect fill="#F1F1F1" height="2" style="stroke:#181818;stroke-width:0.5;" width="4" x="222" y="434.5"/><rect fill="#F1F1F1" height="2" style="stroke:#181818;stroke-width:0.5;" width="4" x="222" y="438.5"/><text fill="#000000" font-family="sans-serif" font-size="14" font-style="italic" lengthAdjust="spacing" textLength="61" x="154.5" y="461.0352">«service»</text><text fill="#000000" font-family="sans-serif" font-size="14" lengthAdjust="spacing" textLength="68" x="151" y="477.5234">ms-wallet</text></g><!--MD5=[7b30460008fc71f9986330c33ee2d290]
entity gateway--><g id="elem_gateway"><ellipse cx="375" cy="178" fill="#9ACD32" rx="8" ry="8" style="stroke:#181818;stroke-width:0.5;"/><text fill="#000000" font-family="sans-serif" font-size="14" lengthAdjust="spacing" textLength="56" x="347" y="208.5352">gateway</text></g><!--MD5=[58fe32485a25c6dfb2b4de3b02168686]
entity authenticate--><g id="elem_authenticate"><ellipse cx="682" cy="315" fill="#FF0000" rx="8" ry="8" style="stroke:#181818;stroke-width:0.5;"/><text fill="#000000" font-family="sans-serif" font-size="14" lengthAdjust="spacing" textLength="85" x="639.5" y="345.5352">authenticate</text></g><!--MD5=[741f803b0826940167ea2a9cc6fd3e1f]
entity data_lake--><g id="elem_data_lake"><rect fill="#F1F1F1" height="46.4883" rx="2.5" ry="2.5" style="stroke:#181818;stroke-width:0.5;" width="106" x="633" y="619.5"/><rect fill="#F1F1F1" height="10" style="stroke:#181818;stroke-width:0.5;" width="15" x="719" y="624.5"/><rect fill="#F1F1F1" height="2" style="stroke:#181818;stroke-width:0.5;" width="4" x="717" y="626.5"/><rect fill="#F1F1F1" height="2" style="stroke:#181818;stroke-width:0.5;" width="4" x="717" y="630.5"/><text fill="#000000" font-family="sans-serif" font-size="14" lengthAdjust="spacing" textLength="66" x="648" y="653.0352">Data Lake</text></g><!--MD5=[45f2ff5085d056267707c7d276a8e149]
link guests_internal to ms_guests--><g id="link_guests_internal_ms_guests"><path d="M496.36,324.04 C499.66,343.58 508.25,394.37 513.84,427.49 " fill="none" id="guests_internal-ms_guests" style="stroke:#181818;stroke-width:1.0;"/></g><!--MD5=[d27ec4ec336a7214b286012dbaabf1f3]
link guest_internal to ms_guest--><g id="link_guest_internal_ms_guest"><path d="M373.75,324.04 C370.73,343.58 362.86,394.37 357.73,427.49 " fill="none" id="guest_internal-ms_guest" style="stroke:#181818;stroke-width:1.0;"/></g><!--MD5=[1c8b8e41eec736a525d44e0fb642894e]
link wallet_internal to ms_wallet--><g id="link_wallet_internal_ms_wallet"><path d="M199.43,324.04 C198.06,343.58 194.48,394.37 192.15,427.49 " fill="none" id="wallet_internal-ms_wallet" style="stroke:#181818;stroke-width:1.0;"/></g><!--MD5=[0d5cab5ad81925c19919ec5629d1328b]
link guest_internal to guests_internal--><g id="link_guest_internal_guests_internal"><path d="M384.38,315 C414.79,315 445.2,315 475.61,315 " fill="none" id="guest_internal-to-guests_internal" style="stroke:#181818;stroke-width:1.0;"/><path d="M482.8518,306.5428 A9,9 0 0 0 482.8518 323.4572" fill="none" style="stroke:#181818;stroke-width:1.5;"/></g><!--MD5=[99a2a1653296f43ee36539ff464ff338]
link gateway to guest_internal--><g id="link_gateway_guest_internal"><path d="M375,187.04 C375,208.19 375,265.78 375,295.58 " fill="none" id="gateway-to-guest_internal" style="stroke:#181818;stroke-width:1.0;"/><path d="M383.4572,302.7518 A9,9 0 0 0 366.5428 302.7518" fill="none" style="stroke:#181818;stroke-width:1.5;"/></g><!--MD5=[5e464d3c789b7cb478c44ebcb3d22016]
link gateway to wallet_internal--><g id="link_gateway_wallet_internal"><path d="M365.93,178.42 C348.59,177.75 310.15,178.42 284,195 C244.96,219.76 218.84,269.84 207.1,296.45 " fill="none" id="gateway-to-wallet_internal" style="stroke:#181818;stroke-width:1.0;"/><path d="M212.0585,306.4449 A9,9 0 0 0 196.4768 299.8638" fill="none" style="stroke:#181818;stroke-width:1.5;"/></g><!--MD5=[5b0924be97d99f4b42712c7be1e32466]
link ms_guests to couch_db--><g id="link_ms_guests_couch_db"><path d="M516.12,490.79 C513.12,522.76 508.44,572.7 505.3,606.23 " fill="none" id="ms_guests-to-couch_db" style="stroke:#181818;stroke-width:1.0;stroke-dasharray:7.0,7.0;"/><polygon fill="#181818" points="504.81,611.47,509.6173,602.8741,505.2678,606.491,501.6509,602.1415,504.81,611.47" style="stroke:#181818;stroke-width:1.0;"/></g><!--MD5=[9f95cd16f260286e55319d7268c9ccae]
link ms_wallet to couch_db--><g id="link_ms_wallet_couch_db"><path d="M231.36,490.71 C247.49,502.24 266.32,515.17 284,526 C341.02,560.94 409.58,596.22 454.39,618.43 " fill="none" id="ms_wallet-to-couch_db" style="stroke:#181818;stroke-width:1.0;stroke-dasharray:7.0,7.0;"/><polygon fill="#181818" points="458.93,620.68,452.6303,613.1095,454.4465,618.4668,449.0891,620.2831,458.93,620.68" style="stroke:#181818;stroke-width:1.0;"/></g><!--MD5=[31a5899a1d35084ec145db3d9932b64c]
link couch_db to nosql_data_access--><g id="link_couch_db_nosql_data_access"><path d="M545.16,642.5 C556.69,642.5 568.22,642.5 579.75,642.5 " fill="none" id="couch_db-nosql_data_access" style="stroke:#181818;stroke-width:1.0;"/></g><!--MD5=[c615f89baa09b41f7aa777cc85663aa4]
link data_lake to nosql_data_access--><g id="link_data_lake_nosql_data_access"><path d="M632.78,642.5 C624.56,642.5 616.34,642.5 608.12,642.5 " fill="none" id="data_lake-to-nosql_data_access" style="stroke:#181818;stroke-width:1.0;"/><path d="M601.1682,650.9572 A9,9 0 0 0 601.1682 634.0428" fill="none" style="stroke:#181818;stroke-width:1.5;"/></g><!--MD5=[72ec6d1f8a90e168d8cc7d8c78310f59]
link android to gateway--><g id="link_android_gateway"><path d="M421.86,109.13 C410.2,126.01 396.18,146.32 386.53,160.3 " fill="none" id="android-to-gateway" style="stroke:#181818;stroke-width:1.0;"/><path d="M389.3403,171.115 A9,9 0 0 0 375.4134 161.516" fill="none" style="stroke:#181818;stroke-width:1.5;"/></g><!--MD5=[70011d888e820d831589a35534f2f817]
link ios to gateway--><g id="link_ios_gateway"><path d="M328.14,109.13 C339.8,126.01 353.82,146.32 363.47,160.3 " fill="none" id="ios-to-gateway" style="stroke:#181818;stroke-width:1.0;"/><path d="M374.5866,161.516 A9,9 0 0 0 360.6597 171.115" fill="none" style="stroke:#181818;stroke-width:1.5;"/></g><!--MD5=[b6dceaa84534c7aadd69d4ab3c7bab94]
link web to gateway--><g id="link_web_gateway"><path d="M185.88,109.06 C202.81,117.33 221.45,125.93 239,133 C279.89,149.47 329.51,164.27 356.06,171.78 " fill="none" id="web-to-gateway" style="stroke:#181818;stroke-width:1.0;"/><path d="M365.2496,165.5658 A9,9 0 0 0 360.6827 181.852" fill="none" style="stroke:#181818;stroke-width:1.5;"/></g><!--MD5=[b69de3ebd0ddc99a165fcd5cb896ca40]
link teammember to gateway--><g id="link_teammember_gateway"><path d="M562.6,109.03 C546.2,117.33 528.09,125.97 511,133 C470.23,149.76 420.56,164.45 393.97,171.87 " fill="none" id="teammember-to-gateway" style="stroke:#181818;stroke-width:1.0;"/><path d="M389.2842,181.9328 A9,9 0 0 0 384.8132 165.6199" fill="none" style="stroke:#181818;stroke-width:1.5;"/></g><!--MD5=[bfa1a27fd83a3f9162138828e961b77b]
link authenticate to ldap--><g id="link_authenticate_ldap"><path d="M682,324.04 C682,331.4325 682,343.2994 682,356.9906 C682,360.4134 682,363.9503 682,367.5597 " fill="none" id="authenticate-ldap" style="stroke:#181818;stroke-width:1.0;"/></g><!--MD5=[7c614c6059d17c678bbabd0113cb2b05]
link gateway to authenticate--><g id="link_gateway_authenticate"><path d="M384.23,179.23 C423.25,180.28 573.54,184.95 592,195 C633.78,217.74 661.93,269.08 674.5,296.3 " fill="none" id="gateway-to-authenticate" style="stroke:#181818;stroke-width:1.0;"/><path d="M685.1718,299.4861 A9,9 0 0 0 669.7112 306.3467" fill="none" style="stroke:#181818;stroke-width:1.5;"/></g><!--MD5=[8121f332a4a0a9dcab7792f451bfc50a]
@startuml

skinparam database {
    backgroundColor Ivory
    borderColor black
}

skinparam package {
    backgroundColor #F0E442
}

interface gateway #YellowGreen
interface authenticate #Red

component "Data Lake" as data_lake

node "UI" #Strategy {
    component "Android" as android <<mobile>>
    component "iOS" as ios <<mobile>>
    component "universalorlando.com" as web <<public web>>
    component "Team Member Tools" as teammember <<internal web>>
}

node "LDAP" as ldap <<ldap>> #BurlyWood {
    folder "LDAP Directory" as ldap_dir
}

node "Microservices" #MediumTurquoise {

    package "ms-guests" as guests_package <<New>>{
        interface internal as guests_internal #3D8CFF
        component "ms-guests" as ms_guests <<service>>
        guests_internal - - ms_guests
    }
    package "ms-guest" as guest_package <<proxy>> {
        interface internal as guest_internal #3D8CFF
        component "ms-guest" as ms_guest <<service>>
        guest_internal - - ms_guest
    }
    package "ms-wallet" as wallet_package {
        interface internal as wallet_internal #3D8CFF
        component "ms-wallet" as ms_wallet <<service>>
        wallet_internal - - ms_wallet
    }
    guest_internal -right-( guests_internal
    database "Couch DB" as couch_db <<NoSQL>>
    interface "Data Access" as nosql_data_access
}

'Gateway'
gateway - -( guest_internal
gateway - -( wallet_internal

'Couch'
ms_guests - -.> couch_db
ms_wallet - -.> couch_db
couch_db -right- nosql_data_access
data_lake -right-( nosql_data_access

'UI'
android - -( gateway
ios - -( gateway
web - -( gateway
teammember -right-( gateway

'LDAP'
authenticate - - ldap
gateway - -( authenticate

@enduml

@startuml

skinparam database {
    backgroundColor Ivory
    borderColor black
}

skinparam package {
    backgroundColor #F0E442
}

interface gateway #YellowGreen
interface authenticate #Red

component "Data Lake" as data_lake

node "UI" #Strategy {
    component "Android" as android <<mobile>>
    component "iOS" as ios <<mobile>>
    component "universalorlando.com" as web <<public web>>
    component "Team Member Tools" as teammember <<internal web>>
}

node "LDAP" as ldap <<ldap>> #BurlyWood {
    folder "LDAP Directory" as ldap_dir
}

node "Microservices" #MediumTurquoise {

    package "ms-guests" as guests_package <<New>>{
        interface internal as guests_internal #3D8CFF
        component "ms-guests" as ms_guests <<service>>
        guests_internal - - ms_guests
    }
    package "ms-guest" as guest_package <<proxy>> {
        interface internal as guest_internal #3D8CFF
        component "ms-guest" as ms_guest <<service>>
        guest_internal - - ms_guest
    }
    package "ms-wallet" as wallet_package {
        interface internal as wallet_internal #3D8CFF
        component "ms-wallet" as ms_wallet <<service>>
        wallet_internal - - ms_wallet
    }
    guest_internal -right-( guests_internal
    database "Couch DB" as couch_db <<NoSQL>>
    interface "Data Access" as nosql_data_access
}

gateway - -( guest_internal
gateway - -( wallet_internal

ms_guests - -.> couch_db
ms_wallet - -.> couch_db
couch_db -right- nosql_data_access
data_lake -right-( nosql_data_access

android - -( gateway
ios - -( gateway
web - -( gateway
teammember -right-( gateway

authenticate - - ldap
gateway - -( authenticate

@enduml

PlantUML version 1.2022.7(Mon Aug 22 13:01:30 EDT 2022)
(GPL source distribution)
Java Runtime: OpenJDK Runtime Environment
JVM: OpenJDK 64-Bit Server VM
Default Encoding: UTF-8
Language: en
Country: US
--></g></svg>